<?xml version="1.0" standalone="no"?>
<!DOCTYPE svg PUBLIC "-//W3C//DTD SVG 1.1//EN" "http://www.w3.org/Graphics/SVG/1.1/DTD/svg11.dtd" >
<svg xmlns="http://www.w3.org/2000/svg" xmlns:xlink="http://www.w3.org/1999/xlink" version="1.1">
<metadata>
Created by FontForge 20160405 at Tue Sep 12 07:49:09 2017
 By Apache
Copyright (c) 2011 by Process Type Foundry, LLC. All rights reserved.
</metadata>
<defs>
<font id="Elena-Bold" horiz-adv-x="550" >
  <font-face 
    font-family="Elena Bold"
    font-weight="700"
    font-stretch="normal"
    units-per-em="1000"
    panose-1="0 0 0 0 0 0 0 0 0 0"
    ascent="740"
    descent="-260"
    x-height="476"
    cap-height="661"
    bbox="-49 -286 1128 1080"
    underline-thickness="78"
    underline-position="-100"
    stemh="73"
    stemv="141"
    unicode-range="U+0020-FB02"
  />
<missing-glyph horiz-adv-x="655" 
d="M95 0v661h465v-661h-465zM513 613h-344l344 -529v529zM142 576v-529h343z" />
    <glyph glyph-name="fi" unicode="fi" horiz-adv-x="695" 
d="M162 2c-41 0 -133 -4 -133 -4c-2 5 -3 11 -3 15c0 26 28 39 28 39l39 12v343h-64l-8 33l72 41v18c0 114 101 229 240 229c30 0 63 -7 77 -13c5 -9 7 -18 7 -29c0 -35 -22 -77 -41 -95c-17 15 -79 57 -114 57c-23 0 -28 -33 -28 -92v-73l134 2c0 -37 -20 -64 -34 -78h-100
v-340c44 -8 105 -12 105 -12s-1 -29 -24 -57c0 0 -85 4 -153 4zM618 64c29 -7 73 -12 73 -12s-1 -26 -24 -54c0 0 -82 4 -121 4c-41 0 -137 -4 -137 -4c-2 5 -3 11 -3 15c0 26 28 39 28 39l43 12v343c-34 6 -80 13 -80 13c-1 3 -2 9 -2 13c0 26 26 39 26 39s104 7 197 15
v-423zM453 648c0 45 38 82 84 82c50 0 83 -38 83 -82c0 -47 -38 -85 -85 -85c-51 0 -82 40 -82 85z" />
    <glyph glyph-name="fl" unicode="fl" horiz-adv-x="669" 
d="M162 2c-41 0 -133 -4 -133 -4c-2 5 -3 11 -3 15c0 26 28 39 28 39l39 12v343h-64l-8 33l72 41v18c0 114 101 229 246 229c35 0 75 -9 99 -18l154 20v-666c29 -7 73 -12 73 -12s-3 -26 -26 -54c0 0 -80 4 -119 4c-41 0 -137 -4 -137 -4c-2 5 -3 11 -3 15c0 26 28 39 28 39
l43 12v535c-50 32 -112 51 -162 51c-44 0 -55 -21 -55 -80v-87l137 2c0 -37 -20 -64 -34 -78h-103v-340c44 -8 84 -12 84 -12s-1 -29 -24 -57c0 0 -64 4 -132 4z" />
    <glyph glyph-name="ornm01.ornm" unicode="_&#x3e;" horiz-adv-x="784" 
d="M566 319v-16s-305 -47 -437 -47h-86c0 64 29 100 41 110h50c131 0 432 -47 432 -47zM716 335v-48c-82 -31 -181 -118 -226 -186l-33 25c18 69 87 153 151 185c-64 32 -133 116 -151 185l33 25c45 -68 144 -155 226 -186z" />
    <glyph glyph-name="ornm02.ornm" unicode="&#x3c;_" horiz-adv-x="784" 
d="M218 303v16s301 47 432 47h50c12 -10 41 -46 41 -110h-86c-132 0 -437 47 -437 47zM68 287v48c82 31 181 118 226 186l33 -25c-18 -69 -87 -153 -151 -185c64 -32 133 -116 151 -185l-33 -25c-45 68 -144 155 -226 186z" />
    <glyph glyph-name="ornm03.ornm" unicode="&#x2013;&#x2265;" horiz-adv-x="782" 
d="M630 311c-89 39 -178 83 -178 155c0 48 50 74 79 74c0 -107 69 -166 185 -213v-32c-116 -47 -185 -106 -185 -213c-29 0 -79 26 -79 74c0 72 89 116 178 155zM566 319v-16s-305 -47 -437 -47h-86c0 64 29 100 41 110h50c131 0 432 -47 432 -47z" />
    <glyph glyph-name="ornm04.ornm" unicode="&#x2264;&#x2013;" horiz-adv-x="782" 
d="M152 311c89 -39 178 -83 178 -155c0 -48 -50 -74 -79 -74c0 107 -69 166 -185 213v32c116 47 185 106 185 213c29 0 79 -26 79 -74c0 -72 -89 -116 -178 -155zM216 303v16s301 47 432 47h50c12 -10 41 -46 41 -110h-86c-132 0 -437 47 -437 47z" />
    <glyph glyph-name="ornm05.ornm" unicode="_&#x3e;&#x3e;" horiz-adv-x="985" 
d="M513 323v-24s-259 -43 -384 -43h-86c0 64 29 100 41 110h50c124 0 379 -43 379 -43zM917 335v-48c-82 -31 -181 -118 -226 -186l-33 25c18 69 87 153 151 185c-64 32 -133 116 -151 185l33 25c45 -68 144 -155 226 -186zM716 335v-48c-82 -31 -181 -118 -226 -186l-33 25
c18 69 87 153 151 185c-64 32 -133 116 -151 185l33 25c45 -68 144 -155 226 -186z" />
    <glyph glyph-name="ornm06.ornm" unicode="&#x3c;&#x3c;_" horiz-adv-x="985" 
d="M472 299v24s255 43 379 43h50c12 -10 41 -46 41 -110h-86c-125 0 -384 43 -384 43zM68 287v48c82 31 181 118 226 186l33 -25c-18 -69 -87 -153 -151 -185c64 -32 133 -116 151 -185l-33 -25c-45 68 -144 155 -226 186zM269 287v48c82 31 181 118 226 186l33 -25
c-18 -69 -87 -153 -151 -185c64 -32 133 -116 151 -185l-33 -25c-45 68 -144 155 -226 186z" />
    <glyph glyph-name="ornm07.ornm" unicode="&#x2013;&#x2265;&#x2265;" horiz-adv-x="982" 
d="M630 311c-89 39 -178 83 -178 155c0 48 50 74 79 74c0 -107 69 -166 185 -213v-32c-116 -47 -185 -106 -185 -213c-29 0 -79 26 -79 74c0 72 89 116 178 155zM830 311c-89 39 -178 83 -178 155c0 48 50 74 79 74c0 -107 69 -166 185 -213v-32
c-116 -47 -185 -106 -185 -213c-29 0 -79 26 -79 74c0 72 89 116 178 155zM513 323v-24s-259 -43 -384 -43h-86c0 64 29 100 41 110h50c124 0 379 -43 379 -43z" />
    <glyph glyph-name="ornm08.ornm" unicode="&#x2264;&#x2264;&#x2013;" horiz-adv-x="982" 
d="M266 327c116 47 185 106 185 213c29 0 79 -26 79 -74c0 -72 -89 -116 -178 -155c89 -39 178 -83 178 -155c0 -48 -50 -74 -79 -74c0 107 -69 166 -185 213v32zM152 311c89 -39 178 -83 178 -155c0 -48 -50 -74 -79 -74c0 107 -69 166 -185 213v32c116 47 185 106 185 213
c29 0 79 -26 79 -74c0 -72 -89 -116 -178 -155zM469 299v24s255 43 379 43h50c12 -10 41 -46 41 -110h-86c-125 0 -384 43 -384 43z" />
    <glyph glyph-name="ornm09.ornm" unicode="&#x28;&#x28;&#x28;&#x29;&#x29;&#x29;" horiz-adv-x="655" 
d="M597 273c0 -138 -102 -274 -273 -274c-170 0 -266 136 -266 274c0 98 46 164 131 164c73 0 105 -38 138 -85c27 59 66 92 138 92c85 0 132 -73 132 -171z" />
    <glyph glyph-name=".notdef" horiz-adv-x="655" 
d="M95 0v661h465v-661h-465zM513 613h-344l344 -529v529zM142 576v-529h343z" />
    <glyph glyph-name="space" unicode=" " horiz-adv-x="210" 
 />
    <glyph glyph-name="exclam" unicode="!" horiz-adv-x="273" 
d="M60 616v39c18 16 49 27 81 27s60 -9 76 -27v-39c0 -76 -54 -396 -54 -396h-51s-52 320 -52 396zM55 74c0 45 32 81 80 81s83 -35 83 -80c0 -48 -35 -85 -83 -85s-80 36 -80 84z" />
    <glyph glyph-name="quotedbl" unicode="&#x22;" horiz-adv-x="313" 
d="M44 718c17 14 41 17 56 17c19 0 42 -5 53 -18c-7 -64 -64 -220 -64 -220h-48s-2 51 -2 108c0 40 1 83 5 113zM195 718c17 14 41 17 56 17c19 0 42 -5 53 -18c-7 -64 -64 -220 -64 -220h-48s-2 51 -2 108c0 41 1 84 5 113z" />
    <glyph glyph-name="numbersign" unicode="#" horiz-adv-x="607" 
d="M342 0l15 108h-138l-15 -108h-78l15 108h-111c-2 7 -3 14 -3 22c0 19 6 41 19 57h106l19 145h-110c-2 7 -3 14 -3 22c0 19 6 41 19 57h105l15 108h78l-15 -108h139l14 108h78l-15 -108h102c2 -7 3 -14 3 -22c0 -19 -6 -41 -19 -57h-97l-19 -145h101c2 -7 3 -14 3 -22
c0 -19 -6 -41 -19 -57h-96l-15 -108h-78zM250 332l-20 -145h138l20 145h-138z" />
    <glyph glyph-name="dollar" unicode="$" horiz-adv-x="466" 
d="M53 25c-2 18 -3 50 -3 73c0 28 1 57 3 72c10 7 19 9 28 9c15 0 28 -8 28 -8c4 -30 11 -70 26 -98c23 -13 54 -15 76 -15c55 0 69 31 69 65c0 44 -33 65 -103 97c-86 40 -121 74 -121 146c0 70 52 129 141 147v94c11 7 36 19 76 19h14v-108c47 -3 91 -14 112 -23
c4 -21 6 -57 6 -84c0 -23 -1 -42 -3 -51c-9 -6 -17 -8 -29 -8c-16 0 -26 7 -26 7c-3 24 -8 67 -26 90c-12 5 -39 10 -62 10c-55 0 -75 -22 -75 -58c0 -31 15 -44 101 -84c88 -41 133 -73 133 -156c0 -70 -48 -137 -141 -157v-95c-11 -7 -36 -19 -76 -19h-14v108
c-59 2 -108 17 -134 27z" />
    <glyph glyph-name="percent" unicode="%" horiz-adv-x="657" 
d="M153 264c-72 0 -122 34 -122 117c0 90 75 134 134 134c74 0 122 -39 122 -117c0 -92 -74 -134 -134 -134zM121 394c0 -36 7 -71 41 -71c23 0 36 18 36 61c0 36 -6 71 -41 71c-24 0 -36 -17 -36 -61zM494 -10c-72 0 -122 34 -122 117c0 90 75 134 134 134
c74 0 122 -39 122 -117c0 -92 -74 -134 -134 -134zM462 120c0 -36 7 -71 41 -71c23 0 36 18 36 61c0 36 -6 71 -41 71c-24 0 -36 -17 -36 -61zM138 18l311 510l68 -42l-311 -510z" />
    <glyph glyph-name="ampersand" unicode="&#x26;" horiz-adv-x="743" 
d="M633 355v-44c0 -52 -27 -118 -73 -174c56 -60 106 -79 178 -86v-51c-26 -1 -69 -2 -109 -2c-74 0 -124 15 -169 48c-54 -34 -118 -56 -188 -56c-133 0 -244 40 -244 163c0 86 62 153 141 203c-34 44 -55 84 -55 139c0 96 97 175 231 175c86 0 153 -29 170 -71
c1 -7 2 -13 2 -19c0 -53 -43 -83 -76 -94c-14 50 -50 117 -121 117c-50 0 -66 -37 -66 -77c0 -68 72 -132 131 -197l120 -131c9 28 14 61 14 100v57l-64 14c-2 6 -3 11 -3 16c0 28 28 41 28 41s60 -2 107 -2c62 0 139 2 139 2s1 -29 -25 -57c0 0 -39 -8 -68 -14zM412 89
l-203 221c-18 -32 -32 -74 -32 -122c0 -59 23 -123 115 -123c42 0 85 7 120 24z" />
    <glyph glyph-name="quotesingle" unicode="'" horiz-adv-x="164" 
d="M44 718c17 14 42 17 57 17c19 0 43 -5 54 -18c-7 -64 -64 -220 -64 -220h-50s-2 51 -2 108c0 41 1 84 5 113z" />
    <glyph glyph-name="parenleft" unicode="(" horiz-adv-x="339" 
d="M64 281c0 206 89 337 199 460l57 -46c-95 -147 -115 -265 -115 -414s20 -267 115 -414l-57 -46c-110 123 -199 254 -199 460z" />
    <glyph glyph-name="parenright" unicode=")" horiz-adv-x="339" 
d="M134 281c0 149 -20 267 -115 414l57 46c110 -123 199 -254 199 -460s-89 -337 -199 -460l-57 46c95 147 115 265 115 414z" />
    <glyph glyph-name="asterisk" unicode="*" horiz-adv-x="396" 
d="M244 733v-10c0 -48 -25 -107 -36 -130c20 18 67 59 113 74l9 3c20 -11 33 -42 33 -66c0 -8 -1 -14 -4 -21l-10 -3c-23 -7 -54 -9 -81 -9c-24 0 -44 2 -56 3c25 -15 77 -46 105 -84l6 -8c-3 -13 -15 -28 -30 -39c-14 -10 -32 -15 -44 -15l-6 8c-25 34 -38 86 -45 114
c-8 -31 -21 -80 -45 -114l-6 -8c-13 0 -30 5 -44 15c-15 11 -27 26 -30 39l6 8c28 38 81 69 104 84c-12 -2 -34 -3 -58 -3c-26 0 -55 2 -78 9l-10 3c-2 6 -4 13 -4 21c0 24 12 52 33 66l9 -3c47 -16 93 -56 114 -76c-11 25 -36 83 -36 132v10c10 9 28 14 46 14s35 -5 45 -14
z" />
    <glyph glyph-name="plus" unicode="+" horiz-adv-x="577" 
d="M71 306h169v174h97v-174h169v-92h-169v-174h-97v174h-169v92z" />
    <glyph glyph-name="comma" unicode="," horiz-adv-x="255" 
d="M48 52c0 27 7 93 64 105c60 -3 107 -39 107 -109c0 -92 -83 -190 -113 -221l-43 30c17 25 51 81 51 142c0 21 -33 43 -66 53z" />
    <glyph glyph-name="hyphen" unicode="-" horiz-adv-x="321" 
d="M55 317h223c2 -12 3 -23 3 -33c0 -35 -11 -61 -15 -69h-223c-2 10 -3 20 -3 30c0 32 11 63 15 72z" />
    <glyph glyph-name="period" unicode="." horiz-adv-x="247" 
d="M42 74c0 45 32 81 80 81s83 -35 83 -80c0 -48 -35 -85 -83 -85s-80 36 -80 84z" />
    <glyph glyph-name="slash" unicode="/" horiz-adv-x="338" 
d="M316 670l-193 -747h-101l194 747h100z" />
    <glyph glyph-name="zero" unicode="0" horiz-adv-x="569" 
d="M277 -10c-124 0 -237 66 -237 251c0 196 131 288 253 288c124 0 237 -65 237 -250c0 -198 -131 -289 -253 -289zM195 271c0 -119 27 -206 95 -206c52 0 85 46 85 184c0 119 -27 205 -95 205c-52 0 -85 -41 -85 -183z" />
    <glyph glyph-name="one" unicode="1" horiz-adv-x="382" 
d="M135 69v367h-105c-1 5 -2 10 -2 14c0 31 26 46 26 46s120 14 222 28v-455c41 -8 99 -16 99 -16s-1 -31 -23 -55c0 0 -88 4 -147 4c-55 0 -167 -4 -167 -4c-2 5 -2 10 -2 14c0 27 27 41 27 41z" />
    <glyph glyph-name="two" unicode="2" horiz-adv-x="543" 
d="M491 0h-468v61s78 60 109 86c90 74 156 139 156 213c0 53 -23 83 -80 83c-63 0 -112 -25 -138 -40l-21 55c26 16 114 71 211 71c114 0 186 -44 186 -138c0 -108 -104 -182 -167 -225c-38 -26 -115 -77 -115 -77l251 14c12 24 22 64 26 98c8 6 18 10 30 10
c11 0 22 -4 29 -11c0 -10 1 -23 1 -38c0 -49 -3 -118 -10 -162z" />
    <glyph glyph-name="three" unicode="3" horiz-adv-x="501" 
d="M197 -76c85 0 109 61 109 129c0 82 -44 132 -133 132h-65v55c77 10 170 37 170 130c0 47 -25 73 -75 73c-53 0 -95 -20 -124 -36l-21 52c39 26 116 70 204 70c115 0 168 -51 168 -126c0 -79 -63 -134 -128 -160c93 -12 160 -60 160 -156c0 -134 -123 -238 -285 -238
c-60 0 -120 15 -145 38c-4 9 -5 18 -5 28c0 33 18 65 57 78c22 -23 56 -69 113 -69z" />
    <glyph glyph-name="four" unicode="4" horiz-adv-x="547" 
d="M20 53v58l323 408h85v-381l116 2l-4 -87h-112v-194h-136v194h-272zM127 134l165 2v207z" />
    <glyph glyph-name="five" unicode="5" horiz-adv-x="505" 
d="M194 -76c92 0 114 73 114 146c0 77 -38 126 -103 126c-52 0 -85 -13 -119 -27l-28 23l24 327h356l-7 -112h-268l-14 -152c31 12 68 22 116 22c130 0 199 -74 199 -185c0 -138 -119 -243 -294 -243c-62 0 -119 15 -142 37c-1 8 -2 15 -2 23c0 37 16 71 55 84
c22 -23 56 -69 113 -69z" />
    <glyph glyph-name="six" unicode="6" horiz-adv-x="562" 
d="M466 609c-153 -19 -237 -85 -262 -222c25 18 73 46 132 46c85 0 184 -43 184 -197c0 -156 -109 -246 -242 -246c-131 0 -236 75 -236 275c0 210 130 384 417 408zM197 295c0 -129 21 -230 94 -230c62 0 74 60 74 141c0 100 -36 143 -105 143c-26 0 -47 -6 -62 -13
c-1 -15 -1 -27 -1 -41z" />
    <glyph glyph-name="seven" unicode="7" horiz-adv-x="504" 
d="M53 519h428v-68l-219 -602l-114 40l208 518h-232c-7 -24 -18 -75 -22 -106c-9 -7 -19 -10 -30 -10c-13 0 -26 5 -34 12c0 44 6 150 15 216z" />
    <glyph glyph-name="eight" unicode="8" horiz-adv-x="581" 
d="M71 497c0 106 121 173 241 173c132 0 199 -61 199 -140c0 -75 -65 -127 -128 -160c80 -41 149 -77 149 -182c0 -106 -108 -198 -262 -198c-141 0 -219 63 -219 155c0 79 60 138 146 181c-70 37 -126 87 -126 171zM291 61c69 0 89 51 89 101c0 74 -52 102 -127 137
c-38 -36 -59 -74 -59 -128c0 -65 39 -110 97 -110zM221 522c0 -65 45 -93 106 -123c24 25 44 63 44 108c0 58 -34 95 -80 95s-70 -32 -70 -80z" />
    <glyph glyph-name="nine" unicode="9" horiz-adv-x="562" 
d="M96 -90c153 19 237 85 261 221c-25 -17 -72 -45 -131 -45c-85 0 -184 43 -184 197c0 156 109 246 242 246c131 0 236 -75 236 -275c0 -210 -130 -384 -417 -408zM365 224c0 129 -21 230 -94 230c-62 0 -74 -60 -74 -141c0 -100 36 -143 105 -143c25 0 46 6 61 12
c1 13 2 27 2 42z" />
    <glyph glyph-name="colon" unicode=":" horiz-adv-x="247" 
d="M42 74c0 45 32 81 80 81s83 -35 83 -80c0 -48 -35 -85 -83 -85s-80 36 -80 84zM42 389c0 45 32 81 80 81s83 -35 83 -80c0 -48 -35 -85 -83 -85s-80 36 -80 84z" />
    <glyph glyph-name="semicolon" unicode=";" horiz-adv-x="245" 
d="M37 52c0 27 7 93 64 105c60 -3 107 -39 107 -109c0 -92 -83 -190 -113 -221l-43 30c17 25 51 81 51 142c0 21 -33 43 -66 53zM41 389c0 45 32 81 80 81s83 -35 83 -80c0 -48 -35 -85 -83 -85s-80 36 -80 84z" />
    <glyph glyph-name="less" unicode="&#x3c;" horiz-adv-x="531" 
d="M52 231v58l391 232l48 -81l-306 -180l306 -180l-48 -81z" />
    <glyph glyph-name="equal" unicode="=" horiz-adv-x="578" 
d="M71 398h436v-92h-436v92zM71 214h436v-92h-436v92z" />
    <glyph glyph-name="greater" unicode="&#x3e;" horiz-adv-x="531" 
d="M479 289v-58l-391 -232l-48 81l306 180l-306 180l48 81z" />
    <glyph glyph-name="question" unicode="?" horiz-adv-x="399" 
d="M18 651c42 15 110 31 173 31c125 0 209 -50 209 -141c0 -60 -31 -106 -107 -172c-47 -41 -96 -66 -109 -106c-3 -9 -12 -40 -12 -40l-43 -5s-21 58 -21 99s32 70 79 113c60 55 72 87 72 124c0 49 -45 64 -81 64c-30 0 -51 -3 -69 -10c-13 -33 -19 -74 -21 -118
c-7 -6 -19 -10 -31 -10c-10 0 -21 3 -28 8c-6 32 -12 93 -12 134c0 11 0 21 1 29zM77 74c0 45 36 81 80 81s83 -35 83 -80c0 -48 -39 -85 -83 -85s-80 36 -80 84z" />
    <glyph glyph-name="at" unicode="@" horiz-adv-x="844" 
d="M521 30c-58 0 -68 28 -68 70c0 12 1 27 1 39c-21 -43 -62 -108 -117 -108c-82 0 -109 60 -109 133c0 137 91 270 256 270c45 0 96 -10 113 -16c-14 -68 -36 -218 -36 -278c0 -9 0 -26 5 -32c72 2 144 82 144 220c0 121 -68 215 -225 215c-192 0 -347 -160 -347 -376
c0 -217 136 -273 281 -273c86 0 180 28 227 48l16 -41c-29 -19 -147 -72 -271 -72c-159 0 -345 55 -345 320c0 240 201 453 454 453c169 0 298 -94 298 -262c0 -190 -170 -310 -277 -310zM453 187l27 178c-5 2 -17 4 -27 4c-74 0 -97 -117 -97 -184c0 -25 0 -51 8 -60l6 -2
c27 0 71 46 83 64z" />
    <glyph glyph-name="A" unicode="A" horiz-adv-x="626" 
d="M48 71l207 589h116l207 -589c31 -8 78 -16 78 -16c0 -15 -5 -36 -23 -57c0 0 -97 4 -141 4c-45 0 -138 -4 -138 -4c-2 6 -3 11 -3 16c0 28 28 41 28 41l48 16l-37 118h-205l-38 -118c33 -8 88 -16 88 -16s0 -32 -23 -57c0 0 -79 4 -125 4c-47 0 -118 -4 -118 -4
c-2 6 -3 11 -3 16c0 28 28 41 28 41zM290 514l-82 -254h160z" />
    <glyph glyph-name="B" unicode="B" horiz-adv-x="619" 
d="M120 71v519l-89 14c-2 6 -3 11 -3 16c0 28 28 40 28 40h269c129 0 223 -35 223 -142c0 -85 -70 -136 -113 -152c92 -18 163 -69 163 -159c0 -124 -98 -207 -277 -207c0 0 -88 2 -135 2s-155 -4 -155 -4c-2 6 -3 11 -3 16c0 28 28 41 28 41zM326 317c-15 0 -60 -1 -60 -1
v-248c21 -3 51 -3 75 -3c83 0 110 54 110 122c0 74 -37 130 -125 130zM312 597h-46v-219l82 2c38 15 62 59 62 114c0 59 -30 103 -98 103z" />
    <glyph glyph-name="C" unicode="C" horiz-adv-x="653" 
d="M394 589c-115 0 -198 -53 -198 -242c0 -164 74 -263 217 -263c74 0 138 17 174 33l22 -54c-34 -23 -137 -73 -246 -73c-217 0 -331 132 -331 316c0 248 191 364 381 364c74 0 147 -18 183 -33c8 -51 10 -105 10 -153c0 -21 0 -37 -1 -50c-9 -7 -19 -11 -31 -11
c-10 0 -20 3 -30 8c-5 34 -14 84 -32 127c-26 17 -66 31 -118 31z" />
    <glyph glyph-name="D" unicode="D" horiz-adv-x="745" 
d="M120 71v519l-89 14c-2 6 -3 11 -3 16c0 28 28 40 28 40h296c250 0 357 -149 357 -303c0 -249 -175 -356 -387 -356c-38 0 -91 1 -150 1c-48 0 -141 -4 -141 -4c-2 6 -3 11 -3 16c0 28 28 41 28 41zM328 590h-62v-506c16 -2 42 -4 75 -4c126 0 203 58 203 236
c0 162 -67 274 -216 274z" />
    <glyph glyph-name="E" unicode="E" horiz-adv-x="584" 
d="M527 -2c0 0 -184 4 -326 4c-68 0 -170 -4 -170 -4c-2 6 -3 11 -3 16c0 28 28 41 28 41l64 16v519l-89 14c-2 5 -3 11 -3 16c0 28 28 41 28 41s77 -2 145 -2c192 0 321 1 321 1c7 -49 9 -112 9 -158v-23c-7 -8 -18 -12 -32 -12c-10 0 -20 2 -29 6c-5 28 -13 73 -29 106
l-175 4v-211l193 8v-6c0 -47 -33 -78 -33 -78h-160v-217l183 4c14 30 21 71 28 113c7 4 16 8 29 8c15 0 25 -6 31 -10v-16c0 -49 -4 -124 -10 -180z" />
    <glyph glyph-name="F" unicode="F" horiz-adv-x="562" 
d="M120 71v519l-89 14c-2 6 -3 11 -3 16c0 28 28 41 28 41s77 -2 145 -2c182 0 319 1 319 1c7 -49 9 -112 9 -158v-23c-7 -8 -18 -12 -32 -12c-10 0 -20 2 -29 6c-5 28 -13 73 -29 106l-173 4v-227l195 12v-4c0 -48 -32 -81 -32 -81h-163v-211c51 -7 128 -16 128 -16
s0 -36 -23 -58c0 0 -104 4 -195 4c-47 0 -145 -4 -145 -4c-2 6 -3 11 -3 16c0 28 28 41 28 41z" />
    <glyph glyph-name="G" unicode="G" horiz-adv-x="740" 
d="M421 77c43 0 83 6 108 14v151l-94 14c-2 6 -3 11 -3 16c0 28 28 41 28 41s63 -2 127 -2c51 0 140 2 140 2s-1 -39 -23 -57c0 0 -30 -8 -47 -14v-172c-21 -16 -131 -80 -272 -80c-253 0 -347 156 -347 314c0 255 197 366 396 366c84 0 168 -16 208 -32
c8 -51 10 -100 10 -148c0 -19 0 -38 -1 -50c-9 -7 -19 -11 -31 -11c-10 0 -20 3 -30 8c-5 34 -15 85 -33 124c-29 13 -76 28 -139 28c-139 0 -217 -63 -217 -247c0 -157 72 -265 220 -265z" />
    <glyph glyph-name="H" unicode="H" horiz-adv-x="807" 
d="M186 2c-47 0 -155 -4 -155 -4c-2 6 -3 11 -3 16c0 28 28 41 28 41l64 16v519l-89 14c-2 6 -3 11 -3 16c0 28 28 41 28 41s78 -2 139 -2c58 0 159 2 159 2s0 -33 -23 -57c0 0 -38 -8 -65 -14v-211h275v211l-89 14c-2 6 -3 11 -3 16c0 28 28 41 28 41s78 -2 139 -2
c58 0 159 2 159 2s-1 -35 -23 -57c0 0 -38 -8 -65 -14v-519c35 -7 88 -16 88 -16s-1 -36 -23 -57c0 0 -97 4 -145 4c-47 0 -155 -4 -155 -4c-2 6 -3 11 -3 16c0 28 28 41 28 41l64 16v233h-275v-233c35 -7 88 -16 88 -16s0 -32 -23 -57c0 0 -97 4 -145 4z" />
    <glyph glyph-name="I" unicode="I" horiz-adv-x="386" 
d="M186 2c-47 0 -155 -4 -155 -4c-2 6 -3 11 -3 16c0 28 28 41 28 41l64 16v519l-89 14c-2 6 -3 11 -3 16c0 28 28 41 28 41s78 -2 139 -2c58 0 159 2 159 2s0 -33 -23 -57c0 0 -38 -8 -65 -14v-519c35 -7 88 -16 88 -16s0 -32 -23 -57c0 0 -97 4 -145 4z" />
    <glyph glyph-name="J" unicode="J" horiz-adv-x="383" 
d="M266 590v-453c0 -166 -52 -252 -228 -336l-30 54c99 68 112 135 112 302v433l-89 14c-2 6 -3 11 -3 16c0 28 28 41 28 41s78 -2 139 -2c58 0 159 2 159 2s-1 -34 -23 -57c0 0 -38 -8 -65 -14z" />
    <glyph glyph-name="K" unicode="K" horiz-adv-x="712" 
d="M120 71v519l-89 14c-2 6 -3 11 -3 16c0 28 28 41 28 41s78 -2 139 -2c58 0 159 2 159 2s0 -34 -23 -57c0 0 -38 -8 -65 -14v-519c35 -8 88 -16 88 -16s0 -35 -23 -57c0 0 -97 4 -145 4c-47 0 -155 -4 -155 -4c-2 6 -3 11 -3 16c0 28 28 41 28 41zM621 590l-185 -221
s40 -49 65 -85l105 -147c42 -59 72 -83 124 -94v-43c-32 -3 -58 -4 -91 -4c-92 0 -130 25 -186 106l-162 235l208 253l-72 14c-2 6 -3 11 -3 16c0 28 28 41 28 41s64 -2 125 -2c58 0 132 2 132 2s0 -35 -23 -57c0 0 -38 -8 -65 -14z" />
    <glyph glyph-name="L" unicode="L" horiz-adv-x="555" 
d="M532 -2c0 0 -189 4 -331 4c-65 0 -170 -4 -170 -4c-2 6 -3 11 -3 16c0 28 28 41 28 41l64 16v519l-89 14c-2 6 -3 11 -3 16c0 28 28 41 28 41s78 -2 139 -2c62 0 169 2 169 2s0 -37 -23 -57c0 0 -44 -8 -75 -14v-511l186 4c15 32 23 82 28 119c7 4 18 8 31 8
c15 0 25 -6 31 -10v-16c0 -50 -4 -128 -10 -186z" />
    <glyph glyph-name="M" unicode="M" horiz-adv-x="991" 
d="M844 590l57 -519c35 -8 88 -16 88 -16s0 -32 -23 -57c0 0 -102 4 -150 4c-45 0 -137 -4 -137 -4c-2 6 -3 11 -3 16c0 28 28 41 28 41l57 16l-49 461l-186 -532h-99l-193 526l-46 -455c35 -8 92 -16 92 -16s0 -35 -23 -57c0 0 -56 4 -104 4c-47 0 -144 -4 -144 -4
c-2 6 -3 11 -3 16c0 28 28 41 28 41l64 16l55 519l-89 14c-2 6 -3 11 -3 16c0 28 28 40 28 40h246l172 -489l168 489h251s0 -32 -23 -56c0 0 -32 -8 -59 -14z" />
    <glyph glyph-name="N" unicode="N" horiz-adv-x="776" 
d="M220 71c39 -7 98 -16 98 -16s0 -35 -23 -57c0 0 -71 4 -123 4c-47 0 -145 -4 -145 -4c-2 6 -3 11 -3 16c0 28 28 41 28 41l64 16l6 519l-89 14c-2 6 -3 11 -3 16c0 28 28 40 28 40h189l325 -433l-5 363l-89 14c-2 6 -3 11 -3 16c0 28 28 41 28 41s56 -2 117 -2
c60 0 137 2 137 2s-1 -35 -23 -57c0 0 -38 -8 -65 -14l-6 -590h-94l-355 473z" />
    <glyph glyph-name="O" unicode="O" horiz-adv-x="748" 
d="M364 -10c-207 0 -326 132 -326 316c0 248 182 364 347 364c207 0 326 -132 326 -316c0 -248 -182 -364 -347 -364zM202 347c0 -166 62 -279 179 -279c95 0 166 59 166 245c0 166 -62 279 -179 279c-95 0 -166 -59 -166 -245z" />
    <glyph glyph-name="P" unicode="P" horiz-adv-x="616" 
d="M120 71v519l-89 14c-2 6 -3 11 -3 16c0 28 28 40 28 40h287c159 0 240 -62 240 -180c0 -145 -151 -222 -302 -222h-15v-186c51 -7 128 -16 128 -16s0 -34 -23 -58c0 0 -104 4 -195 4c-47 0 -145 -4 -145 -4c-2 6 -3 11 -3 16c0 28 28 41 28 41zM266 597v-271h14
c98 0 145 39 145 142c0 75 -28 129 -109 129h-50z" />
    <glyph glyph-name="Q" unicode="Q" horiz-adv-x="748" 
d="M364 -10c-207 0 -326 132 -326 316c0 248 182 364 347 364c207 0 326 -132 326 -316c0 -199 -117 -312 -247 -350c35 -21 80 -39 150 -39c47 0 89 6 139 20c-3 -63 -45 -117 -122 -124c-124 0 -199 57 -249 130c-6 -1 -12 -1 -18 -1zM202 347c0 -166 62 -279 179 -279
c95 0 166 59 166 245c0 166 -62 279 -179 279c-95 0 -166 -59 -166 -245z" />
    <glyph glyph-name="R" unicode="R" horiz-adv-x="679" 
d="M186 2c-47 0 -155 -4 -155 -4c-2 6 -3 11 -3 16c0 28 28 41 28 41l64 16v519l-89 14c-2 6 -3 11 -3 16c0 28 28 40 28 40h297c155 0 235 -59 235 -158c0 -98 -82 -151 -131 -177c0 0 36 -40 58 -72l79 -117c43 -64 68 -83 122 -93v-43c-28 -3 -57 -5 -88 -5
c-92 0 -129 23 -183 107l-143 223c72 26 128 58 128 158c0 57 -27 113 -104 113h-60v-525c35 -7 88 -16 88 -16s0 -33 -23 -57c0 0 -97 4 -145 4z" />
    <glyph glyph-name="S" unicode="S" horiz-adv-x="541" 
d="M240 63c74 0 118 37 118 99c0 57 -46 78 -127 116l-49 23c-97 45 -139 91 -139 183c0 106 111 186 264 186c56 0 111 -10 164 -27c6 -42 9 -85 9 -128c0 -18 -1 -37 -2 -55c-8 -8 -19 -11 -31 -11c-10 0 -20 3 -29 8c-5 41 -15 84 -33 119c-19 12 -47 23 -95 23
c-61 0 -106 -27 -106 -83c0 -50 40 -69 122 -109l35 -17c99 -48 159 -92 159 -194c0 -137 -132 -206 -281 -206c-66 0 -137 15 -175 31c-6 40 -8 77 -8 115c0 24 2 51 4 70c8 8 21 13 34 13c10 0 21 -3 29 -9c3 -45 11 -94 27 -124c30 -16 68 -23 110 -23z" />
    <glyph glyph-name="T" unicode="T" horiz-adv-x="635" 
d="M514 584l-123 4v-517c37 -8 93 -16 93 -16s-1 -38 -23 -57c0 0 -100 4 -150 4c-47 0 -155 -4 -155 -4c-2 6 -3 11 -3 16c0 28 28 41 28 41l64 16v517l-129 -4c-21 -32 -34 -91 -37 -123c0 0 -13 -9 -30 -9c-9 0 -19 3 -30 11c-1 6 -1 12 -1 19c0 58 4 129 11 178h572
c7 -49 11 -120 11 -178c0 -7 0 -13 -1 -19c-11 -8 -21 -11 -30 -11c-17 0 -30 9 -30 9c-3 32 -16 91 -37 123z" />
    <glyph glyph-name="U" unicode="U" horiz-adv-x="749" 
d="M236 590v-317c0 -159 62 -205 156 -205c121 0 145 80 145 208v314l-81 14c-2 6 -3 11 -3 16c0 28 28 41 28 41s55 -2 121 -2c61 0 154 2 154 2s0 -36 -28 -57c0 0 -38 -8 -65 -14v-290c0 -185 -76 -310 -296 -310c-198 0 -277 85 -277 258v342l-89 14c-2 6 -3 11 -3 16
c0 28 28 41 28 41s78 -2 139 -2c58 0 157 2 157 2s-1 -36 -23 -57z" />
    <glyph glyph-name="V" unicode="V" horiz-adv-x="685" 
d="M291 0l-228 590l-78 14c-2 6 -3 11 -3 16c0 28 28 41 28 41s74 -2 135 -2c58 0 166 2 166 2s0 -32 -23 -57l-65 -14l147 -417l151 417l-88 14c-2 6 -3 11 -3 16c0 28 28 41 28 41s67 -2 128 -2c58 0 127 2 127 2s-1 -32 -23 -57c0 0 -38 -8 -65 -14l-225 -590h-109z" />
    <glyph glyph-name="W" unicode="W" horiz-adv-x="1019" 
d="M684 0l-172 460l-156 -460h-118l-175 590l-79 14c-2 6 -3 11 -3 16c0 28 28 41 28 41s74 -2 135 -2c58 0 155 2 155 2s0 -31 -23 -57c0 0 -37 -8 -64 -14l118 -422l167 492h83l174 -485l112 415l-80 14c-2 6 -3 11 -3 16c0 28 28 41 28 41s53 -2 114 -2c56 0 122 2 122 2
s-2 -36 -23 -57c0 0 -35 -8 -60 -14l-163 -590h-117z" />
    <glyph glyph-name="X" unicode="X" horiz-adv-x="678" 
d="M438 71l-109 165l-121 -165c31 -8 78 -16 78 -16s-1 -32 -23 -57c0 0 -78 4 -122 4c-47 0 -144 -4 -144 -4c-2 6 -3 11 -3 16c0 28 28 41 28 41l64 16l184 244l-188 275l-79 14c-2 6 -3 11 -3 16c0 28 28 41 28 41s68 -2 129 -2c58 0 169 2 169 2s-3 -36 -23 -57
c0 0 -33 -8 -55 -14l109 -165l120 165l-79 14c-2 6 -3 11 -3 16c0 28 28 41 28 41s59 -2 120 -2c58 0 144 2 144 2s-1 -35 -23 -57c0 0 -38 -8 -65 -14l-184 -244l188 -275c35 -8 88 -16 88 -16s0 -34 -23 -57c0 0 -104 4 -156 4c-45 0 -148 -4 -148 -4c-2 6 -3 11 -3 16
c0 28 28 41 28 41z" />
    <glyph glyph-name="Y" unicode="Y" horiz-adv-x="636" 
d="M250 71v197l-176 322l-79 14c-2 6 -3 11 -3 16c0 28 28 41 28 41s67 -2 128 -2c58 0 163 2 163 2s-1 -34 -23 -57c0 0 -37 -8 -59 -14l117 -239l117 239l-75 14c-2 6 -3 11 -3 16c0 28 28 41 28 41s40 -2 101 -2c58 0 143 2 143 2s-1 -34 -23 -57c0 0 -38 -8 -65 -14
l-173 -322v-197c35 -7 88 -16 88 -16s0 -33 -23 -57c0 0 -95 4 -143 4c-47 0 -157 -4 -157 -4c-2 6 -3 11 -3 16c0 28 28 41 28 41z" />
    <glyph glyph-name="Z" unicode="Z" horiz-adv-x="585" 
d="M73 660h480v-75l-362 -508l260 6c19 32 31 85 40 118c8 6 18 9 28 9c13 0 25 -5 31 -12c0 -50 -9 -135 -25 -198h-496v75l362 508l-245 -6c-20 -31 -36 -86 -45 -120c-6 -5 -18 -8 -27 -8c-11 0 -23 4 -30 12c1 45 11 140 29 199z" />
    <glyph glyph-name="bracketleft" unicode="[" horiz-adv-x="317" 
d="M84 -158v882h242s-2 -35 -25 -56c0 0 -50 -6 -92 -12v-746c42 -6 92 -12 92 -12c23 -21 25 -56 25 -56h-242z" />
    <glyph glyph-name="backslash" unicode="\" horiz-adv-x="338" 
d="M215 -77l-193 747h100l194 -747h-101z" />
    <glyph glyph-name="bracketright" unicode="]" horiz-adv-x="317" 
d="M108 -90v746c-42 6 -92 12 -92 12c-23 21 -25 56 -25 56h242v-882h-242s2 35 25 56c0 0 50 6 92 12z" />
    <glyph glyph-name="asciicircum" unicode="^" horiz-adv-x="497" 
d="M280 660l157 -270l-76 -42l-113 193l-112 -193l-76 43l157 269h63z" />
    <glyph glyph-name="underscore" unicode="_" horiz-adv-x="452" 
d="M-1 -62h454v-78h-454v78z" />
    <glyph glyph-name="grave" unicode="`" horiz-adv-x="325" 
d="M75 667c2 47 44 73 102 73c11 -68 25 -119 73 -170l-18 -27c-67 15 -151 72 -157 124z" />
    <glyph glyph-name="a" unicode="a" horiz-adv-x="504" 
d="M267 490c142 0 167 -83 167 -158c0 -69 -2 -139 -2 -216c0 -54 10 -68 52 -68h9l5 -34s-56 -24 -104 -24c-60 0 -85 20 -95 63c-14 -13 -79 -63 -141 -63c-75 0 -131 49 -131 130c0 74 55 138 191 162l77 13v13c0 64 -15 92 -91 92c-48 0 -102 -17 -128 -30l-18 52
c27 21 112 68 209 68zM233 84c23 0 46 6 61 13c-1 16 -1 31 -1 39l1 105l-49 -12c-65 -16 -75 -49 -75 -79c0 -34 17 -66 63 -66z" />
    <glyph glyph-name="b" unicode="b" horiz-adv-x="559" 
d="M242 -10c-71 0 -139 13 -174 26v634c-34 6 -75 13 -75 13c-1 4 -2 9 -2 13c0 26 26 39 26 39s99 7 192 15v-303c21 15 78 63 138 63c90 0 187 -63 187 -220c0 -207 -162 -280 -292 -280zM265 389c-20 0 -39 -4 -56 -12v-298c13 -7 33 -12 63 -12c90 0 109 76 109 164
c0 89 -30 158 -116 158z" />
    <glyph glyph-name="c" unicode="c" horiz-adv-x="466" 
d="M26 224c0 166 134 266 270 266c71 0 115 -17 140 -35c5 -11 7 -22 7 -33c0 -39 -28 -77 -55 -92c-15 23 -60 76 -115 76c-57 0 -92 -49 -92 -149c0 -122 49 -179 131 -179c37 0 80 10 108 22l18 -50c-18 -14 -100 -60 -197 -60c-109 0 -215 66 -215 234z" />
    <glyph glyph-name="d" unicode="d" horiz-adv-x="573" 
d="M492 730v-657c34 -6 80 -13 80 -13c1 -4 2 -9 2 -13c0 -26 -26 -39 -26 -39s-104 -5 -186 -13c-1 26 -6 61 -6 61c-18 -11 -79 -66 -143 -66c-90 0 -187 63 -187 219c0 206 162 279 276 279c11 0 36 -2 49 -5v167c-34 6 -75 13 -75 13c-1 4 -2 9 -2 13c0 26 26 39 26 39
s99 7 192 15zM179 248c0 -88 30 -157 116 -157c20 0 39 4 56 12v284c-10 15 -33 24 -63 24c-90 0 -109 -76 -109 -163z" />
    <glyph glyph-name="e" unicode="e" horiz-adv-x="490" 
d="M276 490c114 0 177 -71 177 -166c0 -39 -6 -77 -13 -99l-262 -2c5 -103 47 -145 136 -145c40 0 89 10 120 23l18 -50c-18 -13 -94 -61 -202 -61c-126 0 -224 71 -224 231c0 184 125 269 250 269zM255 419c-40 0 -72 -35 -77 -137l126 11c3 12 5 28 5 46
c0 34 -5 80 -54 80z" />
    <glyph glyph-name="f" unicode="f" horiz-adv-x="384" 
d="M162 2c-41 0 -133 -4 -133 -4c-2 5 -3 11 -3 15c0 26 28 39 28 39l39 12v343h-64l-8 33l72 41v18c0 114 101 229 240 229c30 0 63 -7 77 -13c5 -9 7 -18 7 -29c0 -35 -22 -77 -41 -95c-17 15 -79 57 -114 57c-23 0 -28 -33 -28 -92v-73l134 2c0 -37 -20 -64 -34 -78h-100
v-340c44 -8 105 -12 105 -12s-1 -29 -24 -57c0 0 -85 4 -153 4z" />
    <glyph glyph-name="g" unicode="g" horiz-adv-x="530" 
d="M204 -250c-99 0 -205 22 -205 96c0 57 67 99 106 122c-33 13 -56 35 -56 71c0 43 51 76 90 99c-66 25 -108 79 -108 155c0 124 113 197 221 197c38 0 71 -6 99 -18l191 9c-1 -41 -19 -71 -34 -83c-30 0 -62 12 -82 18c18 -24 32 -58 32 -98c0 -124 -112 -197 -220 -197
c-20 0 -37 1 -55 4c-6 -9 -10 -21 -10 -32c0 -21 9 -31 52 -32l124 -2c129 -2 169 -44 169 -110c0 -112 -141 -199 -314 -199zM295 -47l-98 1c-17 0 -34 1 -49 4c-9 -15 -12 -31 -12 -55c0 -54 31 -85 116 -85c92 0 129 44 129 86c0 30 -16 48 -86 49zM172 316
c0 -56 17 -126 77 -126c41 0 68 32 68 104c0 56 -17 127 -77 127c-41 0 -68 -33 -68 -105z" />
    <glyph glyph-name="h" unicode="h" horiz-adv-x="594" 
d="M445 2c-41 0 -120 -4 -120 -4c-2 5 -3 11 -3 15c0 26 28 39 28 39l26 12v221c0 81 -30 104 -90 104c-25 0 -50 -6 -66 -14v-311c27 -7 65 -12 65 -12s-1 -26 -24 -54c0 0 -76 4 -113 4c-41 0 -137 -4 -137 -4c-2 5 -3 11 -3 15c0 26 28 39 28 39l43 12v586
c-34 6 -75 13 -75 13c-1 4 -2 9 -2 13c0 26 26 39 26 39s99 7 192 15v-305c23 17 86 65 156 65c118 0 141 -89 141 -177v-249c29 -7 73 -12 73 -12s-1 -26 -24 -54c0 0 -82 4 -121 4z" />
    <glyph glyph-name="i" unicode="i" horiz-adv-x="311" 
d="M234 64c29 -7 73 -12 73 -12s-1 -26 -24 -54c0 0 -82 4 -121 4c-41 0 -137 -4 -137 -4c-2 5 -3 11 -3 15c0 26 28 39 28 39l43 12v343c-34 6 -80 13 -80 13c-1 3 -2 9 -2 13c0 26 26 39 26 39s104 7 197 15v-423zM69 648c0 45 38 82 84 82c50 0 83 -38 83 -82
c0 -47 -38 -85 -85 -85c-51 0 -82 40 -82 85z" />
    <glyph glyph-name="j" unicode="j" horiz-adv-x="297" 
d="M69 648c0 45 38 82 84 82c50 0 83 -38 83 -82c0 -47 -38 -85 -85 -85c-51 0 -82 40 -82 85zM-49 -150c56 13 90 35 114 65s28 77 28 175v317c-34 6 -80 13 -80 13c-1 3 -2 9 -2 13c0 26 26 39 26 39s104 7 197 15v-332c0 -65 -8 -145 -49 -239
c-29 -67 -86 -138 -124 -161c-63 1 -105 38 -110 95z" />
    <glyph glyph-name="k" unicode="k" horiz-adv-x="597" 
d="M79 64v586c-34 6 -75 13 -75 13c-1 3 -2 9 -2 13c0 26 26 39 26 39s99 7 192 15v-666c27 -7 65 -12 65 -12s-3 -26 -26 -54c0 0 -74 4 -111 4c-41 0 -137 -4 -137 -4c-2 5 -3 11 -3 15c0 26 28 39 28 39zM500 412l-117 -138c14 -16 40 -47 62 -78l94 -132
c29 -6 72 -12 72 -12s-4 -26 -26 -52h-171l-175 248l140 164c-21 5 -50 10 -50 10c-2 5 -3 11 -3 15c0 26 28 39 28 39s60 -1 107 -1s120 1 120 1s-3 -26 -26 -54c0 0 -33 -5 -55 -10z" />
    <glyph glyph-name="l" unicode="l" horiz-adv-x="297" 
d="M220 64c29 -7 73 -12 73 -12s-3 -26 -26 -54c0 0 -80 4 -119 4c-41 0 -137 -4 -137 -4c-2 5 -3 11 -3 15c0 26 28 39 28 39l43 12v586c-34 6 -75 13 -75 13c-1 3 -2 9 -2 13c0 26 26 39 26 39s99 7 192 15v-666z" />
    <glyph glyph-name="m" unicode="m" horiz-adv-x="887" 
d="M669 64v221c0 81 -28 104 -85 104c-24 0 -48 -6 -64 -14c3 -18 4 -38 4 -58v-253c26 -7 66 -12 66 -12s-1 -26 -24 -54c0 0 -79 4 -116 4c-41 0 -118 -4 -118 -4c-2 5 -3 11 -3 15c0 26 28 39 28 39l26 12v221c0 81 -30 104 -85 104c-23 0 -48 -6 -64 -14v-311
c26 -7 66 -12 66 -12s-1 -26 -24 -54c0 0 -79 4 -116 4c-41 0 -135 -4 -135 -4c-2 5 -3 11 -3 15c0 26 28 39 28 39l43 12v343c-34 6 -80 13 -80 13c-1 4 -2 9 -2 13c0 26 26 39 26 39s104 7 190 15c0 -25 2 -65 2 -65c18 12 86 68 159 68c68 0 103 -30 120 -72
c24 16 92 72 166 72c116 0 136 -85 136 -173v-253c29 -7 73 -12 73 -12s-1 -26 -24 -54c0 0 -82 4 -121 4c-41 0 -120 -4 -120 -4c-2 5 -3 11 -3 15c0 26 28 39 28 39z" />
    <glyph glyph-name="n" unicode="n" horiz-adv-x="608" 
d="M93 64v343c-34 6 -80 13 -80 13c-1 3 -2 9 -2 13c0 26 26 39 26 39s104 7 190 15c0 -25 2 -65 2 -65c18 12 86 68 161 68c118 0 141 -89 141 -177v-249c29 -7 73 -12 73 -12s-1 -26 -24 -54c0 0 -82 4 -121 4c-41 0 -120 -4 -120 -4c-2 5 -3 11 -3 15c0 26 28 39 28 39
l26 12v221c0 81 -30 104 -90 104c-25 0 -50 -6 -66 -14v-311c26 -7 66 -12 66 -12s-1 -26 -24 -54c0 0 -79 4 -116 4c-41 0 -135 -4 -135 -4c-2 5 -3 11 -3 15c0 26 28 39 28 39z" />
    <glyph glyph-name="o" unicode="o" horiz-adv-x="541" 
d="M263 -10c-124 0 -237 61 -237 231c0 184 131 269 253 269c124 0 237 -61 237 -231c0 -186 -131 -269 -253 -269zM181 251c0 -107 27 -186 95 -186c52 0 85 41 85 164c0 107 -27 186 -95 186c-52 0 -85 -37 -85 -164z" />
    <glyph glyph-name="p" unicode="p" horiz-adv-x="578" 
d="M87 -177v584c-34 6 -80 13 -80 13c-1 3 -2 9 -2 13c0 26 26 39 26 39s104 7 190 15c0 -23 2 -63 2 -63c18 11 79 66 143 66c90 0 187 -62 187 -219c0 -207 -162 -279 -276 -279c-25 0 -41 2 -49 3v-172c29 -7 73 -12 73 -12s-1 -26 -24 -54c0 0 -82 4 -121 4
c-41 0 -137 -4 -137 -4c-2 5 -3 11 -3 15c0 26 28 39 28 39zM400 232c0 89 -30 157 -116 157c-20 0 -39 -4 -56 -12v-296c13 -7 33 -12 63 -12c90 0 109 75 109 163z" />
    <glyph glyph-name="q" unicode="q" horiz-adv-x="555" 
d="M351 -176v229c-23 -16 -79 -63 -138 -63c-90 0 -187 63 -187 220c0 207 162 280 292 280c71 0 139 -13 174 -26v-640c29 -7 73 -12 73 -12s-1 -26 -24 -54c0 0 -82 4 -121 4c-42 0 -137 -4 -137 -4c-2 5 -3 11 -3 15c0 26 28 39 28 39zM351 401c-13 7 -33 12 -63 12
c-90 0 -109 -76 -109 -164c0 -89 30 -158 116 -158c18 0 37 3 56 12v298z" />
    <glyph glyph-name="r" unicode="r" horiz-adv-x="430" 
d="M162 2c-41 0 -137 -4 -137 -4c-2 5 -3 11 -3 15c0 26 28 39 28 39l43 12v343c-34 6 -80 13 -80 13c-1 3 -2 9 -2 13c0 26 26 39 26 39s104 7 189 15c0 -37 1 -110 1 -110c38 51 70 111 151 111c13 0 28 -3 36 -6c6 -11 8 -25 8 -41c0 -29 -9 -63 -20 -85
c-12 3 -34 8 -63 8c-34 0 -76 -9 -105 -38v-259c44 -8 98 -12 98 -12s-1 -29 -24 -57c0 0 -78 4 -146 4z" />
    <glyph glyph-name="s" unicode="s" horiz-adv-x="442" 
d="M36 18c-2 17 -3 44 -3 66c0 33 2 65 4 78c9 7 20 11 31 11c9 0 17 -2 26 -6c5 -30 14 -72 27 -99c24 -10 54 -15 75 -15c55 0 74 28 74 59c0 40 -29 55 -114 88c-92 36 -120 71 -120 140c0 79 77 150 207 150c59 0 119 -13 145 -23c4 -27 5 -58 5 -87c0 -17 0 -33 -1 -46
c-8 -7 -19 -11 -31 -11c-9 0 -18 2 -26 6c-5 24 -16 67 -32 93c-12 4 -33 7 -55 7c-52 0 -76 -24 -76 -55c0 -34 25 -44 108 -78c79 -32 130 -68 130 -148c0 -83 -71 -158 -215 -158c-68 0 -128 16 -159 28z" />
    <glyph glyph-name="t" unicode="t" horiz-adv-x="382" 
d="M80 121v286h-71l-8 33l76 41l57 108l87 12v-118l157 2c0 -37 -20 -64 -34 -78h-123v-254c0 -54 3 -86 62 -86c30 0 61 5 79 8l8 -52c-18 -8 -95 -33 -177 -33c-102 0 -113 47 -113 131z" />
    <glyph glyph-name="u" unicode="u" horiz-adv-x="595" 
d="M514 73c34 -6 80 -13 80 -13c1 -3 2 -8 2 -13c0 -26 -26 -39 -26 -39s-104 -5 -190 -13c0 25 -2 63 -2 63c-18 -12 -86 -68 -161 -68c-118 0 -141 89 -141 177v240c-34 6 -70 13 -70 13c-1 3 -2 9 -2 13c0 26 26 39 26 39s96 7 187 15v-292c0 -81 30 -104 90 -104
c25 0 50 6 66 14v302c-34 6 -75 13 -75 13c-2 4 -2 9 -2 13c0 26 26 39 26 39s101 7 192 15v-414z" />
    <glyph glyph-name="v" unicode="v" horiz-adv-x="530" 
d="M313 0h-101l-178 406l-57 19c-2 5 -3 11 -3 15c0 26 28 37 28 37s68 -1 111 -1c42 0 149 1 149 1s-3 -24 -26 -52l-52 -17l103 -255l103 253l-66 19c-2 5 -3 11 -3 15c0 26 28 37 28 37s44 -1 90 -1c43 0 119 1 119 1s-1 -24 -24 -52l-45 -19z" />
    <glyph glyph-name="w" unicode="w" horiz-adv-x="805" 
d="M182 0l-142 406l-63 19c-2 5 -3 11 -3 15c0 26 28 37 28 37s74 -1 117 -1s150 1 150 1s-3 -24 -26 -52l-57 -19l82 -247l129 317h67l119 -316l82 246l-65 19c-2 5 -3 11 -3 15c0 26 28 37 28 37s42 -1 85 -1s121 1 121 1s-3 -24 -26 -52l-53 -19l-139 -406h-95l-115 288
l-122 -288h-99z" />
    <glyph glyph-name="x" unicode="x" horiz-adv-x="543" 
d="M71 64l135 164l-144 178l-67 19c-2 5 -3 11 -3 15c0 26 28 37 28 37s79 -1 122 -1s134 1 134 1s-3 -24 -26 -52l-33 -15l73 -99l70 95l-42 19c-2 5 -3 11 -3 15c0 26 28 37 28 37s51 -1 94 -1s111 1 111 1s-1 -24 -24 -52l-53 -19l-129 -152l144 -190
c29 -7 69 -12 69 -12s-1 -26 -24 -54c0 0 -67 4 -107 4c-41 0 -136 -4 -136 -4c-2 6 -3 12 -3 17c0 25 22 37 22 37l26 11l-75 109l-76 -108c22 -7 54 -12 54 -12s-2 -26 -25 -54c0 0 -59 4 -93 4c-41 0 -125 -4 -125 -4c-2 5 -3 11 -3 15c0 26 28 39 28 39z" />
    <glyph glyph-name="y" unicode="y" horiz-adv-x="542" 
d="M50 406l-63 19c-2 5 -3 11 -3 15c0 26 28 37 28 37s74 -1 117 -1s153 1 153 1s-5 -24 -28 -52l-50 -19l98 -252l99 252l-68 19c-2 5 -3 11 -3 15c0 26 28 37 28 37s56 -1 96 -1c43 0 115 1 115 1s-3 -24 -26 -52l-46 -19l-166 -393c-46 -109 -105 -227 -153 -257
c-5 -1 -10 -1 -15 -1c-53 0 -98 35 -106 87c50 10 138 47 174 146l4 11z" />
    <glyph glyph-name="z" unicode="z" horiz-adv-x="477" 
d="M58 476h384v-61l-248 -351l157 8c14 26 31 73 39 95c7 4 15 6 24 6c12 0 24 -4 33 -13c-2 -36 -13 -116 -25 -160h-392v61l247 348l-145 -5c-13 -26 -29 -73 -36 -96c-8 -4 -16 -6 -27 -6s-24 5 -34 15c2 36 11 115 23 159z" />
    <glyph glyph-name="braceleft" unicode="{" horiz-adv-x="343" 
d="M30 306l46 7c52 8 59 41 59 88c0 70 -33 126 -33 201c0 98 50 131 157 131c19 0 52 -2 84 -6v-43c-82 0 -108 -12 -108 -85c0 -70 21 -137 21 -205c0 -47 -20 -87 -82 -110c62 -23 82 -63 82 -110c0 -68 -21 -135 -21 -205c0 -73 26 -85 108 -85v-43
c-32 -4 -65 -6 -84 -6c-107 0 -157 33 -157 131c0 75 33 131 33 201c0 47 -7 80 -59 88l-46 7v44z" />
    <glyph glyph-name="bar" unicode="|" horiz-adv-x="277" 
d="M90 -158v883h97v-883h-97z" />
    <glyph glyph-name="braceright" unicode="}" horiz-adv-x="343" 
d="M313 262l-46 -7c-52 -8 -59 -41 -59 -88c0 -70 33 -126 33 -201c0 -98 -50 -131 -157 -131c-19 0 -52 2 -84 6v43c82 0 108 12 108 85c0 70 -21 137 -21 205c0 47 20 87 82 110c-62 23 -82 63 -82 110c0 68 21 135 21 205c0 73 -26 85 -108 85v43c32 4 65 6 84 6
c107 0 157 -33 157 -131c0 -75 -33 -131 -33 -201c0 -47 7 -80 59 -88l46 -7v-44z" />
    <glyph glyph-name="asciitilde" unicode="~" horiz-adv-x="576" 
d="M198 271c-33 0 -62 -15 -90 -40l-37 33c22 41 77 106 148 106s103 -55 159 -55c33 0 62 15 90 40l37 -33c-22 -41 -77 -106 -148 -106c-70 0 -109 55 -159 55z" />
    <glyph glyph-name="uni00A0" unicode="&#xa0;" horiz-adv-x="210" 
 />
    <glyph glyph-name="exclamdown" unicode="&#xa1;" horiz-adv-x="273" 
d="M213 -136v-39c-18 -16 -49 -27 -81 -27s-60 9 -76 27v39c0 76 54 396 54 396h51s52 -320 52 -396zM218 406c0 -45 -32 -81 -80 -81s-83 35 -83 80c0 48 35 85 83 85s80 -36 80 -84z" />
    <glyph glyph-name="cent" unicode="&#xa2;" horiz-adv-x="509" 
d="M210 283c0 -110 45 -163 132 -163c31 0 77 11 108 24l18 -50c-14 -10 -64 -42 -133 -55v-94c-11 -7 -36 -19 -76 -19h-14v108c-102 10 -190 75 -190 216c0 125 84 209 190 238v99c11 7 36 19 76 19h14v-107c66 -1 116 -24 132 -39c4 -9 6 -23 6 -35
c0 -29 -20 -72 -60 -91c-13 23 -60 81 -108 81c-58 0 -95 -48 -95 -132z" />
    <glyph glyph-name="sterling" unicode="&#xa3;" horiz-adv-x="514" 
d="M471 -3c0 0 -179 4 -291 4c-53 0 -128 -4 -128 -4c-18 9 -22 26 -22 47c46 33 72 87 72 160c0 9 -1 19 -2 29h-65l-6 30l61 33c-3 14 -4 27 -4 39c0 104 102 194 229 194c64 0 103 -11 119 -16c5 -9 7 -18 7 -28c0 -31 -21 -65 -42 -79c-23 19 -67 48 -122 48
c-45 0 -59 -29 -59 -76c0 -24 4 -46 9 -68l152 3c0 -45 -33 -80 -33 -80h-108c0 -58 -27 -115 -66 -153l231 5c12 26 18 61 21 87c0 0 11 7 30 7c11 0 21 -3 27 -8c0 -50 -2 -116 -10 -174z" />
    <glyph glyph-name="currency" unicode="&#xa4;" horiz-adv-x="606" 
d="M58 104l62 62c-21 33 -32 72 -32 116s12 83 33 116l-63 63l68 68l63 -64c33 20 72 31 114 31c41 0 80 -11 113 -31l64 64l68 -68l-63 -63c21 -33 33 -72 33 -116c0 -43 -12 -83 -32 -115l62 -62l-68 -68l-62 62c-33 -21 -73 -33 -115 -33s-82 12 -115 33l-62 -62z
M192 282c0 -66 41 -122 111 -122s111 56 111 122s-41 121 -111 121s-111 -55 -111 -121z" />
    <glyph glyph-name="yen" unicode="&#xa5;" horiz-adv-x="638" 
d="M104 207h149v19l-27 40h-145c0 24 15 46 23 54h85l-91 136l-65 11c-2 4 -3 8 -3 12c0 23 25 40 25 40s53 -1 107 -1c48 0 137 1 137 1s-1 -34 -20 -52c0 0 -23 -7 -38 -11l97 -154l103 154l-65 11c-2 4 -2 8 -2 12c0 23 24 40 24 40s28 -1 82 -1c51 0 133 1 133 1
s-1 -34 -21 -52c0 0 -38 -7 -62 -11l-90 -136h105c0 -24 -15 -46 -23 -54h-118l-26 -40v-19h167c0 -24 -15 -46 -23 -54h-144v-87c31 -6 80 -13 80 -13s0 -36 -20 -55c0 0 -89 4 -132 4c-42 0 -134 -4 -134 -4c-2 5 -3 16 -3 20c0 22 25 35 25 35l59 13v87h-172
c0 24 14 46 23 54z" />
    <glyph glyph-name="brokenbar" unicode="&#xa6;" horiz-adv-x="277" 
d="M187 346h-97v394h97v-394zM187 -175h-97v394h97v-394z" />
    <glyph glyph-name="section" unicode="&#xa7;" horiz-adv-x="529" 
d="M237 -158c69 0 100 24 100 74s-29 64 -121 102l-41 17c-109 46 -142 88 -142 163c0 67 44 115 97 157c-60 33 -86 73 -86 135c0 100 101 180 257 180c60 0 122 -12 158 -23c6 -44 9 -94 9 -134c0 -16 0 -31 -1 -43c-8 -9 -19 -12 -32 -12c-10 0 -19 2 -29 7
c-4 35 -13 80 -32 114c-16 10 -44 20 -86 20c-67 0 -106 -30 -106 -75c0 -41 25 -54 121 -93l41 -17c109 -46 142 -88 142 -163c0 -68 -45 -116 -98 -158c52 -28 87 -66 87 -141c0 -103 -105 -181 -258 -181c-64 0 -123 13 -164 30c-4 39 -6 79 -6 114c0 22 0 42 2 59
c9 9 21 12 33 12c10 0 19 -3 28 -9c5 -39 12 -82 25 -110c28 -18 59 -25 102 -25zM162 251c0 -42 12 -65 118 -110l48 -21c22 30 29 53 29 78c0 42 -11 67 -118 110l-49 20c-21 -30 -28 -53 -28 -77z" />
    <glyph glyph-name="dieresis" unicode="&#xa8;" horiz-adv-x="487" 
d="M272 647c0 39 31 70 70 70s70 -31 70 -70s-31 -70 -70 -70s-70 31 -70 70zM75 647c0 39 31 70 70 70s70 -31 70 -70s-31 -70 -70 -70s-70 31 -70 70z" />
    <glyph glyph-name="copyright" unicode="&#xa9;" horiz-adv-x="806" 
d="M409 134c-129 0 -199 79 -199 186c0 145 115 214 219 214c47 0 79 -11 99 -20c4 -30 8 -76 8 -126c-8 -7 -19 -10 -27 -10c-16 0 -28 6 -28 6c-4 37 -11 62 -17 76c-9 4 -27 8 -45 8c-47 0 -82 -31 -82 -124c0 -91 42 -136 101 -136c30 0 60 8 89 22l22 -49
c-21 -15 -81 -47 -140 -47zM403 -10c-200 0 -345 142 -345 342c0 198 147 342 345 342c200 0 345 -142 345 -342c0 -198 -147 -342 -345 -342zM403 609c-164 0 -268 -113 -268 -277s104 -277 268 -277s268 113 268 277s-104 277 -268 277z" />
    <glyph glyph-name="ordfeminine" unicode="&#xaa;" horiz-adv-x="410" 
d="M207 670c100 0 117 -58 117 -112l-1 -137c0 -45 5 -52 35 -52h6l4 -26s-41 -17 -74 -17c-41 0 -58 14 -66 42c-10 -8 -53 -42 -95 -42c-53 0 -93 26 -93 91c0 52 40 95 134 112l52 9c0 45 -11 68 -62 68c-33 0 -70 -13 -89 -22l-12 39c19 15 78 47 144 47zM184 396
c15 0 34 3 41 6v25v71l-33 -7c-46 -10 -53 -32 -53 -54c0 -24 12 -41 45 -41z" />
    <glyph glyph-name="guillemotleft" unicode="&#xab;" horiz-adv-x="562" 
d="M44 212v78c96 63 216 161 216 161l28 -36s-49 -88 -123 -164c74 -76 123 -164 123 -164l-28 -36s-120 98 -216 161zM274 212v78c96 63 216 161 216 161l28 -36s-49 -88 -123 -164c74 -76 123 -164 123 -164l-28 -36s-120 98 -216 161z" />
    <glyph glyph-name="logicalnot" unicode="&#xac;" horiz-adv-x="578" 
d="M71 306h436v-273h-97v181h-339v92z" />
    <glyph glyph-name="registered" unicode="&#xae;" horiz-adv-x="469" 
d="M221 584v-133l19 -3s0 -12 -6 -21c0 0 -15 1 -32 1c-16 0 -45 -1 -45 -1c-1 4 -1 5 -1 6c0 5 1 10 6 15l15 3v132l-22 2c-1 2 -1 4 -1 8c0 6 3 11 8 16h75c42 0 73 -10 73 -46c0 -25 -15 -40 -36 -49l33 -47c9 -13 15 -18 26 -20v-17c-5 -1 -14 -2 -21 -2
c-21 0 -36 6 -48 24l-34 58v9c26 6 32 23 32 40c0 13 -8 25 -31 25h-10zM93 512c0 -84 55 -148 141 -148c89 0 144 64 144 148c0 85 -55 148 -144 148c-86 0 -141 -63 -141 -148zM44 512c0 107 77 188 190 188c114 0 191 -81 191 -188c0 -106 -77 -187 -191 -187
c-113 0 -190 81 -190 187z" />
    <glyph glyph-name="macron" unicode="&#xaf;" horiz-adv-x="445" 
d="M354 596h-275c-2 7 -4 16 -4 25c0 20 6 41 16 54h275c2 -7 4 -16 4 -25c0 -20 -6 -41 -16 -54z" />
    <glyph glyph-name="degree" unicode="&#xb0;" horiz-adv-x="283" 
d="M136 472c-78 0 -126 45 -126 113c0 87 71 131 137 131c77 0 126 -45 126 -113c0 -87 -71 -131 -137 -131zM99 598c0 -38 13 -68 44 -68c27 0 43 13 43 60c0 39 -13 69 -44 69c-27 0 -43 -14 -43 -61z" />
    <glyph glyph-name="plusminus" unicode="&#xb1;" horiz-adv-x="526" 
d="M307 137h-89v125h-142v84h142v133h89v-133h143v-84h-143v-125zM450 0h-374v90h374v-90z" />
    <glyph glyph-name="twosuperior" unicode="&#xb2;" horiz-adv-x="393" 
d="M324 467h-303v44s55 43 75 62c65 63 83 95 83 129c0 29 -14 45 -51 45c-35 0 -62 -16 -80 -27l-15 40c43 28 90 50 148 50c68 0 119 -30 119 -89c0 -86 -97 -142 -179 -190l150 8c5 13 11 37 14 53c7 5 14 8 22 8c9 0 18 -3 25 -9v-20c0 -25 -2 -67 -8 -104z" />
    <glyph glyph-name="threesuperior" unicode="&#xb3;" horiz-adv-x="359" 
d="M141 516c37 0 53 22 53 57c0 34 -24 50 -79 50h-43v39c69 6 103 23 103 59c0 24 -14 36 -40 36c-30 0 -57 -12 -79 -24l-18 34c30 17 76 43 142 43c76 0 116 -21 116 -71c0 -41 -48 -74 -86 -79c58 0 104 -25 104 -74c0 -70 -77 -126 -191 -126c-35 0 -81 7 -97 21
c-4 7 -6 16 -6 24c0 25 16 49 36 58c16 -19 55 -47 85 -47z" />
    <glyph glyph-name="acute" unicode="&#xb4;" horiz-adv-x="331" 
d="M256 664c-7 -58 -95 -107 -162 -122l-19 28c50 53 65 104 76 170c56 0 97 -21 105 -76z" />
    <glyph glyph-name="mu" unicode="&#xb5;" horiz-adv-x="587" 
d="M255 -10c-42 0 -65 20 -80 37v-22c0 -54 19 -110 20 -245h-131v716h141v-263c0 -68 3 -122 91 -122c33 0 54 9 65 14v371h141v-333c0 -50 1 -76 38 -76c17 0 35 4 42 6l6 -48c-17 -10 -61 -30 -109 -30c-45 0 -95 7 -113 62c-36 -48 -73 -67 -111 -67z" />
    <glyph glyph-name="paragraph" unicode="&#xb6;" horiz-adv-x="542" 
d="M242 660v-400h-11c-104 0 -206 93 -206 218c0 123 89 182 185 182h32zM422 590v-445c0 -173 -23 -245 -203 -345l-29 44c104 82 107 144 107 321v495h213s0 -31 -23 -56c0 0 -38 -8 -65 -14z" />
    <glyph glyph-name="periodcentered" unicode="&#xb7;" horiz-adv-x="247" 
d="M42 273c0 45 32 81 80 81s83 -35 83 -80c0 -48 -35 -85 -83 -85s-80 36 -80 84z" />
    <glyph glyph-name="cedilla" unicode="&#xb8;" horiz-adv-x="361" 
d="M286 -138c0 -86 -111 -113 -207 -113l-4 47c59 3 104 12 104 55c0 17 -9 32 -42 32c-13 0 -24 -3 -31 -5l-21 17l43 141l67 -6l-42 -109c11 5 32 12 56 12c44 0 77 -24 77 -71z" />
    <glyph glyph-name="onesuperior" unicode="&#xb9;" horiz-adv-x="344" 
d="M106 523v211h-76c-1 3 -1 9 -1 12c0 25 23 39 23 39s89 10 164 19v-281c32 -6 73 -13 73 -13s-3 -31 -17 -48c0 0 -56 3 -110 3c-52 0 -128 -3 -128 -3c-2 4 -2 11 -2 14c0 21 21 34 21 34z" />
    <glyph glyph-name="ordmasculine" unicode="&#xba;" horiz-adv-x="390" 
d="M190 326c-87 0 -165 42 -165 159c0 127 90 185 176 185c87 0 165 -42 165 -159c0 -128 -90 -185 -176 -185zM135 506c0 -66 18 -117 63 -117c35 0 56 26 56 103c0 65 -17 117 -62 117c-36 0 -57 -24 -57 -103z" />
    <glyph glyph-name="guillemotright" unicode="&#xbb;" horiz-adv-x="562" 
d="M518 290v-78c-96 -63 -216 -161 -216 -161l-28 36s49 88 123 164c-74 76 -123 164 -123 164l28 36s120 -98 216 -161zM288 290v-78c-96 -63 -216 -161 -216 -161l-28 36s49 88 123 164c-74 76 -123 164 -123 164l28 36s120 -98 216 -161z" />
    <glyph glyph-name="onequarter" unicode="&#xbc;" horiz-adv-x="821" 
d="M509 145l96 1v113zM605 0v87h-168v50l181 211h88v-200l70 1l-3 -62h-67v-87h-101zM593 648l-331 -693l-70 35l332 691zM111 383v211h-76c-1 3 -1 9 -1 12c0 25 23 39 23 39s89 10 164 19v-281c32 -6 73 -13 73 -13s-3 -31 -17 -48c0 0 -56 3 -110 3
c-52 0 -128 -3 -128 -3c-2 4 -2 11 -2 14c0 21 21 34 21 34z" />
    <glyph glyph-name="onehalf" unicode="&#xbd;" horiz-adv-x="849" 
d="M593 648l-331 -693l-70 35l332 691zM111 383v211h-76c-1 3 -1 9 -1 12c0 25 23 39 23 39s89 10 164 19v-281c32 -6 73 -13 73 -13s-3 -31 -17 -48c0 0 -56 3 -110 3c-52 0 -128 -3 -128 -3c-2 4 -2 11 -2 14c0 21 21 34 21 34zM788 0h-303v44s55 43 75 62
c65 63 83 95 83 129c0 29 -14 45 -51 45c-35 0 -62 -16 -80 -27l-15 40c43 28 90 50 148 50c68 0 119 -30 119 -89c0 -86 -97 -142 -179 -190l150 8c5 13 11 37 14 53c7 5 14 8 22 8c9 0 18 -3 25 -9v-20c0 -25 -2 -67 -8 -104z" />
    <glyph glyph-name="threequarters" unicode="&#xbe;" horiz-adv-x="839" 
d="M527 145l96 1v113zM623 0v87h-168v50l181 211h88v-200l70 1l-3 -62h-67v-87h-101zM612 648l-331 -693l-70 35l332 691zM155 374c37 0 53 22 53 57c0 34 -24 50 -79 50h-43v39c69 6 103 23 103 59c0 24 -14 36 -40 36c-30 0 -57 -12 -79 -24l-18 34c30 17 76 43 142 43
c76 0 116 -21 116 -71c0 -41 -48 -74 -86 -79c58 0 104 -25 104 -74c0 -70 -77 -126 -191 -126c-35 0 -81 7 -97 21c-4 7 -6 16 -6 24c0 25 16 49 36 58c16 -19 55 -47 85 -47z" />
    <glyph glyph-name="questiondown" unicode="&#xbf;" horiz-adv-x="399" 
d="M381 -171c-42 -15 -110 -31 -173 -31c-125 0 -209 50 -209 141c0 60 31 106 107 172c47 41 96 66 109 106c3 9 12 40 12 40l43 5s21 -58 21 -99s-32 -70 -79 -113c-60 -55 -72 -87 -72 -124c0 -49 45 -64 81 -64c30 0 51 3 69 10c13 33 19 74 21 118c7 6 19 10 31 10
c10 0 21 -3 28 -8c6 -32 12 -93 12 -134c0 -11 0 -21 -1 -29zM322 406c0 -45 -36 -81 -80 -81s-83 35 -83 80c0 48 39 85 83 85s80 -36 80 -84z" />
    <glyph glyph-name="Agrave" unicode="&#xc0;" horiz-adv-x="626" 
d="M48 71l207 589h116l207 -589c31 -8 78 -16 78 -16c0 -15 -5 -36 -23 -57c0 0 -97 4 -141 4c-45 0 -138 -4 -138 -4c-2 6 -3 11 -3 16c0 28 28 41 28 41l48 16l-37 118h-205l-38 -118c33 -8 88 -16 88 -16s0 -32 -23 -57c0 0 -79 4 -125 4c-47 0 -118 -4 -118 -4
c-2 6 -3 11 -3 16c0 28 28 41 28 41zM290 514l-82 -254h160zM190 811c4 44 39 68 88 68c6 0 12 0 18 -1c21 -60 53 -93 106 -128l-15 -38c-109 11 -184 52 -197 99z" />
    <glyph glyph-name="Aacute" unicode="&#xc1;" horiz-adv-x="626" 
d="M48 71l207 589h116l207 -589c31 -8 78 -16 78 -16c0 -15 -5 -36 -23 -57c0 0 -97 4 -141 4c-45 0 -138 -4 -138 -4c-2 6 -3 11 -3 16c0 28 28 41 28 41l48 16l-37 118h-205l-38 -118c33 -8 88 -16 88 -16s0 -32 -23 -57c0 0 -79 4 -125 4c-47 0 -118 -4 -118 -4
c-2 6 -3 11 -3 16c0 28 28 41 28 41zM290 514l-82 -254h160zM408 791c-18 -47 -109 -76 -175 -76h-12l-11 32c63 37 91 82 120 143c48 -13 80 -42 80 -82c0 -5 -1 -11 -2 -17z" />
    <glyph glyph-name="Acircumflex" unicode="&#xc2;" horiz-adv-x="626" 
d="M48 71l207 589h116l207 -589c31 -8 78 -16 78 -16c0 -15 -5 -36 -23 -57c0 0 -97 4 -141 4c-45 0 -138 -4 -138 -4c-2 6 -3 11 -3 16c0 28 28 41 28 41l48 16l-37 118h-205l-38 -118c33 -8 88 -16 88 -16s0 -32 -23 -57c0 0 -79 4 -125 4c-47 0 -118 -4 -118 -4
c-2 6 -3 11 -3 16c0 28 28 41 28 41zM290 514l-82 -254h160zM189 707l-36 32l129 124h93c18 -49 58 -88 108 -111l-43 -38c-50 6 -116 40 -141 71z" />
    <glyph glyph-name="Atilde" unicode="&#xc3;" horiz-adv-x="626" 
d="M48 71l207 589h116l207 -589c31 -8 78 -16 78 -16c0 -15 -5 -36 -23 -57c0 0 -97 4 -141 4c-45 0 -138 -4 -138 -4c-2 6 -3 11 -3 16c0 28 28 41 28 41l48 16l-37 118h-205l-38 -118c33 -8 88 -16 88 -16s0 -32 -23 -57c0 0 -79 4 -125 4c-47 0 -118 -4 -118 -4
c-2 6 -3 11 -3 16c0 28 28 41 28 41zM290 514l-82 -254h160zM379 812c28 0 40 15 58 34l32 -24c-14 -43 -50 -101 -109 -101c-49 0 -71 49 -111 49c-30 0 -42 -15 -60 -34l-32 24c14 43 51 101 109 101c53 0 68 -49 113 -49z" />
    <glyph glyph-name="Adieresis" unicode="&#xc4;" horiz-adv-x="626" 
d="M48 71l207 589h116l207 -589c31 -8 78 -16 78 -16c0 -15 -5 -36 -23 -57c0 0 -97 4 -141 4c-45 0 -138 -4 -138 -4c-2 6 -3 11 -3 16c0 28 28 41 28 41l48 16l-37 118h-205l-38 -118c33 -8 88 -16 88 -16s0 -32 -23 -57c0 0 -79 4 -125 4c-47 0 -118 -4 -118 -4
c-2 6 -3 11 -3 16c0 28 28 41 28 41zM290 514l-82 -254h160zM336 788c0 39 31 70 70 70s70 -31 70 -70s-31 -70 -70 -70s-70 31 -70 70zM139 788c0 39 31 70 70 70s70 -31 70 -70s-31 -70 -70 -70s-70 31 -70 70z" />
    <glyph glyph-name="Aring" unicode="&#xc5;" horiz-adv-x="626" 
d="M48 71l207 589h116l207 -589c31 -8 78 -16 78 -16c0 -15 -5 -36 -23 -57c0 0 -97 4 -141 4c-45 0 -138 -4 -138 -4c-2 6 -3 11 -3 16c0 28 28 41 28 41l48 16l-37 118h-205l-38 -118c33 -8 88 -16 88 -16s0 -32 -23 -57c0 0 -79 4 -125 4c-47 0 -118 -4 -118 -4
c-2 6 -3 11 -3 16c0 28 28 41 28 41zM290 514l-82 -254h160zM423 805c0 -54 -38 -104 -111 -104s-111 50 -111 104s38 104 111 104s111 -50 111 -104zM312 757c30 0 42 21 42 48s-12 48 -42 48s-42 -21 -42 -48s13 -48 42 -48z" />
    <glyph glyph-name="AE" unicode="&#xc6;" horiz-adv-x="806" 
d="M47 71l207 589h485c8 -60 8 -126 8 -181c-11 -7 -22 -9 -31 -9c-17 0 -32 7 -32 7c-5 35 -12 76 -25 103l-259 4l63 -208l213 12c0 -50 -33 -84 -33 -84h-158l68 -225l122 4c11 23 19 64 25 108c0 0 12 7 29 7c9 0 20 -2 31 -9c0 -49 -1 -127 -10 -191c0 0 -113 4 -255 4
c-68 0 -172 -4 -172 -4c-2 6 -3 11 -3 16c0 28 28 41 28 41l67 16l-34 118h-199l-38 -118c35 -8 93 -16 93 -16s0 -32 -23 -57c0 0 -78 4 -126 4c-47 0 -120 -4 -120 -4c-2 6 -3 11 -3 16c0 28 28 41 28 41zM289 518l-84 -258h156z" />
    <glyph glyph-name="Ccedilla" unicode="&#xc7;" horiz-adv-x="653" 
d="M476 -138c0 -86 -111 -113 -207 -113l-4 47c59 3 104 12 104 55c0 17 -9 32 -42 32c-13 0 -24 -3 -31 -5l-21 17l30 99c-179 21 -273 145 -273 312c0 248 191 364 381 364c74 0 147 -18 183 -33c8 -51 10 -105 10 -153c0 -21 0 -37 -1 -50c-9 -7 -19 -11 -31 -11
c-10 0 -20 3 -30 8c-5 34 -14 84 -32 127c-26 17 -66 31 -118 31c-115 0 -198 -53 -198 -242c0 -164 74 -263 217 -263c74 0 138 17 174 33l22 -54c-34 -23 -133 -71 -240 -73l-26 -69c11 5 32 12 56 12c44 0 77 -24 77 -71z" />
    <glyph glyph-name="Egrave" unicode="&#xc8;" horiz-adv-x="584" 
d="M527 -2c0 0 -184 4 -326 4c-68 0 -170 -4 -170 -4c-2 6 -3 11 -3 16c0 28 28 41 28 41l64 16v519l-89 14c-2 5 -3 11 -3 16c0 28 28 41 28 41s77 -2 145 -2c192 0 321 1 321 1c7 -49 9 -112 9 -158v-23c-7 -8 -18 -12 -32 -12c-10 0 -20 2 -29 6c-5 28 -13 73 -29 106
l-175 4v-211l193 8v-6c0 -47 -33 -78 -33 -78h-160v-217l183 4c14 30 21 71 28 113c7 4 16 8 29 8c15 0 25 -6 31 -10v-16c0 -49 -4 -124 -10 -180zM189 811c4 44 39 68 88 68c6 0 12 0 18 -1c21 -60 53 -93 106 -128l-15 -38c-109 11 -184 52 -197 99z" />
    <glyph glyph-name="Eacute" unicode="&#xc9;" horiz-adv-x="584" 
d="M527 -2c0 0 -184 4 -326 4c-68 0 -170 -4 -170 -4c-2 6 -3 11 -3 16c0 28 28 41 28 41l64 16v519l-89 14c-2 5 -3 11 -3 16c0 28 28 41 28 41s77 -2 145 -2c192 0 321 1 321 1c7 -49 9 -112 9 -158v-23c-7 -8 -18 -12 -32 -12c-10 0 -20 2 -29 6c-5 28 -13 73 -29 106
l-175 4v-211l193 8v-6c0 -47 -33 -78 -33 -78h-160v-217l183 4c14 30 21 71 28 113c7 4 16 8 29 8c15 0 25 -6 31 -10v-16c0 -49 -4 -124 -10 -180zM406 791c-18 -47 -109 -76 -175 -76h-12l-11 32c63 37 91 82 120 143c48 -13 80 -42 80 -82c0 -5 -1 -11 -2 -17z" />
    <glyph glyph-name="Ecircumflex" unicode="&#xca;" horiz-adv-x="584" 
d="M527 -2c0 0 -184 4 -326 4c-68 0 -170 -4 -170 -4c-2 6 -3 11 -3 16c0 28 28 41 28 41l64 16v519l-89 14c-2 5 -3 11 -3 16c0 28 28 41 28 41s77 -2 145 -2c192 0 321 1 321 1c7 -49 9 -112 9 -158v-23c-7 -8 -18 -12 -32 -12c-10 0 -20 2 -29 6c-5 28 -13 73 -29 106
l-175 4v-211l193 8v-6c0 -47 -33 -78 -33 -78h-160v-217l183 4c14 30 21 71 28 113c7 4 16 8 29 8c15 0 25 -6 31 -10v-16c0 -49 -4 -124 -10 -180zM177 707l-36 32l129 124h93c18 -49 58 -88 108 -111l-43 -38c-50 6 -116 40 -141 71z" />
    <glyph glyph-name="Edieresis" unicode="&#xcb;" horiz-adv-x="584" 
d="M527 -2c0 0 -184 4 -326 4c-68 0 -170 -4 -170 -4c-2 6 -3 11 -3 16c0 28 28 41 28 41l64 16v519l-89 14c-2 5 -3 11 -3 16c0 28 28 41 28 41s77 -2 145 -2c192 0 321 1 321 1c7 -49 9 -112 9 -158v-23c-7 -8 -18 -12 -32 -12c-10 0 -20 2 -29 6c-5 28 -13 73 -29 106
l-175 4v-211l193 8v-6c0 -47 -33 -78 -33 -78h-160v-217l183 4c14 30 21 71 28 113c7 4 16 8 29 8c15 0 25 -6 31 -10v-16c0 -49 -4 -124 -10 -180zM332 788c0 39 31 70 70 70s70 -31 70 -70s-31 -70 -70 -70s-70 31 -70 70zM135 788c0 39 31 70 70 70s70 -31 70 -70
s-31 -70 -70 -70s-70 31 -70 70z" />
    <glyph glyph-name="Igrave" unicode="&#xcc;" horiz-adv-x="386" 
d="M186 2c-47 0 -155 -4 -155 -4c-2 6 -3 11 -3 16c0 28 28 41 28 41l64 16v519l-89 14c-2 6 -3 11 -3 16c0 28 28 41 28 41s78 -2 139 -2c58 0 159 2 159 2s0 -33 -23 -57c0 0 -38 -8 -65 -14v-519c35 -7 88 -16 88 -16s0 -32 -23 -57c0 0 -97 4 -145 4zM83 811
c4 44 39 68 88 68c6 0 12 0 18 -1c21 -60 53 -93 106 -128l-15 -38c-109 11 -184 52 -197 99z" />
    <glyph glyph-name="Iacute" unicode="&#xcd;" horiz-adv-x="386" 
d="M186 2c-47 0 -155 -4 -155 -4c-2 6 -3 11 -3 16c0 28 28 41 28 41l64 16v519l-89 14c-2 6 -3 11 -3 16c0 28 28 41 28 41s78 -2 139 -2c58 0 159 2 159 2s0 -33 -23 -57c0 0 -38 -8 -65 -14v-519c35 -7 88 -16 88 -16s0 -32 -23 -57c0 0 -97 4 -145 4zM283 791
c-18 -47 -109 -76 -175 -76h-12l-11 32c63 37 91 82 120 143c48 -13 80 -42 80 -82c0 -5 -1 -11 -2 -17z" />
    <glyph glyph-name="Icircumflex" unicode="&#xce;" horiz-adv-x="386" 
d="M186 2c-47 0 -155 -4 -155 -4c-2 6 -3 11 -3 16c0 28 28 41 28 41l64 16v519l-89 14c-2 6 -3 11 -3 16c0 28 28 41 28 41s78 -2 139 -2c58 0 159 2 159 2s0 -33 -23 -57c0 0 -38 -8 -65 -14v-519c35 -7 88 -16 88 -16s0 -32 -23 -57c0 0 -97 4 -145 4zM68 707l-36 32
l129 124h93c18 -49 58 -88 108 -111l-43 -38c-50 6 -116 40 -141 71z" />
    <glyph glyph-name="Idieresis" unicode="&#xcf;" horiz-adv-x="386" 
d="M186 2c-47 0 -155 -4 -155 -4c-2 6 -3 11 -3 16c0 28 28 41 28 41l64 16v519l-89 14c-2 6 -3 11 -3 16c0 28 28 41 28 41s78 -2 139 -2c58 0 159 2 159 2s0 -33 -23 -57c0 0 -38 -8 -65 -14v-519c35 -7 88 -16 88 -16s0 -32 -23 -57c0 0 -97 4 -145 4zM221 788
c0 39 31 70 70 70s70 -31 70 -70s-31 -70 -70 -70s-70 31 -70 70zM24 788c0 39 31 70 70 70s70 -31 70 -70s-31 -70 -70 -70s-70 31 -70 70z" />
    <glyph glyph-name="Eth" unicode="&#xd0;" horiz-adv-x="744" 
d="M119 71v239h-90c-1 4 -2 13 -2 18c0 22 8 38 11 44h81v218l-89 14c-2 6 -3 11 -3 16c0 28 28 40 28 40h296c250 0 357 -149 357 -303c0 -249 -175 -356 -387 -356c-38 0 -91 1 -150 1c-48 0 -141 -4 -141 -4c-2 6 -3 11 -3 16c0 28 28 41 28 41zM327 590h-62v-218h131
c1 -5 2 -13 2 -19c0 -22 -7 -37 -11 -43h-122v-226c16 -2 42 -4 75 -4c126 0 203 58 203 236c0 162 -67 274 -216 274z" />
    <glyph glyph-name="Ntilde" unicode="&#xd1;" horiz-adv-x="776" 
d="M220 71c39 -7 98 -16 98 -16s0 -35 -23 -57c0 0 -71 4 -123 4c-47 0 -145 -4 -145 -4c-2 6 -3 11 -3 16c0 28 28 41 28 41l64 16l6 519l-89 14c-2 6 -3 11 -3 16c0 28 28 40 28 40h189l325 -433l-5 363l-89 14c-2 6 -3 11 -3 16c0 28 28 41 28 41s56 -2 117 -2
c60 0 137 2 137 2s-1 -35 -23 -57c0 0 -38 -8 -65 -14l-6 -590h-94l-355 473zM461 812c28 0 40 15 58 34l32 -24c-14 -43 -50 -101 -109 -101c-49 0 -71 49 -111 49c-30 0 -42 -15 -60 -34l-32 24c14 43 51 101 109 101c53 0 68 -49 113 -49z" />
    <glyph glyph-name="Ograve" unicode="&#xd2;" horiz-adv-x="748" 
d="M364 -10c-207 0 -326 132 -326 316c0 248 182 364 347 364c207 0 326 -132 326 -316c0 -248 -182 -364 -347 -364zM202 347c0 -166 62 -279 179 -279c95 0 166 59 166 245c0 166 -62 279 -179 279c-95 0 -166 -59 -166 -245zM265 811c4 44 39 68 88 68c6 0 12 0 18 -1
c21 -60 53 -93 106 -128l-15 -38c-109 11 -184 52 -197 99z" />
    <glyph glyph-name="Oacute" unicode="&#xd3;" horiz-adv-x="748" 
d="M364 -10c-207 0 -326 132 -326 316c0 248 182 364 347 364c207 0 326 -132 326 -316c0 -248 -182 -364 -347 -364zM202 347c0 -166 62 -279 179 -279c95 0 166 59 166 245c0 166 -62 279 -179 279c-95 0 -166 -59 -166 -245zM474 791c-18 -47 -109 -76 -175 -76h-12
l-11 32c63 37 91 82 120 143c48 -13 80 -42 80 -82c0 -5 -1 -11 -2 -17z" />
    <glyph glyph-name="Ocircumflex" unicode="&#xd4;" horiz-adv-x="748" 
d="M364 -10c-207 0 -326 132 -326 316c0 248 182 364 347 364c207 0 326 -132 326 -316c0 -248 -182 -364 -347 -364zM202 347c0 -166 62 -279 179 -279c95 0 166 59 166 245c0 166 -62 279 -179 279c-95 0 -166 -59 -166 -245zM252 707l-36 32l129 124h93
c18 -49 58 -88 108 -111l-43 -38c-50 6 -116 40 -141 71z" />
    <glyph glyph-name="Otilde" unicode="&#xd5;" horiz-adv-x="748" 
d="M364 -10c-207 0 -326 132 -326 316c0 248 182 364 347 364c207 0 326 -132 326 -316c0 -248 -182 -364 -347 -364zM202 347c0 -166 62 -279 179 -279c95 0 166 59 166 245c0 166 -62 279 -179 279c-95 0 -166 -59 -166 -245zM447 812c28 0 40 15 58 34l32 -24
c-14 -43 -50 -101 -109 -101c-49 0 -71 49 -111 49c-30 0 -42 -15 -60 -34l-32 24c14 43 51 101 109 101c53 0 68 -49 113 -49z" />
    <glyph glyph-name="Odieresis" unicode="&#xd6;" horiz-adv-x="748" 
d="M364 -10c-207 0 -326 132 -326 316c0 248 182 364 347 364c207 0 326 -132 326 -316c0 -248 -182 -364 -347 -364zM202 347c0 -166 62 -279 179 -279c95 0 166 59 166 245c0 166 -62 279 -179 279c-95 0 -166 -59 -166 -245zM405 788c0 39 31 70 70 70s70 -31 70 -70
s-31 -70 -70 -70s-70 31 -70 70zM208 788c0 39 31 70 70 70s70 -31 70 -70s-31 -70 -70 -70s-70 31 -70 70z" />
    <glyph glyph-name="multiply" unicode="&#xd7;" horiz-adv-x="570" 
d="M499 399l-148 -147l148 -146l-66 -66l-148 147l-148 -147l-66 66l148 146l-148 147l65 66l149 -148l149 148z" />
    <glyph glyph-name="Oslash" unicode="&#xd8;" horiz-adv-x="748" 
d="M364 -10c-73 0 -134 16 -184 45l-62 -76l-47 38l61 74c-61 56 -94 138 -94 235c0 248 182 364 347 364c79 0 146 -20 198 -54l56 68l47 -38l-57 -69c53 -56 82 -133 82 -223c0 -248 -182 -364 -347 -364zM202 347c0 -62 8 -117 25 -161l273 330c-30 48 -74 76 -132 76
c-95 0 -166 -59 -166 -245zM547 313c0 53 -7 101 -19 142l-270 -326c30 -39 71 -61 123 -61c95 0 166 59 166 245z" />
    <glyph glyph-name="Ugrave" unicode="&#xd9;" horiz-adv-x="749" 
d="M236 590v-317c0 -159 62 -205 156 -205c121 0 145 80 145 208v314l-81 14c-2 6 -3 11 -3 16c0 28 28 41 28 41s55 -2 121 -2c61 0 154 2 154 2s0 -36 -28 -57c0 0 -38 -8 -65 -14v-290c0 -185 -76 -310 -296 -310c-198 0 -277 85 -277 258v342l-89 14c-2 6 -3 11 -3 16
c0 28 28 41 28 41s78 -2 139 -2c58 0 157 2 157 2s-1 -36 -23 -57zM273 811c4 44 39 68 88 68c6 0 12 0 18 -1c21 -60 53 -93 106 -128l-15 -38c-109 11 -184 52 -197 99z" />
    <glyph glyph-name="Uacute" unicode="&#xda;" horiz-adv-x="749" 
d="M236 590v-317c0 -159 62 -205 156 -205c121 0 145 80 145 208v314l-81 14c-2 6 -3 11 -3 16c0 28 28 41 28 41s55 -2 121 -2c61 0 154 2 154 2s0 -36 -28 -57c0 0 -38 -8 -65 -14v-290c0 -185 -76 -310 -296 -310c-198 0 -277 85 -277 258v342l-89 14c-2 6 -3 11 -3 16
c0 28 28 41 28 41s78 -2 139 -2c58 0 157 2 157 2s-1 -36 -23 -57zM481 791c-18 -47 -109 -76 -175 -76h-12l-11 32c63 37 91 82 120 143c48 -13 80 -42 80 -82c0 -5 -1 -11 -2 -17z" />
    <glyph glyph-name="Ucircumflex" unicode="&#xdb;" horiz-adv-x="749" 
d="M236 590v-317c0 -159 62 -205 156 -205c121 0 145 80 145 208v314l-81 14c-2 6 -3 11 -3 16c0 28 28 41 28 41s55 -2 121 -2c61 0 154 2 154 2s0 -36 -28 -57c0 0 -38 -8 -65 -14v-290c0 -185 -76 -310 -296 -310c-198 0 -277 85 -277 258v342l-89 14c-2 6 -3 11 -3 16
c0 28 28 41 28 41s78 -2 139 -2c58 0 157 2 157 2s-1 -36 -23 -57zM262 707l-36 32l129 124h93c18 -49 58 -88 108 -111l-43 -38c-50 6 -116 40 -141 71z" />
    <glyph glyph-name="Udieresis" unicode="&#xdc;" horiz-adv-x="749" 
d="M236 590v-317c0 -159 62 -205 156 -205c121 0 145 80 145 208v314l-81 14c-2 6 -3 11 -3 16c0 28 28 41 28 41s55 -2 121 -2c61 0 154 2 154 2s0 -36 -28 -57c0 0 -38 -8 -65 -14v-290c0 -185 -76 -310 -296 -310c-198 0 -277 85 -277 258v342l-89 14c-2 6 -3 11 -3 16
c0 28 28 41 28 41s78 -2 139 -2c58 0 157 2 157 2s-1 -36 -23 -57zM423 788c0 39 31 70 70 70s70 -31 70 -70s-31 -70 -70 -70s-70 31 -70 70zM226 788c0 39 31 70 70 70s70 -31 70 -70s-31 -70 -70 -70s-70 31 -70 70z" />
    <glyph glyph-name="Yacute" unicode="&#xdd;" horiz-adv-x="636" 
d="M250 71v197l-176 322l-79 14c-2 6 -3 11 -3 16c0 28 28 41 28 41s67 -2 128 -2c58 0 163 2 163 2s-1 -34 -23 -57c0 0 -37 -8 -59 -14l117 -239l117 239l-75 14c-2 6 -3 11 -3 16c0 28 28 41 28 41s40 -2 101 -2c58 0 143 2 143 2s-1 -34 -23 -57c0 0 -38 -8 -65 -14
l-173 -322v-197c35 -7 88 -16 88 -16s0 -33 -23 -57c0 0 -95 4 -143 4c-47 0 -157 -4 -157 -4c-2 6 -3 11 -3 16c0 28 28 41 28 41zM446 791c-18 -47 -109 -76 -175 -76h-12l-11 32c63 37 91 82 120 143c48 -13 80 -42 80 -82c0 -5 -1 -11 -2 -17z" />
    <glyph glyph-name="Thorn" unicode="&#xde;" horiz-adv-x="615" 
d="M185 2c-47 0 -155 -4 -155 -4c-2 6 -3 11 -3 16c0 28 28 41 28 41l64 16v519l-89 14c-2 6 -3 11 -3 16c0 28 28 41 28 41s78 -2 139 -2c58 0 159 2 159 2s0 -33 -23 -57c0 0 -38 -8 -65 -14v-52h77c159 0 240 -62 240 -180c0 -145 -151 -222 -302 -222h-15v-65
c35 -7 88 -16 88 -16s0 -32 -23 -57c0 0 -97 4 -145 4zM265 474v-270h14c98 0 145 39 145 142c0 74 -28 128 -109 128h-50z" />
    <glyph glyph-name="germandbls" unicode="&#xdf;" horiz-adv-x="637" 
d="M93 64v343h-64l-8 33l72 41v46c0 104 93 208 254 208c93 0 205 -35 205 -127c0 -56 -32 -87 -59 -111c-31 -27 -45 -40 -45 -59c0 -25 33 -54 59 -77c53 -46 111 -95 111 -188c0 -124 -90 -183 -194 -183c-35 0 -91 5 -135 17c-3 29 -4 62 -4 92c0 19 0 37 1 52
c10 7 20 10 31 10c8 0 16 -1 24 -5c6 -33 16 -76 29 -102c13 -3 26 -3 39 -3c44 0 70 28 70 86c0 84 -71 128 -119 181c-28 31 -43 48 -43 89s38 74 64 111c22 31 25 58 25 82c0 30 -23 69 -77 69c-62 0 -95 -33 -95 -114v-555h-29c-67 0 -176 -2 -176 -2c-2 5 -3 11 -3 15
c0 26 28 39 28 39z" />
    <glyph glyph-name="agrave" unicode="&#xe0;" horiz-adv-x="504" 
d="M267 490c142 0 167 -83 167 -158c0 -69 -2 -139 -2 -216c0 -54 10 -68 52 -68h9l5 -34s-56 -24 -104 -24c-60 0 -85 20 -95 63c-14 -13 -79 -63 -141 -63c-75 0 -131 49 -131 130c0 74 55 138 191 162l77 13v13c0 64 -15 92 -91 92c-48 0 -102 -17 -128 -30l-18 52
c27 21 112 68 209 68zM233 84c23 0 46 6 61 13c-1 16 -1 31 -1 39l1 105l-49 -12c-65 -16 -75 -49 -75 -79c0 -34 17 -66 63 -66zM163 667c2 47 44 73 102 73c11 -68 25 -119 73 -170l-18 -27c-67 15 -151 72 -157 124z" />
    <glyph glyph-name="aacute" unicode="&#xe1;" horiz-adv-x="504" 
d="M267 490c142 0 167 -83 167 -158c0 -69 -2 -139 -2 -216c0 -54 10 -68 52 -68h9l5 -34s-56 -24 -104 -24c-60 0 -85 20 -95 63c-14 -13 -79 -63 -141 -63c-75 0 -131 49 -131 130c0 74 55 138 191 162l77 13v13c0 64 -15 92 -91 92c-48 0 -102 -17 -128 -30l-18 52
c27 21 112 68 209 68zM233 84c23 0 46 6 61 13c-1 16 -1 31 -1 39l1 105l-49 -12c-65 -16 -75 -49 -75 -79c0 -34 17 -66 63 -66zM352 664c-7 -58 -95 -107 -162 -122l-19 28c50 53 65 104 76 170c56 0 97 -21 105 -76z" />
    <glyph glyph-name="acircumflex" unicode="&#xe2;" horiz-adv-x="504" 
d="M267 490c142 0 167 -83 167 -158c0 -69 -2 -139 -2 -216c0 -54 10 -68 52 -68h9l5 -34s-56 -24 -104 -24c-60 0 -85 20 -95 63c-14 -13 -79 -63 -141 -63c-75 0 -131 49 -131 130c0 74 55 138 191 162l77 13v13c0 64 -15 92 -91 92c-48 0 -102 -17 -128 -30l-18 52
c27 21 112 68 209 68zM233 84c23 0 46 6 61 13c-1 16 -1 31 -1 39l1 105l-49 -12c-65 -16 -75 -49 -75 -79c0 -34 17 -66 63 -66zM144 529l-40 28l103 152l83 28l18 -12c22 -58 53 -120 93 -159l-46 -34c-42 17 -88 62 -114 101z" />
    <glyph glyph-name="atilde" unicode="&#xe3;" horiz-adv-x="504" 
d="M267 490c142 0 167 -83 167 -158c0 -69 -2 -139 -2 -216c0 -54 10 -68 52 -68h9l5 -34s-56 -24 -104 -24c-60 0 -85 20 -95 63c-14 -13 -79 -63 -141 -63c-75 0 -131 49 -131 130c0 74 55 138 191 162l77 13v13c0 64 -15 92 -91 92c-48 0 -102 -17 -128 -30l-18 52
c27 21 112 68 209 68zM233 84c23 0 46 6 61 13c-1 16 -1 31 -1 39l1 105l-49 -12c-65 -16 -75 -49 -75 -79c0 -34 17 -66 63 -66zM318 660c28 0 40 15 58 34l32 -24c-14 -43 -50 -101 -109 -101c-49 0 -71 49 -111 49c-30 0 -42 -15 -60 -34l-32 24c14 43 51 101 109 101
c53 0 68 -49 113 -49z" />
    <glyph glyph-name="adieresis" unicode="&#xe4;" horiz-adv-x="504" 
d="M267 490c142 0 167 -83 167 -158c0 -69 -2 -139 -2 -216c0 -54 10 -68 52 -68h9l5 -34s-56 -24 -104 -24c-60 0 -85 20 -95 63c-14 -13 -79 -63 -141 -63c-75 0 -131 49 -131 130c0 74 55 138 191 162l77 13v13c0 64 -15 92 -91 92c-48 0 -102 -17 -128 -30l-18 52
c27 21 112 68 209 68zM233 84c23 0 46 6 61 13c-1 16 -1 31 -1 39l1 105l-49 -12c-65 -16 -75 -49 -75 -79c0 -34 17 -66 63 -66zM279 647c0 39 31 70 70 70s70 -31 70 -70s-31 -70 -70 -70s-70 31 -70 70zM82 647c0 39 31 70 70 70s70 -31 70 -70s-31 -70 -70 -70
s-70 31 -70 70z" />
    <glyph glyph-name="aring" unicode="&#xe5;" horiz-adv-x="504" 
d="M267 490c142 0 167 -83 167 -158c0 -69 -2 -139 -2 -216c0 -54 10 -68 52 -68h9l5 -34s-56 -24 -104 -24c-60 0 -85 20 -95 63c-14 -13 -79 -63 -141 -63c-75 0 -131 49 -131 130c0 74 55 138 191 162l77 13v13c0 64 -15 92 -91 92c-48 0 -102 -17 -128 -30l-18 52
c27 21 112 68 209 68zM233 84c23 0 46 6 61 13c-1 16 -1 31 -1 39l1 105l-49 -12c-65 -16 -75 -49 -75 -79c0 -34 17 -66 63 -66zM368 647c0 -54 -38 -104 -111 -104s-111 50 -111 104s38 104 111 104s111 -50 111 -104zM257 599c30 0 42 21 42 48s-12 48 -42 48
s-42 -21 -42 -48s13 -48 42 -48z" />
    <glyph glyph-name="ae" unicode="&#xe6;" horiz-adv-x="745" 
d="M532 490c114 0 177 -71 177 -166c0 -39 -6 -77 -13 -99l-263 -2c6 -104 48 -145 137 -145c40 0 89 10 120 23l18 -50c-18 -13 -94 -61 -202 -61c-73 0 -134 20 -172 71c-41 -36 -97 -71 -170 -71c-86 0 -138 49 -138 130c0 74 54 138 194 162l77 13v14
c0 62 -19 91 -91 91c-49 0 -104 -17 -131 -30l-18 52c28 21 115 68 212 68c59 0 95 -24 117 -56c42 36 94 56 146 56zM239 84c24 0 51 9 72 18c-13 31 -20 71 -20 119v18l-44 -10c-67 -16 -78 -49 -78 -79c0 -34 15 -66 70 -66zM511 419c-40 0 -72 -35 -77 -137l126 11
c3 12 5 28 5 46c0 34 -5 80 -54 80z" />
    <glyph glyph-name="ccedilla" unicode="&#xe7;" horiz-adv-x="466" 
d="M380 -138c0 -86 -111 -113 -207 -113l-4 47c59 3 104 12 104 55c0 17 -9 32 -42 32c-13 0 -24 -3 -31 -5l-21 17l29 97c-96 12 -182 81 -182 232c0 166 134 266 270 266c71 0 115 -17 140 -35c5 -11 7 -22 7 -33c0 -39 -28 -77 -55 -92c-15 23 -60 76 -115 76
c-57 0 -92 -49 -92 -149c0 -122 49 -179 131 -179c37 0 80 10 108 22l18 -50c-16 -13 -82 -50 -164 -58l-27 -71c11 5 32 12 56 12c44 0 77 -24 77 -71z" />
    <glyph glyph-name="egrave" unicode="&#xe8;" horiz-adv-x="490" 
d="M276 490c114 0 177 -71 177 -166c0 -39 -6 -77 -13 -99l-262 -2c5 -103 47 -145 136 -145c40 0 89 10 120 23l18 -50c-18 -13 -94 -61 -202 -61c-126 0 -224 71 -224 231c0 184 125 269 250 269zM255 419c-40 0 -72 -35 -77 -137l126 11c3 12 5 28 5 46
c0 34 -5 80 -54 80zM158 667c2 47 44 73 102 73c11 -68 25 -119 73 -170l-18 -27c-67 15 -151 72 -157 124z" />
    <glyph glyph-name="eacute" unicode="&#xe9;" horiz-adv-x="490" 
d="M276 490c114 0 177 -71 177 -166c0 -39 -6 -77 -13 -99l-262 -2c5 -103 47 -145 136 -145c40 0 89 10 120 23l18 -50c-18 -13 -94 -61 -202 -61c-126 0 -224 71 -224 231c0 184 125 269 250 269zM255 419c-40 0 -72 -35 -77 -137l126 11c3 12 5 28 5 46
c0 34 -5 80 -54 80zM354 664c-7 -58 -95 -107 -162 -122l-19 28c50 53 65 104 76 170c56 0 97 -21 105 -76z" />
    <glyph glyph-name="ecircumflex" unicode="&#xea;" horiz-adv-x="490" 
d="M276 490c114 0 177 -71 177 -166c0 -39 -6 -77 -13 -99l-262 -2c5 -103 47 -145 136 -145c40 0 89 10 120 23l18 -50c-18 -13 -94 -61 -202 -61c-126 0 -224 71 -224 231c0 184 125 269 250 269zM255 419c-40 0 -72 -35 -77 -137l126 11c3 12 5 28 5 46
c0 34 -5 80 -54 80zM150 529l-40 28l103 152l83 28l18 -12c22 -58 53 -120 93 -159l-46 -34c-42 17 -88 62 -114 101z" />
    <glyph glyph-name="edieresis" unicode="&#xeb;" horiz-adv-x="490" 
d="M276 490c114 0 177 -71 177 -166c0 -39 -6 -77 -13 -99l-262 -2c5 -103 47 -145 136 -145c40 0 89 10 120 23l18 -50c-18 -13 -94 -61 -202 -61c-126 0 -224 71 -224 231c0 184 125 269 250 269zM255 419c-40 0 -72 -35 -77 -137l126 11c3 12 5 28 5 46
c0 34 -5 80 -54 80zM293 647c0 39 31 70 70 70s70 -31 70 -70s-31 -70 -70 -70s-70 31 -70 70zM96 647c0 39 31 70 70 70s70 -31 70 -70s-31 -70 -70 -70s-70 31 -70 70z" />
    <glyph glyph-name="igrave" unicode="&#xec;" horiz-adv-x="311" 
d="M57 667c2 47 44 73 102 73c11 -68 25 -119 73 -170l-18 -27c-67 15 -151 72 -157 124zM234 64c29 -7 73 -12 73 -12s-1 -26 -24 -54c0 0 -82 4 -121 4c-41 0 -137 -4 -137 -4c-2 5 -3 11 -3 15c0 26 28 39 28 39l43 12v343c-34 6 -80 13 -80 13c-1 3 -2 9 -2 13
c0 26 26 39 26 39s104 7 197 15v-423z" />
    <glyph glyph-name="iacute" unicode="&#xed;" horiz-adv-x="311" 
d="M242 664c-7 -58 -95 -107 -162 -122l-19 28c50 53 65 104 76 170c56 0 97 -21 105 -76zM234 64c29 -7 73 -12 73 -12s-1 -26 -24 -54c0 0 -82 4 -121 4c-41 0 -137 -4 -137 -4c-2 5 -3 11 -3 15c0 26 28 39 28 39l43 12v343c-34 6 -80 13 -80 13c-1 3 -2 9 -2 13
c0 26 26 39 26 39s104 7 197 15v-423z" />
    <glyph glyph-name="icircumflex" unicode="&#xee;" horiz-adv-x="311" 
d="M41 529l-40 28l103 152l83 28l18 -12c22 -58 53 -120 93 -159l-46 -34c-42 17 -88 62 -114 101zM234 64c29 -7 73 -12 73 -12s-1 -26 -24 -54c0 0 -82 4 -121 4c-41 0 -137 -4 -137 -4c-2 5 -3 11 -3 15c0 26 28 39 28 39l43 12v343c-34 6 -80 13 -80 13c-1 3 -2 9 -2 13
c0 26 26 39 26 39s104 7 197 15v-423z" />
    <glyph glyph-name="idieresis" unicode="&#xef;" horiz-adv-x="311" 
d="M180 647c0 39 31 70 70 70s70 -31 70 -70s-31 -70 -70 -70s-70 31 -70 70zM-17 647c0 39 31 70 70 70s70 -31 70 -70s-31 -70 -70 -70s-70 31 -70 70zM234 64c29 -7 73 -12 73 -12s-1 -26 -24 -54c0 0 -82 4 -121 4c-41 0 -137 -4 -137 -4c-2 5 -3 11 -3 15
c0 26 28 39 28 39l43 12v343c-34 6 -80 13 -80 13c-1 3 -2 9 -2 13c0 26 26 39 26 39s104 7 197 15v-423z" />
    <glyph glyph-name="eth" unicode="&#xf0;" horiz-adv-x="532" 
d="M120 574l112 41c-36 25 -80 46 -133 61l23 61c74 -17 144 -46 204 -87l124 46c11 -4 18 -24 18 -36c0 -8 -2 -14 -3 -17l-89 -33c82 -76 135 -184 135 -331c0 -197 -114 -289 -248 -289c-125 0 -237 58 -237 228c0 187 111 262 212 262c63 0 101 -25 121 -47
c-12 50 -37 99 -78 141l-145 -53c-11 3 -20 21 -20 36c0 6 1 11 4 17zM361 234c0 99 -24 169 -94 169c-51 0 -86 -28 -86 -160c0 -113 33 -178 96 -178c45 0 84 32 84 169z" />
    <glyph glyph-name="ntilde" unicode="&#xf1;" horiz-adv-x="608" 
d="M93 64v343c-34 6 -80 13 -80 13c-1 3 -2 9 -2 13c0 26 26 39 26 39s104 7 190 15c0 -25 2 -65 2 -65c18 12 86 68 161 68c118 0 141 -89 141 -177v-249c29 -7 73 -12 73 -12s-1 -26 -24 -54c0 0 -82 4 -121 4c-41 0 -120 -4 -120 -4c-2 5 -3 11 -3 15c0 26 28 39 28 39
l26 12v221c0 81 -30 104 -90 104c-25 0 -50 -6 -66 -14v-311c26 -7 66 -12 66 -12s-1 -26 -24 -54c0 0 -79 4 -116 4c-41 0 -135 -4 -135 -4c-2 5 -3 11 -3 15c0 26 28 39 28 39zM370 660c28 0 40 15 58 34l32 -24c-14 -43 -50 -101 -109 -101c-49 0 -71 49 -111 49
c-30 0 -42 -15 -60 -34l-32 24c14 43 51 101 109 101c53 0 68 -49 113 -49z" />
    <glyph glyph-name="ograve" unicode="&#xf2;" horiz-adv-x="541" 
d="M263 -10c-124 0 -237 61 -237 231c0 184 131 269 253 269c124 0 237 -61 237 -231c0 -186 -131 -269 -253 -269zM181 251c0 -107 27 -186 95 -186c52 0 85 41 85 164c0 107 -27 186 -95 186c-52 0 -85 -37 -85 -164zM183 667c2 47 44 73 102 73c11 -68 25 -119 73 -170
l-18 -27c-67 15 -151 72 -157 124z" />
    <glyph glyph-name="oacute" unicode="&#xf3;" horiz-adv-x="541" 
d="M263 -10c-124 0 -237 61 -237 231c0 184 131 269 253 269c124 0 237 -61 237 -231c0 -186 -131 -269 -253 -269zM181 251c0 -107 27 -186 95 -186c52 0 85 41 85 164c0 107 -27 186 -95 186c-52 0 -85 -37 -85 -164zM363 664c-7 -58 -95 -107 -162 -122l-19 28
c50 53 65 104 76 170c56 0 97 -21 105 -76z" />
    <glyph glyph-name="ocircumflex" unicode="&#xf4;" horiz-adv-x="541" 
d="M263 -10c-124 0 -237 61 -237 231c0 184 131 269 253 269c124 0 237 -61 237 -231c0 -186 -131 -269 -253 -269zM181 251c0 -107 27 -186 95 -186c52 0 85 41 85 164c0 107 -27 186 -95 186c-52 0 -85 -37 -85 -164zM162 529l-40 28l103 152l83 28l18 -12
c22 -58 53 -120 93 -159l-46 -34c-42 17 -88 62 -114 101z" />
    <glyph glyph-name="otilde" unicode="&#xf5;" horiz-adv-x="541" 
d="M263 -10c-124 0 -237 61 -237 231c0 184 131 269 253 269c124 0 237 -61 237 -231c0 -186 -131 -269 -253 -269zM181 251c0 -107 27 -186 95 -186c52 0 85 41 85 164c0 107 -27 186 -95 186c-52 0 -85 -37 -85 -164zM341 660c28 0 40 15 58 34l32 -24
c-14 -43 -50 -101 -109 -101c-49 0 -71 49 -111 49c-30 0 -42 -15 -60 -34l-32 24c14 43 51 101 109 101c53 0 68 -49 113 -49z" />
    <glyph glyph-name="odieresis" unicode="&#xf6;" horiz-adv-x="541" 
d="M263 -10c-124 0 -237 61 -237 231c0 184 131 269 253 269c124 0 237 -61 237 -231c0 -186 -131 -269 -253 -269zM181 251c0 -107 27 -186 95 -186c52 0 85 41 85 164c0 107 -27 186 -95 186c-52 0 -85 -37 -85 -164zM299 647c0 39 31 70 70 70s70 -31 70 -70
s-31 -70 -70 -70s-70 31 -70 70zM102 647c0 39 31 70 70 70s70 -31 70 -70s-31 -70 -70 -70s-70 31 -70 70z" />
    <glyph glyph-name="divide" unicode="&#xf7;" horiz-adv-x="578" 
d="M71 297h436v-92h-436v92zM221 70c0 38 27 69 67 69s70 -30 70 -68c0 -40 -30 -71 -70 -71s-67 30 -67 70zM221 421c0 38 27 69 67 69s70 -30 70 -68c0 -40 -30 -71 -70 -71s-67 30 -67 70z" />
    <glyph glyph-name="oslash" unicode="&#xf8;" horiz-adv-x="541" 
d="M87 -40l-37 31l44 54c-42 36 -68 93 -68 176c0 184 131 269 253 269c53 0 105 -11 146 -38l38 46l37 -31l-38 -47c33 -34 54 -89 54 -161c0 -186 -131 -269 -253 -269c-46 0 -91 9 -129 28zM181 251c0 -33 2 -64 8 -90l154 190c-15 40 -40 64 -77 64
c-52 0 -85 -37 -85 -164zM361 229c0 22 -2 43 -4 62l-149 -183c15 -27 37 -43 68 -43c52 0 85 41 85 164z" />
    <glyph glyph-name="ugrave" unicode="&#xf9;" horiz-adv-x="595" 
d="M514 73c34 -6 80 -13 80 -13c1 -3 2 -8 2 -13c0 -26 -26 -39 -26 -39s-104 -5 -190 -13c0 25 -2 63 -2 63c-18 -12 -86 -68 -161 -68c-118 0 -141 89 -141 177v240c-34 6 -70 13 -70 13c-1 3 -2 9 -2 13c0 26 26 39 26 39s96 7 187 15v-292c0 -81 30 -104 90 -104
c25 0 50 6 66 14v302c-34 6 -75 13 -75 13c-2 4 -2 9 -2 13c0 26 26 39 26 39s101 7 192 15v-414zM205 667c2 47 44 73 102 73c11 -68 25 -119 73 -170l-18 -27c-67 15 -151 72 -157 124z" />
    <glyph glyph-name="uacute" unicode="&#xfa;" horiz-adv-x="595" 
d="M514 73c34 -6 80 -13 80 -13c1 -3 2 -8 2 -13c0 -26 -26 -39 -26 -39s-104 -5 -190 -13c0 25 -2 63 -2 63c-18 -12 -86 -68 -161 -68c-118 0 -141 89 -141 177v240c-34 6 -70 13 -70 13c-1 3 -2 9 -2 13c0 26 26 39 26 39s96 7 187 15v-292c0 -81 30 -104 90 -104
c25 0 50 6 66 14v302c-34 6 -75 13 -75 13c-2 4 -2 9 -2 13c0 26 26 39 26 39s101 7 192 15v-414zM409 664c-7 -58 -95 -107 -162 -122l-19 28c50 53 65 104 76 170c56 0 97 -21 105 -76z" />
    <glyph glyph-name="ucircumflex" unicode="&#xfb;" horiz-adv-x="595" 
d="M514 73c34 -6 80 -13 80 -13c1 -3 2 -8 2 -13c0 -26 -26 -39 -26 -39s-104 -5 -190 -13c0 25 -2 63 -2 63c-18 -12 -86 -68 -161 -68c-118 0 -141 89 -141 177v240c-34 6 -70 13 -70 13c-1 3 -2 9 -2 13c0 26 26 39 26 39s96 7 187 15v-292c0 -81 30 -104 90 -104
c25 0 50 6 66 14v302c-34 6 -75 13 -75 13c-2 4 -2 9 -2 13c0 26 26 39 26 39s101 7 192 15v-414zM191 529l-40 28l103 152l83 28l18 -12c22 -58 53 -120 93 -159l-46 -34c-42 17 -88 62 -114 101z" />
    <glyph glyph-name="udieresis" unicode="&#xfc;" horiz-adv-x="595" 
d="M514 73c34 -6 80 -13 80 -13c1 -3 2 -8 2 -13c0 -26 -26 -39 -26 -39s-104 -5 -190 -13c0 25 -2 63 -2 63c-18 -12 -86 -68 -161 -68c-118 0 -141 89 -141 177v240c-34 6 -70 13 -70 13c-1 3 -2 9 -2 13c0 26 26 39 26 39s96 7 187 15v-292c0 -81 30 -104 90 -104
c25 0 50 6 66 14v302c-34 6 -75 13 -75 13c-2 4 -2 9 -2 13c0 26 26 39 26 39s101 7 192 15v-414zM323 647c0 39 31 70 70 70s70 -31 70 -70s-31 -70 -70 -70s-70 31 -70 70zM126 647c0 39 31 70 70 70s70 -31 70 -70s-31 -70 -70 -70s-70 31 -70 70z" />
    <glyph glyph-name="yacute" unicode="&#xfd;" horiz-adv-x="542" 
d="M50 406l-63 19c-2 5 -3 11 -3 15c0 26 28 37 28 37s74 -1 117 -1s153 1 153 1s-5 -24 -28 -52l-50 -19l98 -252l99 252l-68 19c-2 5 -3 11 -3 15c0 26 28 37 28 37s56 -1 96 -1c43 0 115 1 115 1s-3 -24 -26 -52l-46 -19l-166 -393c-46 -109 -105 -227 -153 -257
c-5 -1 -10 -1 -15 -1c-53 0 -98 35 -106 87c50 10 138 47 174 146l4 11zM395 664c-7 -58 -95 -107 -162 -122l-19 28c50 53 65 104 76 170c56 0 97 -21 105 -76z" />
    <glyph glyph-name="thorn" unicode="&#xfe;" horiz-adv-x="570" 
d="M79 -177v827c-34 6 -75 13 -75 13c-1 3 -2 9 -2 13c0 26 26 39 26 39s99 7 192 15v-303c21 15 78 63 138 63c90 0 187 -62 187 -219c0 -207 -162 -279 -276 -279c-25 0 -41 2 -49 3v-172c29 -7 73 -12 73 -12s-1 -26 -24 -54c0 0 -82 4 -121 4c-41 0 -137 -4 -137 -4
c-2 5 -3 11 -3 15c0 26 28 39 28 39zM392 232c0 89 -30 157 -116 157c-20 0 -39 -4 -56 -12v-296c13 -7 33 -12 63 -12c90 0 109 75 109 163z" />
    <glyph glyph-name="ydieresis" unicode="&#xff;" horiz-adv-x="542" 
d="M50 406l-63 19c-2 5 -3 11 -3 15c0 26 28 37 28 37s74 -1 117 -1s153 1 153 1s-5 -24 -28 -52l-50 -19l98 -252l99 252l-68 19c-2 5 -3 11 -3 15c0 26 28 37 28 37s56 -1 96 -1c43 0 115 1 115 1s-3 -24 -26 -52l-46 -19l-166 -393c-46 -109 -105 -227 -153 -257
c-5 -1 -10 -1 -15 -1c-53 0 -98 35 -106 87c50 10 138 47 174 146l4 11zM319 647c0 39 31 70 70 70s70 -31 70 -70s-31 -70 -70 -70s-70 31 -70 70zM122 647c0 39 31 70 70 70s70 -31 70 -70s-31 -70 -70 -70s-70 31 -70 70z" />
    <glyph glyph-name="Amacron" unicode="&#x100;" horiz-adv-x="626" 
d="M48 71l207 589h116l207 -589c31 -8 78 -16 78 -16c0 -15 -5 -36 -23 -57c0 0 -97 4 -141 4c-45 0 -138 -4 -138 -4c-2 6 -3 11 -3 16c0 28 28 41 28 41l48 16l-37 118h-205l-38 -118c33 -8 88 -16 88 -16s0 -32 -23 -57c0 0 -79 4 -125 4c-47 0 -118 -4 -118 -4
c-2 6 -3 11 -3 16c0 28 28 41 28 41zM290 514l-82 -254h160zM180 827h279c2 -7 2 -15 2 -22c0 -34 -14 -59 -14 -59h-279c-1 5 -2 14 -2 21c0 33 14 60 14 60z" />
    <glyph glyph-name="amacron" unicode="&#x101;" horiz-adv-x="504" 
d="M267 490c142 0 167 -83 167 -158c0 -69 -2 -139 -2 -216c0 -54 10 -68 52 -68h9l5 -34s-56 -24 -104 -24c-60 0 -85 20 -95 63c-14 -13 -79 -63 -141 -63c-75 0 -131 49 -131 130c0 74 55 138 191 162l77 13v13c0 64 -15 92 -91 92c-48 0 -102 -17 -128 -30l-18 52
c27 21 112 68 209 68zM233 84c23 0 46 6 61 13c-1 16 -1 31 -1 39l1 105l-49 -12c-65 -16 -75 -49 -75 -79c0 -34 17 -66 63 -66zM384 596h-275c-2 7 -4 16 -4 25c0 20 6 41 16 54h275c2 -7 4 -16 4 -25c0 -20 -6 -41 -16 -54z" />
    <glyph glyph-name="Abreve" unicode="&#x102;" horiz-adv-x="626" 
d="M48 71l207 589h116l207 -589c31 -8 78 -16 78 -16c0 -15 -5 -36 -23 -57c0 0 -97 4 -141 4c-45 0 -138 -4 -138 -4c-2 6 -3 11 -3 16c0 28 28 41 28 41l48 16l-37 118h-205l-38 -118c33 -8 88 -16 88 -16s0 -32 -23 -57c0 0 -79 4 -125 4c-47 0 -118 -4 -118 -4
c-2 6 -3 11 -3 16c0 28 28 41 28 41zM290 514l-82 -254h160zM312 718c-94 0 -133 80 -146 115l39 31c29 -39 65 -54 107 -54s79 15 107 54l39 -31c-13 -35 -52 -115 -146 -115z" />
    <glyph glyph-name="abreve" unicode="&#x103;" horiz-adv-x="504" 
d="M267 490c142 0 167 -83 167 -158c0 -69 -2 -139 -2 -216c0 -54 10 -68 52 -68h9l5 -34s-56 -24 -104 -24c-60 0 -85 20 -95 63c-14 -13 -79 -63 -141 -63c-75 0 -131 49 -131 130c0 74 55 138 191 162l77 13v13c0 64 -15 92 -91 92c-48 0 -102 -17 -128 -30l-18 52
c27 21 112 68 209 68zM233 84c23 0 46 6 61 13c-1 16 -1 31 -1 39l1 105l-49 -12c-65 -16 -75 -49 -75 -79c0 -34 17 -66 63 -66zM257 568c-92 0 -129 85 -142 122l37 36c29 -39 67 -66 110 -66c50 0 85 35 108 66l37 -36c-11 -33 -55 -122 -150 -122z" />
    <glyph glyph-name="Aogonek" unicode="&#x104;" horiz-adv-x="626" 
d="M48 71l207 589h116l207 -589c31 -8 78 -16 78 -16c0 -15 -5 -36 -23 -57c0 0 -30 2 -63 2c-71 -42 -99 -80 -99 -132c0 -30 16 -45 48 -45c26 0 50 7 78 25l13 -31c-31 -35 -86 -65 -147 -65c-68 0 -119 32 -119 87c0 72 70 124 148 163c-45 0 -138 -4 -138 -4
c-2 6 -3 11 -3 16c0 28 28 41 28 41l48 16l-37 118h-205l-38 -118c33 -8 88 -16 88 -16s0 -32 -23 -57c0 0 -79 4 -125 4c-47 0 -118 -4 -118 -4c-2 6 -3 11 -3 16c0 28 28 41 28 41zM290 514l-82 -254h160z" />
    <glyph glyph-name="aogonek" unicode="&#x105;" horiz-adv-x="504" 
d="M267 490c142 0 167 -83 167 -158c0 -69 -2 -139 -2 -216c0 -54 10 -68 52 -68h9l5 -34c-97 -46 -139 -88 -139 -146c0 -30 16 -45 48 -45c26 0 50 7 78 25l13 -31c-31 -35 -86 -65 -147 -65c-68 0 -119 32 -119 87c0 65 60 115 132 153c-39 6 -57 26 -65 61
c-14 -13 -79 -63 -141 -63c-75 0 -131 49 -131 130c0 74 55 138 191 162l77 13v13c0 64 -15 92 -91 92c-48 0 -102 -17 -128 -30l-18 52c27 21 112 68 209 68zM233 84c23 0 46 6 61 13c-1 16 -1 31 -1 39l1 105l-49 -12c-65 -16 -75 -49 -75 -79c0 -34 17 -66 63 -66z" />
    <glyph glyph-name="Cacute" unicode="&#x106;" horiz-adv-x="653" 
d="M394 589c-115 0 -198 -53 -198 -242c0 -164 74 -263 217 -263c74 0 138 17 174 33l22 -54c-34 -23 -137 -73 -246 -73c-217 0 -331 132 -331 316c0 248 191 364 381 364c74 0 147 -18 183 -33c8 -51 10 -105 10 -153c0 -21 0 -37 -1 -50c-9 -7 -19 -11 -31 -11
c-10 0 -20 3 -30 8c-5 34 -14 84 -32 127c-26 17 -66 31 -118 31zM495 791c-18 -47 -109 -76 -175 -76h-12l-11 32c63 37 91 82 120 143c48 -13 80 -42 80 -82c0 -5 -1 -11 -2 -17z" />
    <glyph glyph-name="cacute" unicode="&#x107;" horiz-adv-x="466" 
d="M26 224c0 166 134 266 270 266c71 0 115 -17 140 -35c5 -11 7 -22 7 -33c0 -39 -28 -77 -55 -92c-15 23 -60 76 -115 76c-57 0 -92 -49 -92 -149c0 -122 49 -179 131 -179c37 0 80 10 108 22l18 -50c-18 -14 -100 -60 -197 -60c-109 0 -215 66 -215 234zM346 664
c-7 -58 -95 -107 -162 -122l-19 28c50 53 65 104 76 170c56 0 97 -21 105 -76z" />
    <glyph glyph-name="Ccircumflex" unicode="&#x108;" horiz-adv-x="653" 
d="M394 589c-115 0 -198 -53 -198 -242c0 -164 74 -263 217 -263c74 0 138 17 174 33l22 -54c-34 -23 -137 -73 -246 -73c-217 0 -331 132 -331 316c0 248 191 364 381 364c74 0 147 -18 183 -33c8 -51 10 -105 10 -153c0 -21 0 -37 -1 -50c-9 -7 -19 -11 -31 -11
c-10 0 -20 3 -30 8c-5 34 -14 84 -32 127c-26 17 -66 31 -118 31zM244 707l-36 32l129 124h93c18 -49 58 -88 108 -111l-43 -38c-50 6 -116 40 -141 71z" />
    <glyph glyph-name="ccircumflex" unicode="&#x109;" horiz-adv-x="466" 
d="M26 224c0 166 134 266 270 266c71 0 115 -17 140 -35c5 -11 7 -22 7 -33c0 -39 -28 -77 -55 -92c-15 23 -60 76 -115 76c-57 0 -92 -49 -92 -149c0 -122 49 -179 131 -179c37 0 80 10 108 22l18 -50c-18 -14 -100 -60 -197 -60c-109 0 -215 66 -215 234zM164 529l-40 28
l103 152l83 28l18 -12c22 -58 53 -120 93 -159l-46 -34c-42 17 -88 62 -114 101z" />
    <glyph glyph-name="Cdotaccent" unicode="&#x10a;" horiz-adv-x="653" 
d="M394 589c-115 0 -198 -53 -198 -242c0 -164 74 -263 217 -263c74 0 138 17 174 33l22 -54c-34 -23 -137 -73 -246 -73c-217 0 -331 132 -331 316c0 248 191 364 381 364c74 0 147 -18 183 -33c8 -51 10 -105 10 -153c0 -21 0 -37 -1 -50c-9 -7 -19 -11 -31 -11
c-10 0 -20 3 -30 8c-5 34 -14 84 -32 127c-26 17 -66 31 -118 31zM311 791c0 40 29 73 72 73s72 -33 72 -73s-30 -73 -72 -73s-72 33 -72 73z" />
    <glyph glyph-name="cdotaccent" unicode="&#x10b;" horiz-adv-x="466" 
d="M26 224c0 166 134 266 270 266c71 0 115 -17 140 -35c5 -11 7 -22 7 -33c0 -39 -28 -77 -55 -92c-15 23 -60 76 -115 76c-57 0 -92 -49 -92 -149c0 -122 49 -179 131 -179c37 0 80 10 108 22l18 -50c-18 -14 -100 -60 -197 -60c-109 0 -215 66 -215 234zM203 646
c0 40 29 73 72 73s72 -33 72 -73s-30 -73 -72 -73s-72 33 -72 73z" />
    <glyph glyph-name="Ccaron" unicode="&#x10c;" horiz-adv-x="653" 
d="M394 589c-115 0 -198 -53 -198 -242c0 -164 74 -263 217 -263c74 0 138 17 174 33l22 -54c-34 -23 -137 -73 -246 -73c-217 0 -331 132 -331 316c0 248 191 364 381 364c74 0 147 -18 183 -33c8 -51 10 -105 10 -153c0 -21 0 -37 -1 -50c-9 -7 -19 -11 -31 -11
c-10 0 -20 3 -30 8c-5 34 -14 84 -32 127c-26 17 -66 31 -118 31zM505 871l36 -32l-129 -124h-93c-18 49 -58 88 -108 111l43 38c50 -6 116 -40 141 -71z" />
    <glyph glyph-name="ccaron" unicode="&#x10d;" horiz-adv-x="466" 
d="M26 224c0 166 134 266 270 266c71 0 115 -17 140 -35c5 -11 7 -22 7 -33c0 -39 -28 -77 -55 -92c-15 23 -60 76 -115 76c-57 0 -92 -49 -92 -149c0 -122 49 -179 131 -179c37 0 80 10 108 22l18 -50c-18 -14 -100 -60 -197 -60c-109 0 -215 66 -215 234zM378 741l40 -28
l-103 -152l-83 -28l-18 12c-22 58 -53 120 -93 159l46 34c42 -17 88 -62 114 -101z" />
    <glyph glyph-name="Dcaron" unicode="&#x10e;" horiz-adv-x="745" 
d="M120 71v519l-89 14c-2 6 -3 11 -3 16c0 28 28 40 28 40h296c250 0 357 -149 357 -303c0 -249 -175 -356 -387 -356c-38 0 -91 1 -150 1c-48 0 -141 -4 -141 -4c-2 6 -3 11 -3 16c0 28 28 41 28 41zM328 590h-62v-506c16 -2 42 -4 75 -4c126 0 203 58 203 236
c0 162 -67 274 -216 274zM467 871l36 -32l-129 -124h-93c-18 49 -58 88 -108 111l43 38c50 -6 116 -40 141 -71z" />
    <glyph glyph-name="dcaron" unicode="&#x10f;" horiz-adv-x="693" 
d="M492 730v-657c34 -6 80 -13 80 -13c1 -4 2 -9 2 -13c0 -26 -26 -39 -26 -39s-104 -5 -186 -13c-1 26 -6 61 -6 61c-18 -11 -79 -66 -143 -66c-90 0 -187 63 -187 219c0 206 162 279 276 279c11 0 36 -2 49 -5v167c-34 6 -75 13 -75 13c-1 4 -2 9 -2 13c0 26 26 39 26 39
s99 7 192 15zM179 248c0 -88 30 -157 116 -157c20 0 39 4 56 12v284c-10 15 -33 24 -63 24c-90 0 -109 -76 -109 -163zM543 664c2 19 14 73 56 92c47 -5 76 -44 76 -84c0 -54 -41 -124 -64 -152l-37 17c8 23 17 54 17 84c0 17 -35 38 -48 43z" />
    <glyph glyph-name="Dcroat" unicode="&#x110;" horiz-adv-x="745" 
d="M120 71v239h-90c-1 4 -2 13 -2 18c0 22 8 38 11 44h81v218l-89 14c-2 6 -3 11 -3 16c0 28 28 40 28 40h296c250 0 357 -149 357 -303c0 -249 -175 -356 -387 -356c-38 0 -91 1 -150 1c-48 0 -141 -4 -141 -4c-2 6 -3 11 -3 16c0 28 28 41 28 41zM328 590h-62v-218h131
c1 -5 2 -13 2 -19c0 -22 -7 -37 -11 -43h-122v-226c16 -2 42 -4 75 -4c126 0 203 58 203 236c0 162 -67 274 -216 274z" />
    <glyph glyph-name="dcroat" unicode="&#x111;" horiz-adv-x="573" 
d="M492 730v-128h84c1 -5 2 -13 2 -19c0 -22 -7 -36 -11 -43h-75v-467c34 -6 80 -13 80 -13c1 -4 2 -9 2 -13c0 -26 -26 -39 -26 -39s-104 -5 -186 -13c-1 26 -6 61 -6 61c-18 -11 -79 -66 -143 -66c-90 0 -187 63 -187 219c0 206 162 279 276 279c11 0 36 -2 49 -5v57h-120
c-1 4 -2 13 -2 18c0 22 8 38 11 44h111v48c-34 6 -75 13 -75 13c-1 4 -2 9 -2 13c0 26 26 39 26 39s99 7 192 15zM179 248c0 -88 30 -157 116 -157c20 0 39 4 56 12v284c-10 15 -33 24 -63 24c-90 0 -109 -76 -109 -163z" />
    <glyph glyph-name="Emacron" unicode="&#x112;" horiz-adv-x="584" 
d="M527 -2c0 0 -184 4 -326 4c-68 0 -170 -4 -170 -4c-2 6 -3 11 -3 16c0 28 28 41 28 41l64 16v519l-89 14c-2 5 -3 11 -3 16c0 28 28 41 28 41s77 -2 145 -2c192 0 321 1 321 1c7 -49 9 -112 9 -158v-23c-7 -8 -18 -12 -32 -12c-10 0 -20 2 -29 6c-5 28 -13 73 -29 106
l-175 4v-211l193 8v-6c0 -47 -33 -78 -33 -78h-160v-217l183 4c14 30 21 71 28 113c7 4 16 8 29 8c15 0 25 -6 31 -10v-16c0 -49 -4 -124 -10 -180zM170 827h279c2 -7 2 -15 2 -22c0 -34 -14 -59 -14 -59h-279c-1 5 -2 14 -2 21c0 33 14 60 14 60z" />
    <glyph glyph-name="emacron" unicode="&#x113;" horiz-adv-x="490" 
d="M276 490c114 0 177 -71 177 -166c0 -39 -6 -77 -13 -99l-262 -2c5 -103 47 -145 136 -145c40 0 89 10 120 23l18 -50c-18 -13 -94 -61 -202 -61c-126 0 -224 71 -224 231c0 184 125 269 250 269zM255 419c-40 0 -72 -35 -77 -137l126 11c3 12 5 28 5 46
c0 34 -5 80 -54 80zM386 596h-275c-2 7 -4 16 -4 25c0 20 6 41 16 54h275c2 -7 4 -16 4 -25c0 -20 -6 -41 -16 -54z" />
    <glyph glyph-name="Ebreve" unicode="&#x114;" horiz-adv-x="584" 
d="M527 -2c0 0 -184 4 -326 4c-68 0 -170 -4 -170 -4c-2 6 -3 11 -3 16c0 28 28 41 28 41l64 16v519l-89 14c-2 5 -3 11 -3 16c0 28 28 41 28 41s77 -2 145 -2c192 0 321 1 321 1c7 -49 9 -112 9 -158v-23c-7 -8 -18 -12 -32 -12c-10 0 -20 2 -29 6c-5 28 -13 73 -29 106
l-175 4v-211l193 8v-6c0 -47 -33 -78 -33 -78h-160v-217l183 4c14 30 21 71 28 113c7 4 16 8 29 8c15 0 25 -6 31 -10v-16c0 -49 -4 -124 -10 -180zM309 718c-94 0 -133 80 -146 115l39 31c29 -39 65 -54 107 -54s79 15 107 54l39 -31c-13 -35 -52 -115 -146 -115z" />
    <glyph glyph-name="ebreve" unicode="&#x115;" horiz-adv-x="490" 
d="M276 490c114 0 177 -71 177 -166c0 -39 -6 -77 -13 -99l-262 -2c5 -103 47 -145 136 -145c40 0 89 10 120 23l18 -50c-18 -13 -94 -61 -202 -61c-126 0 -224 71 -224 231c0 184 125 269 250 269zM255 419c-40 0 -72 -35 -77 -137l126 11c3 12 5 28 5 46
c0 34 -5 80 -54 80zM259 568c-92 0 -129 85 -142 122l37 36c29 -39 67 -66 110 -66c50 0 85 35 108 66l37 -36c-11 -33 -55 -122 -150 -122z" />
    <glyph glyph-name="Edotaccent" unicode="&#x116;" horiz-adv-x="584" 
d="M527 -2c0 0 -184 4 -326 4c-68 0 -170 -4 -170 -4c-2 6 -3 11 -3 16c0 28 28 41 28 41l64 16v519l-89 14c-2 5 -3 11 -3 16c0 28 28 41 28 41s77 -2 145 -2c192 0 321 1 321 1c7 -49 9 -112 9 -158v-23c-7 -8 -18 -12 -32 -12c-10 0 -20 2 -29 6c-5 28 -13 73 -29 106
l-175 4v-211l193 8v-6c0 -47 -33 -78 -33 -78h-160v-217l183 4c14 30 21 71 28 113c7 4 16 8 29 8c15 0 25 -6 31 -10v-16c0 -49 -4 -124 -10 -180zM231 791c0 40 29 73 72 73s72 -33 72 -73s-30 -73 -72 -73s-72 33 -72 73z" />
    <glyph glyph-name="edotaccent" unicode="&#x117;" horiz-adv-x="490" 
d="M276 490c114 0 177 -71 177 -166c0 -39 -6 -77 -13 -99l-262 -2c5 -103 47 -145 136 -145c40 0 89 10 120 23l18 -50c-18 -13 -94 -61 -202 -61c-126 0 -224 71 -224 231c0 184 125 269 250 269zM255 419c-40 0 -72 -35 -77 -137l126 11c3 12 5 28 5 46
c0 34 -5 80 -54 80zM191 646c0 40 29 73 72 73s72 -33 72 -73s-30 -73 -72 -73s-72 33 -72 73z" />
    <glyph glyph-name="Eogonek" unicode="&#x118;" horiz-adv-x="584" 
d="M527 -2c-92 -37 -138 -78 -138 -130c0 -30 16 -45 48 -45c26 0 50 7 78 25l13 -31c-31 -35 -86 -65 -147 -65c-68 0 -119 32 -119 87c0 85 98 131 190 161c-67 0 -166 2 -251 2c-68 0 -170 -4 -170 -4c-2 6 -3 11 -3 16c0 28 28 41 28 41l64 16v519l-89 14
c-2 5 -3 11 -3 16c0 28 28 41 28 41s77 -2 145 -2c192 0 321 1 321 1c7 -49 9 -112 9 -158v-23c-7 -8 -18 -12 -32 -12c-10 0 -20 2 -29 6c-5 28 -13 73 -29 106l-175 4v-211l193 8v-6c0 -47 -33 -78 -33 -78h-160v-217l183 4c14 30 21 71 28 113c7 4 16 8 29 8
c15 0 25 -6 31 -10v-16c0 -49 -4 -124 -10 -180z" />
    <glyph glyph-name="eogonek" unicode="&#x119;" horiz-adv-x="490" 
d="M276 490c114 0 177 -71 177 -166c0 -39 -6 -77 -13 -99l-262 -2c5 -103 47 -145 136 -145c40 0 89 10 120 23l18 -50c-110 -72 -141 -118 -141 -183c0 -30 16 -45 48 -45c26 0 50 7 78 25l13 -31c-31 -35 -86 -65 -147 -65c-68 0 -117 30 -117 85c0 75 67 124 137 161
c-22 -5 -47 -8 -73 -8c-126 0 -224 71 -224 231c0 184 125 269 250 269zM255 419c-40 0 -72 -35 -77 -137l126 11c3 12 5 28 5 46c0 34 -5 80 -54 80z" />
    <glyph glyph-name="Ecaron" unicode="&#x11a;" horiz-adv-x="584" 
d="M527 -2c0 0 -184 4 -326 4c-68 0 -170 -4 -170 -4c-2 6 -3 11 -3 16c0 28 28 41 28 41l64 16v519l-89 14c-2 5 -3 11 -3 16c0 28 28 41 28 41s77 -2 145 -2c192 0 321 1 321 1c7 -49 9 -112 9 -158v-23c-7 -8 -18 -12 -32 -12c-10 0 -20 2 -29 6c-5 28 -13 73 -29 106
l-175 4v-211l193 8v-6c0 -47 -33 -78 -33 -78h-160v-217l183 4c14 30 21 71 28 113c7 4 16 8 29 8c15 0 25 -6 31 -10v-16c0 -49 -4 -124 -10 -180zM439 871l36 -32l-129 -124h-93c-18 49 -58 88 -108 111l43 38c50 -6 116 -40 141 -71z" />
    <glyph glyph-name="ecaron" unicode="&#x11b;" horiz-adv-x="490" 
d="M276 490c114 0 177 -71 177 -166c0 -39 -6 -77 -13 -99l-262 -2c5 -103 47 -145 136 -145c40 0 89 10 120 23l18 -50c-18 -13 -94 -61 -202 -61c-126 0 -224 71 -224 231c0 184 125 269 250 269zM255 419c-40 0 -72 -35 -77 -137l126 11c3 12 5 28 5 46
c0 34 -5 80 -54 80zM370 741l40 -28l-103 -152l-83 -28l-18 12c-22 58 -53 120 -93 159l46 34c42 -17 88 -62 114 -101z" />
    <glyph glyph-name="Gcircumflex" unicode="&#x11c;" horiz-adv-x="740" 
d="M421 77c43 0 83 6 108 14v151l-94 14c-2 6 -3 11 -3 16c0 28 28 41 28 41s63 -2 127 -2c51 0 140 2 140 2s-1 -39 -23 -57c0 0 -30 -8 -47 -14v-172c-21 -16 -131 -80 -272 -80c-253 0 -347 156 -347 314c0 255 197 366 396 366c84 0 168 -16 208 -32
c8 -51 10 -100 10 -148c0 -19 0 -38 -1 -50c-9 -7 -19 -11 -31 -11c-10 0 -20 3 -30 8c-5 34 -15 85 -33 124c-29 13 -76 28 -139 28c-139 0 -217 -63 -217 -247c0 -157 72 -265 220 -265zM285 707l-36 32l129 124h93c18 -49 58 -88 108 -111l-43 -38c-50 6 -116 40 -141 71
z" />
    <glyph glyph-name="gcircumflex" unicode="&#x11d;" horiz-adv-x="530" 
d="M204 -250c-99 0 -205 22 -205 96c0 57 67 99 106 122c-33 13 -56 35 -56 71c0 43 51 76 90 99c-66 25 -108 79 -108 155c0 124 113 197 221 197c38 0 71 -6 99 -18l191 9c-1 -41 -19 -71 -34 -83c-30 0 -62 12 -82 18c18 -24 32 -58 32 -98c0 -124 -112 -197 -220 -197
c-20 0 -37 1 -55 4c-6 -9 -10 -21 -10 -32c0 -21 9 -31 52 -32l124 -2c129 -2 169 -44 169 -110c0 -112 -141 -199 -314 -199zM295 -47l-98 1c-17 0 -34 1 -49 4c-9 -15 -12 -31 -12 -55c0 -54 31 -85 116 -85c92 0 129 44 129 86c0 30 -16 48 -86 49zM172 316
c0 -56 17 -126 77 -126c41 0 68 32 68 104c0 56 -17 127 -77 127c-41 0 -68 -33 -68 -105zM141 529l-40 28l103 152l83 28l18 -12c22 -58 53 -120 93 -159l-46 -34c-42 17 -88 62 -114 101z" />
    <glyph glyph-name="Gbreve" unicode="&#x11e;" horiz-adv-x="740" 
d="M421 77c43 0 83 6 108 14v151l-94 14c-2 6 -3 11 -3 16c0 28 28 41 28 41s63 -2 127 -2c51 0 140 2 140 2s-1 -39 -23 -57c0 0 -30 -8 -47 -14v-172c-21 -16 -131 -80 -272 -80c-253 0 -347 156 -347 314c0 255 197 366 396 366c84 0 168 -16 208 -32
c8 -51 10 -100 10 -148c0 -19 0 -38 -1 -50c-9 -7 -19 -11 -31 -11c-10 0 -20 3 -30 8c-5 34 -15 85 -33 124c-29 13 -76 28 -139 28c-139 0 -217 -63 -217 -247c0 -157 72 -265 220 -265zM424 718c-94 0 -133 80 -146 115l39 31c29 -39 65 -54 107 -54s79 15 107 54l39 -31
c-13 -35 -52 -115 -146 -115z" />
    <glyph glyph-name="gbreve" unicode="&#x11f;" horiz-adv-x="530" 
d="M204 -250c-99 0 -205 22 -205 96c0 57 67 99 106 122c-33 13 -56 35 -56 71c0 43 51 76 90 99c-66 25 -108 79 -108 155c0 124 113 197 221 197c38 0 71 -6 99 -18l191 9c-1 -41 -19 -71 -34 -83c-30 0 -62 12 -82 18c18 -24 32 -58 32 -98c0 -124 -112 -197 -220 -197
c-20 0 -37 1 -55 4c-6 -9 -10 -21 -10 -32c0 -21 9 -31 52 -32l124 -2c129 -2 169 -44 169 -110c0 -112 -141 -199 -314 -199zM295 -47l-98 1c-17 0 -34 1 -49 4c-9 -15 -12 -31 -12 -55c0 -54 31 -85 116 -85c92 0 129 44 129 86c0 30 -16 48 -86 49zM172 316
c0 -56 17 -126 77 -126c41 0 68 32 68 104c0 56 -17 127 -77 127c-41 0 -68 -33 -68 -105zM243 568c-92 0 -129 85 -142 122l37 36c29 -39 67 -66 110 -66c50 0 85 35 108 66l37 -36c-11 -33 -55 -122 -150 -122z" />
    <glyph glyph-name="Gdotaccent" unicode="&#x120;" horiz-adv-x="740" 
d="M421 77c43 0 83 6 108 14v151l-94 14c-2 6 -3 11 -3 16c0 28 28 41 28 41s63 -2 127 -2c51 0 140 2 140 2s-1 -39 -23 -57c0 0 -30 -8 -47 -14v-172c-21 -16 -131 -80 -272 -80c-253 0 -347 156 -347 314c0 255 197 366 396 366c84 0 168 -16 208 -32
c8 -51 10 -100 10 -148c0 -19 0 -38 -1 -50c-9 -7 -19 -11 -31 -11c-10 0 -20 3 -30 8c-5 34 -15 85 -33 124c-29 13 -76 28 -139 28c-139 0 -217 -63 -217 -247c0 -157 72 -265 220 -265zM348 791c0 40 29 73 72 73s72 -33 72 -73s-30 -73 -72 -73s-72 33 -72 73z" />
    <glyph glyph-name="gdotaccent" unicode="&#x121;" horiz-adv-x="530" 
d="M204 -250c-99 0 -205 22 -205 96c0 57 67 99 106 122c-33 13 -56 35 -56 71c0 43 51 76 90 99c-66 25 -108 79 -108 155c0 124 113 197 221 197c38 0 71 -6 99 -18l191 9c-1 -41 -19 -71 -34 -83c-30 0 -62 12 -82 18c18 -24 32 -58 32 -98c0 -124 -112 -197 -220 -197
c-20 0 -37 1 -55 4c-6 -9 -10 -21 -10 -32c0 -21 9 -31 52 -32l124 -2c129 -2 169 -44 169 -110c0 -112 -141 -199 -314 -199zM295 -47l-98 1c-17 0 -34 1 -49 4c-9 -15 -12 -31 -12 -55c0 -54 31 -85 116 -85c92 0 129 44 129 86c0 30 -16 48 -86 49zM172 316
c0 -56 17 -126 77 -126c41 0 68 32 68 104c0 56 -17 127 -77 127c-41 0 -68 -33 -68 -105zM180 646c0 40 29 73 72 73s72 -33 72 -73s-30 -73 -72 -73s-72 33 -72 73z" />
    <glyph glyph-name="Gcommaaccent" unicode="&#x122;" horiz-adv-x="740" 
d="M421 77c43 0 83 6 108 14v151l-94 14c-2 6 -3 11 -3 16c0 28 28 41 28 41s63 -2 127 -2c51 0 140 2 140 2s-1 -39 -23 -57c0 0 -30 -8 -47 -14v-172c-21 -16 -131 -80 -272 -80c-253 0 -347 156 -347 314c0 255 197 366 396 366c84 0 168 -16 208 -32
c8 -51 10 -100 10 -148c0 -19 0 -38 -1 -50c-9 -7 -19 -11 -31 -11c-10 0 -20 3 -30 8c-5 34 -15 85 -33 124c-29 13 -76 28 -139 28c-139 0 -217 -63 -217 -247c0 -157 72 -265 220 -265zM318 -142c2 19 14 73 56 92c47 -5 76 -44 76 -84c0 -54 -41 -124 -64 -152l-37 17
c8 23 17 54 17 84c0 17 -35 38 -48 43z" />
    <glyph glyph-name="gcommaaccent" unicode="&#x123;" horiz-adv-x="530" 
d="M204 -250c-99 0 -205 22 -205 96c0 57 67 99 106 122c-33 13 -56 35 -56 71c0 43 51 76 90 99c-66 25 -108 79 -108 155c0 124 113 197 221 197c38 0 71 -6 99 -18l191 9c-1 -41 -19 -71 -34 -83c-30 0 -62 12 -82 18c18 -24 32 -58 32 -98c0 -124 -112 -197 -220 -197
c-20 0 -37 1 -55 4c-6 -9 -10 -21 -10 -32c0 -21 9 -31 52 -32l124 -2c129 -2 169 -44 169 -110c0 -112 -141 -199 -314 -199zM295 -47l-98 1c-17 0 -34 1 -49 4c-9 -15 -12 -31 -12 -55c0 -54 31 -85 116 -85c92 0 129 44 129 86c0 30 -16 48 -86 49zM172 316
c0 -56 17 -126 77 -126c41 0 68 32 68 104c0 56 -17 127 -77 127c-41 0 -68 -33 -68 -105zM312 625c-2 -19 -14 -73 -56 -92c-47 5 -76 44 -76 84c0 54 41 124 64 152l37 -17c-8 -23 -17 -54 -17 -84c0 -17 35 -38 48 -43z" />
    <glyph glyph-name="Hcircumflex" unicode="&#x124;" horiz-adv-x="807" 
d="M186 2c-47 0 -155 -4 -155 -4c-2 6 -3 11 -3 16c0 28 28 41 28 41l64 16v519l-89 14c-2 6 -3 11 -3 16c0 28 28 41 28 41s78 -2 139 -2c58 0 159 2 159 2s0 -33 -23 -57c0 0 -38 -8 -65 -14v-211h275v211l-89 14c-2 6 -3 11 -3 16c0 28 28 41 28 41s78 -2 139 -2
c58 0 159 2 159 2s-1 -35 -23 -57c0 0 -38 -8 -65 -14v-519c35 -7 88 -16 88 -16s-1 -36 -23 -57c0 0 -97 4 -145 4c-47 0 -155 -4 -155 -4c-2 6 -3 11 -3 16c0 28 28 41 28 41l64 16v233h-275v-233c35 -7 88 -16 88 -16s0 -32 -23 -57c0 0 -97 4 -145 4zM284 707l-36 32
l129 124h93c18 -49 58 -88 108 -111l-43 -38c-50 6 -116 40 -141 71z" />
    <glyph glyph-name="hcircumflex" unicode="&#x125;" horiz-adv-x="594" 
d="M445 2c-41 0 -120 -4 -120 -4c-2 5 -3 11 -3 15c0 26 28 39 28 39l26 12v221c0 81 -30 104 -90 104c-25 0 -50 -6 -66 -14v-311c27 -7 65 -12 65 -12s-1 -26 -24 -54c0 0 -76 4 -113 4c-41 0 -137 -4 -137 -4c-2 5 -3 11 -3 15c0 26 28 39 28 39l43 12v586
c-34 6 -75 13 -75 13c-1 4 -2 9 -2 13c0 26 26 39 26 39s99 7 192 15v-305c23 17 86 65 156 65c118 0 141 -89 141 -177v-249c29 -7 73 -12 73 -12s-1 -26 -24 -54c0 0 -82 4 -121 4zM38 757l-36 32l129 124h93c18 -49 58 -88 108 -111l-43 -38c-50 6 -116 40 -141 71z" />
    <glyph glyph-name="Hbar" unicode="&#x126;" horiz-adv-x="807" 
d="M186 2c-47 0 -155 -4 -155 -4c-2 6 -3 11 -3 16c0 28 28 41 28 41l64 16v382h-87c-1 4 -2 13 -2 18c0 22 8 38 11 44h78v75l-89 14c-2 6 -3 11 -3 16c0 28 28 41 28 41s78 -2 139 -2c58 0 159 2 159 2s0 -33 -23 -57c0 0 -38 -8 -65 -14v-75h275v75l-89 14
c-2 6 -3 11 -3 16c0 28 28 41 28 41s78 -2 139 -2c58 0 159 2 159 2s-1 -35 -23 -57c0 0 -38 -8 -65 -14v-75h83c1 -5 2 -13 2 -19c0 -22 -7 -37 -11 -43h-74v-382c35 -7 88 -16 88 -16s-1 -36 -23 -57c0 0 -97 4 -145 4c-47 0 -155 -4 -155 -4c-2 6 -3 11 -3 16
c0 28 28 41 28 41l64 16v233h-275v-233c35 -7 88 -16 88 -16s0 -32 -23 -57c0 0 -97 4 -145 4zM266 379h275v74h-275v-74z" />
    <glyph glyph-name="hbar" unicode="&#x127;" horiz-adv-x="594" 
d="M445 2c-41 0 -120 -4 -120 -4c-2 5 -3 11 -3 15c0 26 28 39 28 39l26 12v221c0 81 -30 104 -90 104c-25 0 -50 -6 -66 -14v-311c27 -7 65 -12 65 -12s-1 -26 -24 -54c0 0 -76 4 -113 4c-41 0 -137 -4 -137 -4c-2 5 -3 11 -3 15c0 26 28 39 28 39l43 12v476h-71
c-1 4 -2 13 -2 18c0 22 8 38 11 44h62v48c-34 6 -75 13 -75 13c-1 4 -2 9 -2 13c0 26 26 39 26 39s99 7 192 15v-128h133c1 -5 2 -13 2 -19c0 -22 -7 -37 -11 -43h-124v-115c23 17 86 65 156 65c118 0 141 -89 141 -177v-249c29 -7 73 -12 73 -12s-1 -26 -24 -54
c0 0 -82 4 -121 4z" />
    <glyph glyph-name="Itilde" unicode="&#x128;" horiz-adv-x="386" 
d="M186 2c-47 0 -155 -4 -155 -4c-2 6 -3 11 -3 16c0 28 28 41 28 41l64 16v519l-89 14c-2 6 -3 11 -3 16c0 28 28 41 28 41s78 -2 139 -2c58 0 159 2 159 2s0 -33 -23 -57c0 0 -38 -8 -65 -14v-519c35 -7 88 -16 88 -16s0 -32 -23 -57c0 0 -97 4 -145 4zM269 812
c28 0 40 15 58 34l32 -24c-14 -43 -50 -101 -109 -101c-49 0 -71 49 -111 49c-30 0 -42 -15 -60 -34l-32 24c14 43 51 101 109 101c53 0 68 -49 113 -49z" />
    <glyph glyph-name="itilde" unicode="&#x129;" horiz-adv-x="311" 
d="M211 660c28 0 40 15 58 34l32 -24c-14 -43 -50 -101 -109 -101c-49 0 -71 49 -111 49c-30 0 -42 -15 -60 -34l-32 24c14 43 51 101 109 101c53 0 68 -49 113 -49zM234 64c29 -7 73 -12 73 -12s-1 -26 -24 -54c0 0 -82 4 -121 4c-41 0 -137 -4 -137 -4c-2 5 -3 11 -3 15
c0 26 28 39 28 39l43 12v343c-34 6 -80 13 -80 13c-1 3 -2 9 -2 13c0 26 26 39 26 39s104 7 197 15v-423z" />
    <glyph glyph-name="uni012A" unicode="&#x12a;" horiz-adv-x="386" 
d="M186 2c-47 0 -155 -4 -155 -4c-2 6 -3 11 -3 16c0 28 28 41 28 41l64 16v519l-89 14c-2 6 -3 11 -3 16c0 28 28 41 28 41s78 -2 139 -2c58 0 159 2 159 2s0 -33 -23 -57c0 0 -38 -8 -65 -14v-519c35 -7 88 -16 88 -16s0 -32 -23 -57c0 0 -97 4 -145 4zM62 827h279
c2 -7 2 -15 2 -22c0 -34 -14 -59 -14 -59h-279c-1 5 -2 14 -2 21c0 33 14 60 14 60z" />
    <glyph glyph-name="imacron" unicode="&#x12b;" horiz-adv-x="311" 
d="M272 596h-275c-2 7 -4 16 -4 25c0 20 6 41 16 54h275c2 -7 4 -16 4 -25c0 -20 -6 -41 -16 -54zM234 64c29 -7 73 -12 73 -12s-1 -26 -24 -54c0 0 -82 4 -121 4c-41 0 -137 -4 -137 -4c-2 5 -3 11 -3 15c0 26 28 39 28 39l43 12v343c-34 6 -80 13 -80 13c-1 3 -2 9 -2 13
c0 26 26 39 26 39s104 7 197 15v-423z" />
    <glyph glyph-name="Ibreve" unicode="&#x12c;" horiz-adv-x="386" 
d="M186 2c-47 0 -155 -4 -155 -4c-2 6 -3 11 -3 16c0 28 28 41 28 41l64 16v519l-89 14c-2 6 -3 11 -3 16c0 28 28 41 28 41s78 -2 139 -2c58 0 159 2 159 2s0 -33 -23 -57c0 0 -38 -8 -65 -14v-519c35 -7 88 -16 88 -16s0 -32 -23 -57c0 0 -97 4 -145 4zM191 718
c-94 0 -133 80 -146 115l39 31c29 -39 65 -54 107 -54s79 15 107 54l39 -31c-13 -35 -52 -115 -146 -115z" />
    <glyph glyph-name="uni012D" unicode="&#x12d;" horiz-adv-x="311" 
d="M141 568c-92 0 -129 85 -142 122l37 36c29 -39 67 -66 110 -66c50 0 85 35 108 66l37 -36c-11 -33 -55 -122 -150 -122zM234 64c29 -7 73 -12 73 -12s-1 -26 -24 -54c0 0 -82 4 -121 4c-41 0 -137 -4 -137 -4c-2 5 -3 11 -3 15c0 26 28 39 28 39l43 12v343
c-34 6 -80 13 -80 13c-1 3 -2 9 -2 13c0 26 26 39 26 39s104 7 197 15v-423z" />
    <glyph glyph-name="Iogonek" unicode="&#x12e;" horiz-adv-x="386" 
d="M186 2c-47 0 -155 -4 -155 -4c-2 6 -3 11 -3 16c0 28 28 41 28 41l64 16v519l-89 14c-2 6 -3 11 -3 16c0 28 28 41 28 41s78 -2 139 -2c58 0 159 2 159 2s0 -33 -23 -57c0 0 -38 -8 -65 -14v-519c35 -7 88 -16 88 -16s0 -32 -23 -57c0 0 -30 2 -63 2
c-69 -40 -100 -78 -100 -132c0 -30 16 -45 48 -45c26 0 50 7 78 25l13 -31c-31 -35 -86 -65 -147 -65c-72 0 -119 32 -119 87c0 87 87 132 170 163h-25z" />
    <glyph glyph-name="iogonek" unicode="&#x12f;" horiz-adv-x="311" 
d="M234 64c29 -7 73 -12 73 -12s-1 -26 -24 -54c-64 -36 -116 -72 -116 -130c0 -30 16 -45 48 -45c26 0 50 7 78 25l13 -31c-31 -35 -86 -65 -147 -65c-74 0 -119 32 -119 87c0 85 92 129 183 161c-24 1 -45 2 -61 2c-41 0 -137 -4 -137 -4c-2 5 -3 11 -3 15
c0 26 28 39 28 39l43 12v343c-34 6 -80 13 -80 13c-1 3 -2 9 -2 13c0 26 26 39 26 39s104 7 197 15v-423zM70 648c0 45 38 82 84 82c50 0 83 -38 83 -82c0 -47 -38 -85 -85 -85c-51 0 -82 40 -82 85z" />
    <glyph glyph-name="Idotaccent" unicode="&#x130;" horiz-adv-x="386" 
d="M186 2c-47 0 -155 -4 -155 -4c-2 6 -3 11 -3 16c0 28 28 41 28 41l64 16v519l-89 14c-2 6 -3 11 -3 16c0 28 28 41 28 41s78 -2 139 -2c58 0 159 2 159 2s0 -33 -23 -57c0 0 -38 -8 -65 -14v-519c35 -7 88 -16 88 -16s0 -32 -23 -57c0 0 -97 4 -145 4zM124 791
c0 40 29 73 72 73s72 -33 72 -73s-30 -73 -72 -73s-72 33 -72 73z" />
    <glyph glyph-name="dotlessi" unicode="&#x131;" horiz-adv-x="311" 
d="M234 64c29 -7 73 -12 73 -12s-1 -26 -24 -54c0 0 -82 4 -121 4c-41 0 -137 -4 -137 -4c-2 5 -3 11 -3 15c0 26 28 39 28 39l43 12v343c-34 6 -80 13 -80 13c-1 3 -2 9 -2 13c0 26 26 39 26 39s104 7 197 15v-423z" />
    <glyph glyph-name="IJ" unicode="&#x132;" horiz-adv-x="769" 
d="M186 2c-47 0 -155 -4 -155 -4c-2 6 -3 11 -3 16c0 28 28 41 28 41l64 16v519l-89 14c-2 6 -3 11 -3 16c0 28 28 41 28 41s78 -2 139 -2c58 0 159 2 159 2s0 -33 -23 -57c0 0 -38 -8 -65 -14v-519c35 -7 88 -16 88 -16s0 -32 -23 -57c0 0 -97 4 -145 4zM652 590v-453
c0 -166 -52 -252 -228 -336l-30 54c99 68 112 135 112 302v433l-89 14c-2 6 -3 11 -3 16c0 28 28 41 28 41s78 -2 139 -2c58 0 159 2 159 2s-1 -34 -23 -57c0 0 -38 -8 -65 -14z" />
    <glyph glyph-name="ij" unicode="&#x133;" horiz-adv-x="605" 
d="M234 64c29 -7 73 -12 73 -12s-1 -26 -24 -54c0 0 -82 4 -121 4c-41 0 -137 -4 -137 -4c-2 5 -3 11 -3 15c0 26 28 39 28 39l43 12v343c-34 6 -80 13 -80 13c-1 3 -2 9 -2 13c0 26 26 39 26 39s104 7 197 15v-423zM69 648c0 45 38 82 84 82c50 0 83 -38 83 -82
c0 -47 -38 -85 -85 -85c-51 0 -82 40 -82 85zM377 648c0 45 38 82 84 82c50 0 83 -38 83 -82c0 -47 -38 -85 -85 -85c-51 0 -82 40 -82 85zM259 -150c56 13 90 35 114 65s28 77 28 175v317c-34 6 -80 13 -80 13c-1 3 -2 9 -2 13c0 26 26 39 26 39s104 7 197 15v-332
c0 -65 -8 -145 -49 -239c-29 -67 -86 -138 -124 -161c-63 1 -105 38 -110 95z" />
    <glyph glyph-name="Jcircumflex" unicode="&#x134;" horiz-adv-x="383" 
d="M266 590v-453c0 -166 -52 -252 -228 -336l-30 54c99 68 112 135 112 302v433l-89 14c-2 6 -3 11 -3 16c0 28 28 41 28 41s78 -2 139 -2c58 0 159 2 159 2s-1 -34 -23 -57c0 0 -38 -8 -65 -14zM71 707l-36 32l129 124h93c18 -49 58 -88 108 -111l-43 -38
c-50 6 -116 40 -141 71z" />
    <glyph glyph-name="jcircumflex" unicode="&#x135;" horiz-adv-x="297" 
d="M-49 -150c56 13 90 35 114 65s28 77 28 175v317c-34 6 -80 13 -80 13c-1 3 -2 9 -2 13c0 26 26 39 26 39s104 7 197 15v-332c0 -65 -8 -145 -49 -239c-29 -67 -86 -138 -124 -161c-63 1 -105 38 -110 95zM36 529l-40 28l103 152l83 28l18 -12c22 -58 53 -120 93 -159
l-46 -34c-42 17 -88 62 -114 101z" />
    <glyph glyph-name="Kcommaaccent" unicode="&#x136;" horiz-adv-x="712" 
d="M120 71v519l-89 14c-2 6 -3 11 -3 16c0 28 28 41 28 41s78 -2 139 -2c58 0 159 2 159 2s0 -34 -23 -57c0 0 -38 -8 -65 -14v-519c35 -8 88 -16 88 -16s0 -35 -23 -57c0 0 -97 4 -145 4c-47 0 -155 -4 -155 -4c-2 6 -3 11 -3 16c0 28 28 41 28 41zM621 590l-185 -221
s40 -49 65 -85l105 -147c42 -59 72 -83 124 -94v-43c-32 -3 -58 -4 -91 -4c-92 0 -130 25 -186 106l-162 235l208 253l-72 14c-2 6 -3 11 -3 16c0 28 28 41 28 41s64 -2 125 -2c58 0 132 2 132 2s0 -35 -23 -57c0 0 -38 -8 -65 -14zM350 -130c2 19 14 73 56 92
c47 -5 76 -44 76 -84c0 -54 -41 -124 -64 -152l-37 17c8 23 17 54 17 84c0 17 -35 38 -48 43z" />
    <glyph glyph-name="kcommaaccent" unicode="&#x137;" horiz-adv-x="597" 
d="M79 64v586c-34 6 -75 13 -75 13c-1 3 -2 9 -2 13c0 26 26 39 26 39s99 7 192 15v-666c27 -7 65 -12 65 -12s-3 -26 -26 -54c0 0 -74 4 -111 4c-41 0 -137 -4 -137 -4c-2 5 -3 11 -3 15c0 26 28 39 28 39zM500 412l-117 -138c14 -16 40 -47 62 -78l94 -132
c29 -6 72 -12 72 -12s-4 -26 -26 -52h-171l-175 248l140 164c-21 5 -50 10 -50 10c-2 5 -3 11 -3 15c0 26 28 39 28 39s60 -1 107 -1s120 1 120 1s-3 -26 -26 -54c0 0 -33 -5 -55 -10zM249 -130c2 19 14 73 56 92c47 -5 76 -44 76 -84c0 -54 -41 -124 -64 -152l-37 17
c8 23 17 54 17 84c0 17 -35 38 -48 43z" />
    <glyph glyph-name="kgreenlandic" unicode="&#x138;" horiz-adv-x="611" 
d="M234 487v-423c27 -7 65 -12 65 -12s-3 -26 -26 -54c0 0 -74 4 -111 4c-41 0 -137 -4 -137 -4c-2 5 -3 11 -3 15c0 26 28 39 28 39l43 12v343c-34 6 -80 13 -80 13c-1 3 -2 9 -2 13c0 26 26 39 26 39s104 7 197 15zM514 412l-117 -138c14 -16 40 -47 62 -78l94 -132
c29 -6 72 -12 72 -12s-4 -26 -26 -52h-171l-175 248l140 164c-21 5 -50 10 -50 10c-2 5 -3 11 -3 15c0 26 28 39 28 39s60 -1 107 -1s120 1 120 1s-3 -26 -26 -54c0 0 -33 -5 -55 -10z" />
    <glyph glyph-name="Lacute" unicode="&#x139;" horiz-adv-x="555" 
d="M532 -2c0 0 -189 4 -331 4c-65 0 -170 -4 -170 -4c-2 6 -3 11 -3 16c0 28 28 41 28 41l64 16v519l-89 14c-2 6 -3 11 -3 16c0 28 28 41 28 41s78 -2 139 -2c62 0 169 2 169 2s0 -37 -23 -57c0 0 -44 -8 -75 -14v-511l186 4c15 32 23 82 28 119c7 4 18 8 31 8
c15 0 25 -6 31 -10v-16c0 -50 -4 -128 -10 -186zM298 791c-18 -47 -109 -76 -175 -76h-12l-11 32c63 37 91 82 120 143c48 -13 80 -42 80 -82c0 -5 -1 -11 -2 -17z" />
    <glyph glyph-name="lacute" unicode="&#x13a;" horiz-adv-x="297" 
d="M220 64c29 -7 73 -12 73 -12s-3 -26 -26 -54c0 0 -80 4 -119 4c-41 0 -137 -4 -137 -4c-2 5 -3 11 -3 15c0 26 28 39 28 39l43 12v586c-34 6 -75 13 -75 13c-1 3 -2 9 -2 13c0 26 26 39 26 39s99 7 192 15v-666zM230 841c-18 -47 -109 -76 -175 -76h-12l-11 32
c63 37 91 82 120 143c48 -13 80 -42 80 -82c0 -5 -1 -11 -2 -17z" />
    <glyph glyph-name="Lcommaaccent" unicode="&#x13b;" horiz-adv-x="555" 
d="M532 -2c0 0 -189 4 -331 4c-65 0 -170 -4 -170 -4c-2 6 -3 11 -3 16c0 28 28 41 28 41l64 16v519l-89 14c-2 6 -3 11 -3 16c0 28 28 41 28 41s78 -2 139 -2c62 0 169 2 169 2s0 -37 -23 -57c0 0 -44 -8 -75 -14v-511l186 4c15 32 23 82 28 119c7 4 18 8 31 8
c15 0 25 -6 31 -10v-16c0 -50 -4 -128 -10 -186zM238 -130c2 19 14 73 56 92c47 -5 76 -44 76 -84c0 -54 -41 -124 -64 -152l-37 17c8 23 17 54 17 84c0 17 -35 38 -48 43z" />
    <glyph glyph-name="lcommaaccent" unicode="&#x13c;" horiz-adv-x="297" 
d="M220 64c29 -7 73 -12 73 -12s-3 -26 -26 -54c0 0 -80 4 -119 4c-41 0 -137 -4 -137 -4c-2 5 -3 11 -3 15c0 26 28 39 28 39l43 12v586c-34 6 -75 13 -75 13c-1 3 -2 9 -2 13c0 26 26 39 26 39s99 7 192 15v-666zM79 -130c2 19 14 73 56 92c47 -5 76 -44 76 -84
c0 -54 -41 -124 -64 -152l-37 17c8 23 17 54 17 84c0 17 -35 38 -48 43z" />
    <glyph glyph-name="Lcaron" unicode="&#x13d;" horiz-adv-x="555" 
d="M532 -2c0 0 -189 4 -331 4c-65 0 -170 -4 -170 -4c-2 6 -3 11 -3 16c0 28 28 41 28 41l64 16v519l-89 14c-2 6 -3 11 -3 16c0 28 28 41 28 41s78 -2 139 -2c62 0 169 2 169 2s0 -37 -23 -57c0 0 -44 -8 -75 -14v-511l186 4c15 32 23 82 28 119c7 4 18 8 31 8
c15 0 25 -6 31 -10v-16c0 -50 -4 -128 -10 -186zM410 664c2 19 14 73 56 92c47 -5 76 -44 76 -84c0 -54 -41 -124 -64 -152l-37 17c8 23 17 54 17 84c0 17 -35 38 -48 43z" />
    <glyph glyph-name="lcaron" unicode="&#x13e;" horiz-adv-x="421" 
d="M220 64c29 -7 73 -12 73 -12s-3 -26 -26 -54c0 0 -80 4 -119 4c-41 0 -137 -4 -137 -4c-2 5 -3 11 -3 15c0 26 28 39 28 39l43 12v586c-34 6 -75 13 -75 13c-1 3 -2 9 -2 13c0 26 26 39 26 39s99 7 192 15v-666zM271 664c2 19 14 73 56 92c47 -5 76 -44 76 -84
c0 -54 -41 -124 -64 -152l-37 17c8 23 17 54 17 84c0 17 -35 38 -48 43z" />
    <glyph glyph-name="Ldot" unicode="&#x13f;" horiz-adv-x="555" 
d="M532 -2c0 0 -189 4 -331 4c-65 0 -170 -4 -170 -4c-2 6 -3 11 -3 16c0 28 28 41 28 41l64 16v519l-89 14c-2 6 -3 11 -3 16c0 28 28 41 28 41s78 -2 139 -2c62 0 169 2 169 2s0 -37 -23 -57c0 0 -44 -8 -75 -14v-511l186 4c15 32 23 82 28 119c7 4 18 8 31 8
c15 0 25 -6 31 -10v-16c0 -50 -4 -128 -10 -186zM335 333c0 45 32 81 80 81s83 -35 83 -80c0 -48 -35 -85 -83 -85s-80 36 -80 84z" />
    <glyph glyph-name="ldot" unicode="&#x140;" horiz-adv-x="399" 
d="M220 64c29 -7 73 -12 73 -12s-3 -26 -26 -54c0 0 -80 4 -119 4c-41 0 -137 -4 -137 -4c-2 5 -3 11 -3 15c0 26 28 39 28 39l43 12v586c-34 6 -75 13 -75 13c-1 3 -2 9 -2 13c0 26 26 39 26 39s99 7 192 15v-666zM269 333c0 45 32 81 80 81s83 -35 83 -80
c0 -48 -35 -85 -83 -85s-80 36 -80 84z" />
    <glyph glyph-name="Lslash" unicode="&#x141;" horiz-adv-x="555" 
d="M532 -2c0 0 -189 4 -331 4c-65 0 -170 -4 -170 -4c-2 6 -3 11 -3 16c0 28 28 41 28 41l64 16v198l-71 -24c-10 11 -15 30 -15 48c0 8 1 15 3 21l83 28v248l-89 14c-2 6 -3 11 -3 16c0 28 28 41 28 41s78 -2 139 -2c62 0 169 2 169 2s0 -37 -23 -57c0 0 -44 -8 -75 -14
v-198l112 38c11 -10 17 -30 17 -48c0 -7 -1 -14 -3 -20l-126 -43v-240l186 4c15 32 23 82 28 119c7 4 18 8 31 8c15 0 25 -6 31 -10v-16c0 -50 -4 -128 -10 -186z" />
    <glyph glyph-name="lslash" unicode="&#x142;" horiz-adv-x="297" 
d="M220 64c29 -7 73 -12 73 -12s-3 -26 -26 -54c0 0 -80 4 -119 4c-41 0 -137 -4 -137 -4c-2 5 -3 11 -3 15c0 26 28 39 28 39l43 12v263l-59 -21c-9 10 -15 29 -15 47c0 6 0 11 2 17l72 25v255c-34 6 -75 13 -75 13c-1 3 -2 9 -2 13c0 26 26 39 26 39s99 7 192 15v-286
l73 25c9 -9 14 -27 14 -44c0 -7 -1 -14 -3 -20l-84 -29v-312z" />
    <glyph glyph-name="Nacute" unicode="&#x143;" horiz-adv-x="776" 
d="M220 71c39 -7 98 -16 98 -16s0 -35 -23 -57c0 0 -71 4 -123 4c-47 0 -145 -4 -145 -4c-2 6 -3 11 -3 16c0 28 28 41 28 41l64 16l6 519l-89 14c-2 6 -3 11 -3 16c0 28 28 40 28 40h189l325 -433l-5 363l-89 14c-2 6 -3 11 -3 16c0 28 28 41 28 41s56 -2 117 -2
c60 0 137 2 137 2s-1 -35 -23 -57c0 0 -38 -8 -65 -14l-6 -590h-94l-355 473zM514 791c-18 -47 -109 -76 -175 -76h-12l-11 32c63 37 91 82 120 143c48 -13 80 -42 80 -82c0 -5 -1 -11 -2 -17z" />
    <glyph glyph-name="nacute" unicode="&#x144;" horiz-adv-x="608" 
d="M93 64v343c-34 6 -80 13 -80 13c-1 3 -2 9 -2 13c0 26 26 39 26 39s104 7 190 15c0 -25 2 -65 2 -65c18 12 86 68 161 68c118 0 141 -89 141 -177v-249c29 -7 73 -12 73 -12s-1 -26 -24 -54c0 0 -82 4 -121 4c-41 0 -120 -4 -120 -4c-2 5 -3 11 -3 15c0 26 28 39 28 39
l26 12v221c0 81 -30 104 -90 104c-25 0 -50 -6 -66 -14v-311c26 -7 66 -12 66 -12s-1 -26 -24 -54c0 0 -79 4 -116 4c-41 0 -135 -4 -135 -4c-2 5 -3 11 -3 15c0 26 28 39 28 39zM434 664c-7 -58 -95 -107 -162 -122l-19 28c50 53 65 104 76 170c56 0 97 -21 105 -76z" />
    <glyph glyph-name="Ncommaaccent" unicode="&#x145;" horiz-adv-x="776" 
d="M220 71c39 -7 98 -16 98 -16s0 -35 -23 -57c0 0 -71 4 -123 4c-47 0 -145 -4 -145 -4c-2 6 -3 11 -3 16c0 28 28 41 28 41l64 16l6 519l-89 14c-2 6 -3 11 -3 16c0 28 28 40 28 40h189l325 -433l-5 363l-89 14c-2 6 -3 11 -3 16c0 28 28 41 28 41s56 -2 117 -2
c60 0 137 2 137 2s-1 -35 -23 -57c0 0 -38 -8 -65 -14l-6 -590h-94l-355 473zM353 -130c2 19 14 73 56 92c47 -5 76 -44 76 -84c0 -54 -41 -124 -64 -152l-37 17c8 23 17 54 17 84c0 17 -35 38 -48 43z" />
    <glyph glyph-name="ncommaaccent" unicode="&#x146;" horiz-adv-x="608" 
d="M93 64v343c-34 6 -80 13 -80 13c-1 3 -2 9 -2 13c0 26 26 39 26 39s104 7 190 15c0 -25 2 -65 2 -65c18 12 86 68 161 68c118 0 141 -89 141 -177v-249c29 -7 73 -12 73 -12s-1 -26 -24 -54c0 0 -82 4 -121 4c-41 0 -120 -4 -120 -4c-2 5 -3 11 -3 15c0 26 28 39 28 39
l26 12v221c0 81 -30 104 -90 104c-25 0 -50 -6 -66 -14v-311c26 -7 66 -12 66 -12s-1 -26 -24 -54c0 0 -79 4 -116 4c-41 0 -135 -4 -135 -4c-2 5 -3 11 -3 15c0 26 28 39 28 39zM239 -130c2 19 14 73 56 92c47 -5 76 -44 76 -84c0 -54 -41 -124 -64 -152l-37 17
c8 23 17 54 17 84c0 17 -35 38 -48 43z" />
    <glyph glyph-name="Ncaron" unicode="&#x147;" horiz-adv-x="776" 
d="M220 71c39 -7 98 -16 98 -16s0 -35 -23 -57c0 0 -71 4 -123 4c-47 0 -145 -4 -145 -4c-2 6 -3 11 -3 16c0 28 28 41 28 41l64 16l6 519l-89 14c-2 6 -3 11 -3 16c0 28 28 40 28 40h189l325 -433l-5 363l-89 14c-2 6 -3 11 -3 16c0 28 28 41 28 41s56 -2 117 -2
c60 0 137 2 137 2s-1 -35 -23 -57c0 0 -38 -8 -65 -14l-6 -590h-94l-355 473zM527 871l36 -32l-129 -124h-93c-18 49 -58 88 -108 111l43 38c50 -6 116 -40 141 -71z" />
    <glyph glyph-name="ncaron" unicode="&#x148;" horiz-adv-x="608" 
d="M93 64v343c-34 6 -80 13 -80 13c-1 3 -2 9 -2 13c0 26 26 39 26 39s104 7 190 15c0 -25 2 -65 2 -65c18 12 86 68 161 68c118 0 141 -89 141 -177v-249c29 -7 73 -12 73 -12s-1 -26 -24 -54c0 0 -82 4 -121 4c-41 0 -120 -4 -120 -4c-2 5 -3 11 -3 15c0 26 28 39 28 39
l26 12v221c0 81 -30 104 -90 104c-25 0 -50 -6 -66 -14v-311c26 -7 66 -12 66 -12s-1 -26 -24 -54c0 0 -79 4 -116 4c-41 0 -135 -4 -135 -4c-2 5 -3 11 -3 15c0 26 28 39 28 39zM417 741l40 -28l-103 -152l-83 -28l-18 12c-22 58 -53 120 -93 159l46 34
c42 -17 88 -62 114 -101z" />
    <glyph glyph-name="napostrophe" unicode="&#x149;" horiz-adv-x="608" 
d="M93 64v343c-34 6 -80 13 -80 13c-1 3 -2 9 -2 13c0 26 26 39 26 39s104 7 190 15c0 -25 2 -65 2 -65c18 12 86 68 161 68c118 0 141 -89 141 -177v-249c29 -7 73 -12 73 -12s-1 -26 -24 -54c0 0 -82 4 -121 4c-41 0 -120 -4 -120 -4c-2 5 -3 11 -3 15c0 26 28 39 28 39
l26 12v221c0 81 -30 104 -90 104c-25 0 -50 -6 -66 -14v-311c26 -7 66 -12 66 -12s-1 -26 -24 -54c0 0 -79 4 -116 4c-41 0 -135 -4 -135 -4c-2 5 -3 11 -3 15c0 26 28 39 28 39zM-16 664c2 19 14 73 56 92c47 -5 76 -44 76 -84c0 -54 -41 -124 -64 -152l-37 17
c8 23 17 54 17 84c0 17 -35 38 -48 43z" />
    <glyph glyph-name="Eng" unicode="&#x14a;" horiz-adv-x="780" 
d="M220 71c39 -7 98 -16 98 -16s0 -35 -23 -57c0 0 -71 4 -123 4c-47 0 -145 -4 -145 -4c-2 6 -3 11 -3 16c0 28 28 41 28 41l64 16l6 519l-89 14c-2 6 -3 11 -3 16c0 28 28 40 28 40h189l325 -433l-5 363l-89 14c-2 6 -3 11 -3 16c0 28 28 41 28 41s56 -2 117 -2
c60 0 137 2 137 2s-1 -35 -23 -57c0 0 -38 -8 -65 -14l-4 -453c-2 -171 -43 -254 -197 -336l-30 54c64 45 102 88 120 159l-344 459z" />
    <glyph glyph-name="eng" unicode="&#x14b;" horiz-adv-x="592" 
d="M248 -150c56 13 90 35 114 65s28 77 28 175v195c0 81 -30 104 -90 104c-25 0 -50 -6 -66 -14v-311c26 -7 66 -12 66 -12s-1 -26 -24 -54c0 0 -79 4 -116 4c-41 0 -135 -4 -135 -4c-2 5 -3 11 -3 15c0 26 28 39 28 39l43 12v343c-34 6 -80 13 -80 13c-1 3 -2 9 -2 13
c0 26 26 39 26 39s104 7 190 15c0 -25 2 -65 2 -65c18 12 86 68 161 68c118 0 141 -89 141 -177v-158c0 -65 -8 -145 -49 -239c-29 -67 -86 -138 -124 -161c-63 1 -105 38 -110 95z" />
    <glyph glyph-name="Omacron" unicode="&#x14c;" horiz-adv-x="748" 
d="M364 -10c-207 0 -326 132 -326 316c0 248 182 364 347 364c207 0 326 -132 326 -316c0 -248 -182 -364 -347 -364zM202 347c0 -166 62 -279 179 -279c95 0 166 59 166 245c0 166 -62 279 -179 279c-95 0 -166 -59 -166 -245zM239 827h279c2 -7 2 -15 2 -22
c0 -34 -14 -59 -14 -59h-279c-1 5 -2 14 -2 21c0 33 14 60 14 60z" />
    <glyph glyph-name="omacron" unicode="&#x14d;" horiz-adv-x="541" 
d="M263 -10c-124 0 -237 61 -237 231c0 184 131 269 253 269c124 0 237 -61 237 -231c0 -186 -131 -269 -253 -269zM181 251c0 -107 27 -186 95 -186c52 0 85 41 85 164c0 107 -27 186 -95 186c-52 0 -85 -37 -85 -164zM405 596h-275c-2 7 -4 16 -4 25c0 20 6 41 16 54h275
c2 -7 4 -16 4 -25c0 -20 -6 -41 -16 -54z" />
    <glyph glyph-name="Obreve" unicode="&#x14e;" horiz-adv-x="748" 
d="M364 -10c-207 0 -326 132 -326 316c0 248 182 364 347 364c207 0 326 -132 326 -316c0 -248 -182 -364 -347 -364zM202 347c0 -166 62 -279 179 -279c95 0 166 59 166 245c0 166 -62 279 -179 279c-95 0 -166 -59 -166 -245zM385 718c-94 0 -133 80 -146 115l39 31
c29 -39 65 -54 107 -54s79 15 107 54l39 -31c-13 -35 -52 -115 -146 -115z" />
    <glyph glyph-name="obreve" unicode="&#x14f;" horiz-adv-x="541" 
d="M263 -10c-124 0 -237 61 -237 231c0 184 131 269 253 269c124 0 237 -61 237 -231c0 -186 -131 -269 -253 -269zM181 251c0 -107 27 -186 95 -186c52 0 85 41 85 164c0 107 -27 186 -95 186c-52 0 -85 -37 -85 -164zM270 568c-92 0 -129 85 -142 122l37 36
c29 -39 67 -66 110 -66c50 0 85 35 108 66l37 -36c-11 -33 -55 -122 -150 -122z" />
    <glyph glyph-name="Ohungarumlaut" unicode="&#x150;" horiz-adv-x="748" 
d="M364 -10c-207 0 -326 132 -326 316c0 248 182 364 347 364c207 0 326 -132 326 -316c0 -248 -182 -364 -347 -364zM202 347c0 -166 62 -279 179 -279c95 0 166 59 166 245c0 166 -62 279 -179 279c-95 0 -166 -59 -166 -245zM374 791c-18 -47 -108 -75 -174 -75h-12
l-11 31c63 36 92 81 120 143c48 -13 79 -43 79 -82c0 -6 -1 -12 -2 -17zM578 791c-18 -47 -108 -75 -174 -75h-12l-11 31c63 36 92 81 120 143c48 -13 79 -43 79 -82c0 -6 -1 -12 -2 -17z" />
    <glyph glyph-name="ohungarumlaut" unicode="&#x151;" horiz-adv-x="541" 
d="M263 -10c-124 0 -237 61 -237 231c0 184 131 269 253 269c124 0 237 -61 237 -231c0 -186 -131 -269 -253 -269zM181 251c0 -107 27 -186 95 -186c52 0 85 41 85 164c0 107 -27 186 -95 186c-52 0 -85 -37 -85 -164zM460 664c-7 -57 -96 -106 -161 -121l-18 27
c50 53 65 104 76 170c56 0 96 -23 103 -76zM283 664c-7 -57 -96 -106 -161 -121l-18 27c50 53 65 104 76 170c56 0 96 -23 103 -76z" />
    <glyph glyph-name="OE" unicode="&#x152;" horiz-adv-x="926" 
d="M544 659c192 0 321 1 321 1c7 -49 9 -112 9 -158v-23c-7 -8 -18 -12 -32 -12c-10 0 -20 2 -29 6c-5 28 -13 73 -29 106l-175 4v-211l193 8v-6c0 -47 -33 -78 -33 -78h-160v-217l183 4c14 30 21 71 28 113c7 4 16 8 29 8c15 0 25 -6 31 -10v-16c0 -49 -4 -124 -10 -180
c0 0 -187 4 -329 4h-44c-60 -11 -95 -14 -134 -14c-207 0 -326 131 -326 315c0 248 182 365 347 365c31 0 66 -4 94 -9h66zM201 344c0 -164 62 -275 179 -275c30 0 64 3 83 9v496c-20 6 -50 15 -82 15c-104 0 -180 -61 -180 -245z" />
    <glyph glyph-name="oe" unicode="&#x153;" horiz-adv-x="820" 
d="M262 -10c-124 0 -237 61 -237 231c0 184 131 269 253 269c64 0 126 -19 167 -70c44 48 103 70 162 70c114 0 177 -71 177 -166c0 -39 -6 -77 -13 -99l-263 -2c6 -104 48 -145 137 -145c40 0 89 10 120 23l18 -50c-18 -13 -94 -61 -202 -61c-64 0 -120 23 -157 69
c-42 -46 -101 -69 -162 -69zM180 251c0 -107 27 -186 95 -186c52 0 85 41 85 164c0 107 -27 186 -95 186c-52 0 -85 -37 -85 -164zM586 419c-40 0 -72 -35 -77 -137l126 11c3 12 5 28 5 46c0 34 -5 80 -54 80z" />
    <glyph glyph-name="Racute" unicode="&#x154;" horiz-adv-x="679" 
d="M186 2c-47 0 -155 -4 -155 -4c-2 6 -3 11 -3 16c0 28 28 41 28 41l64 16v519l-89 14c-2 6 -3 11 -3 16c0 28 28 40 28 40h297c155 0 235 -59 235 -158c0 -98 -82 -151 -131 -177c0 0 36 -40 58 -72l79 -117c43 -64 68 -83 122 -93v-43c-28 -3 -57 -5 -88 -5
c-92 0 -129 23 -183 107l-143 223c72 26 128 58 128 158c0 57 -27 113 -104 113h-60v-525c35 -7 88 -16 88 -16s0 -33 -23 -57c0 0 -97 4 -145 4zM432 791c-18 -47 -109 -76 -175 -76h-12l-11 32c63 37 91 82 120 143c48 -13 80 -42 80 -82c0 -5 -1 -11 -2 -17z" />
    <glyph glyph-name="racute" unicode="&#x155;" horiz-adv-x="430" 
d="M162 2c-41 0 -137 -4 -137 -4c-2 5 -3 11 -3 15c0 26 28 39 28 39l43 12v343c-34 6 -80 13 -80 13c-1 3 -2 9 -2 13c0 26 26 39 26 39s104 7 189 15c0 -37 1 -110 1 -110c38 51 70 111 151 111c13 0 28 -3 36 -6c6 -11 8 -25 8 -41c0 -29 -9 -63 -20 -85
c-12 3 -34 8 -63 8c-34 0 -76 -9 -105 -38v-259c44 -8 98 -12 98 -12s-1 -29 -24 -57c0 0 -78 4 -146 4zM334 664c-7 -58 -95 -107 -162 -122l-19 28c50 53 65 104 76 170c56 0 97 -21 105 -76z" />
    <glyph glyph-name="Rcommaaccent" unicode="&#x156;" horiz-adv-x="679" 
d="M186 2c-47 0 -155 -4 -155 -4c-2 6 -3 11 -3 16c0 28 28 41 28 41l64 16v519l-89 14c-2 6 -3 11 -3 16c0 28 28 40 28 40h297c155 0 235 -59 235 -158c0 -98 -82 -151 -131 -177c0 0 36 -40 58 -72l79 -117c43 -64 68 -83 122 -93v-43c-28 -3 -57 -5 -88 -5
c-92 0 -129 23 -183 107l-143 223c72 26 128 58 128 158c0 57 -27 113 -104 113h-60v-525c35 -7 88 -16 88 -16s0 -33 -23 -57c0 0 -97 4 -145 4zM315 -130c2 19 14 73 56 92c47 -5 76 -44 76 -84c0 -54 -41 -124 -64 -152l-37 17c8 23 17 54 17 84c0 17 -35 38 -48 43z" />
    <glyph glyph-name="rcommaaccent" unicode="&#x157;" horiz-adv-x="430" 
d="M162 2c-41 0 -137 -4 -137 -4c-2 5 -3 11 -3 15c0 26 28 39 28 39l43 12v343c-34 6 -80 13 -80 13c-1 3 -2 9 -2 13c0 26 26 39 26 39s104 7 189 15c0 -37 1 -110 1 -110c38 51 70 111 151 111c13 0 28 -3 36 -6c6 -11 8 -25 8 -41c0 -29 -9 -63 -20 -85
c-12 3 -34 8 -63 8c-34 0 -76 -9 -105 -38v-259c44 -8 98 -12 98 -12s-1 -29 -24 -57c0 0 -78 4 -146 4zM97 -130c2 19 14 73 56 92c47 -5 76 -44 76 -84c0 -54 -41 -124 -64 -152l-37 17c8 23 17 54 17 84c0 17 -35 38 -48 43z" />
    <glyph glyph-name="Rcaron" unicode="&#x158;" horiz-adv-x="679" 
d="M186 2c-47 0 -155 -4 -155 -4c-2 6 -3 11 -3 16c0 28 28 41 28 41l64 16v519l-89 14c-2 6 -3 11 -3 16c0 28 28 40 28 40h297c155 0 235 -59 235 -158c0 -98 -82 -151 -131 -177c0 0 36 -40 58 -72l79 -117c43 -64 68 -83 122 -93v-43c-28 -3 -57 -5 -88 -5
c-92 0 -129 23 -183 107l-143 223c72 26 128 58 128 158c0 57 -27 113 -104 113h-60v-525c35 -7 88 -16 88 -16s0 -33 -23 -57c0 0 -97 4 -145 4zM455 871l36 -32l-129 -124h-93c-18 49 -58 88 -108 111l43 38c50 -6 116 -40 141 -71z" />
    <glyph glyph-name="rcaron" unicode="&#x159;" horiz-adv-x="430" 
d="M162 2c-41 0 -137 -4 -137 -4c-2 5 -3 11 -3 15c0 26 28 39 28 39l43 12v343c-34 6 -80 13 -80 13c-1 3 -2 9 -2 13c0 26 26 39 26 39s104 7 189 15c0 -37 1 -110 1 -110c38 51 70 111 151 111c13 0 28 -3 36 -6c6 -11 8 -25 8 -41c0 -29 -9 -63 -20 -85
c-12 3 -34 8 -63 8c-34 0 -76 -9 -105 -38v-259c44 -8 98 -12 98 -12s-1 -29 -24 -57c0 0 -78 4 -146 4zM343 741l40 -28l-103 -152l-83 -28l-18 12c-22 58 -53 120 -93 159l46 34c42 -17 88 -62 114 -101z" />
    <glyph glyph-name="Sacute" unicode="&#x15a;" horiz-adv-x="541" 
d="M240 63c74 0 118 37 118 99c0 57 -46 78 -127 116l-49 23c-97 45 -139 91 -139 183c0 106 111 186 264 186c56 0 111 -10 164 -27c6 -42 9 -85 9 -128c0 -18 -1 -37 -2 -55c-8 -8 -19 -11 -31 -11c-10 0 -20 3 -29 8c-5 41 -15 84 -33 119c-19 12 -47 23 -95 23
c-61 0 -106 -27 -106 -83c0 -50 40 -69 122 -109l35 -17c99 -48 159 -92 159 -194c0 -137 -132 -206 -281 -206c-66 0 -137 15 -175 31c-6 40 -8 77 -8 115c0 24 2 51 4 70c8 8 21 13 34 13c10 0 21 -3 29 -9c3 -45 11 -94 27 -124c30 -16 68 -23 110 -23zM388 791
c-18 -47 -109 -76 -175 -76h-12l-11 32c63 37 91 82 120 143c48 -13 80 -42 80 -82c0 -5 -1 -11 -2 -17z" />
    <glyph glyph-name="sacute" unicode="&#x15b;" horiz-adv-x="442" 
d="M36 18c-2 17 -3 44 -3 66c0 33 2 65 4 78c9 7 20 11 31 11c9 0 17 -2 26 -6c5 -30 14 -72 27 -99c24 -10 54 -15 75 -15c55 0 74 28 74 59c0 40 -29 55 -114 88c-92 36 -120 71 -120 140c0 79 77 150 207 150c59 0 119 -13 145 -23c4 -27 5 -58 5 -87c0 -17 0 -33 -1 -46
c-8 -7 -19 -11 -31 -11c-9 0 -18 2 -26 6c-5 24 -16 67 -32 93c-12 4 -33 7 -55 7c-52 0 -76 -24 -76 -55c0 -34 25 -44 108 -78c79 -32 130 -68 130 -148c0 -83 -71 -158 -215 -158c-68 0 -128 16 -159 28zM322 664c-7 -58 -95 -107 -162 -122l-19 28c50 53 65 104 76 170
c56 0 97 -21 105 -76z" />
    <glyph glyph-name="Scircumflex" unicode="&#x15c;" horiz-adv-x="541" 
d="M240 63c74 0 118 37 118 99c0 57 -46 78 -127 116l-49 23c-97 45 -139 91 -139 183c0 106 111 186 264 186c56 0 111 -10 164 -27c6 -42 9 -85 9 -128c0 -18 -1 -37 -2 -55c-8 -8 -19 -11 -31 -11c-10 0 -20 3 -29 8c-5 41 -15 84 -33 119c-19 12 -47 23 -95 23
c-61 0 -106 -27 -106 -83c0 -50 40 -69 122 -109l35 -17c99 -48 159 -92 159 -194c0 -137 -132 -206 -281 -206c-66 0 -137 15 -175 31c-6 40 -8 77 -8 115c0 24 2 51 4 70c8 8 21 13 34 13c10 0 21 -3 29 -9c3 -45 11 -94 27 -124c30 -16 68 -23 110 -23zM164 707l-36 32
l129 124h93c18 -49 58 -88 108 -111l-43 -38c-50 6 -116 40 -141 71z" />
    <glyph glyph-name="scircumflex" unicode="&#x15d;" horiz-adv-x="442" 
d="M36 18c-2 17 -3 44 -3 66c0 33 2 65 4 78c9 7 20 11 31 11c9 0 17 -2 26 -6c5 -30 14 -72 27 -99c24 -10 54 -15 75 -15c55 0 74 28 74 59c0 40 -29 55 -114 88c-92 36 -120 71 -120 140c0 79 77 150 207 150c59 0 119 -13 145 -23c4 -27 5 -58 5 -87c0 -17 0 -33 -1 -46
c-8 -7 -19 -11 -31 -11c-9 0 -18 2 -26 6c-5 24 -16 67 -32 93c-12 4 -33 7 -55 7c-52 0 -76 -24 -76 -55c0 -34 25 -44 108 -78c79 -32 130 -68 130 -148c0 -83 -71 -158 -215 -158c-68 0 -128 16 -159 28zM120 529l-40 28l103 152l83 28l18 -12c22 -58 53 -120 93 -159
l-46 -34c-42 17 -88 62 -114 101z" />
    <glyph glyph-name="Scedilla" unicode="&#x15e;" horiz-adv-x="541" 
d="M371 -138c0 -86 -111 -113 -207 -113l-4 47c59 3 104 12 104 55c0 17 -9 32 -42 32c-13 0 -24 -3 -31 -5l-21 17l29 95c-60 3 -121 16 -155 31c-6 40 -8 77 -8 115c0 24 2 51 4 70c8 8 21 13 34 13c10 0 21 -3 29 -9c3 -45 11 -94 27 -124c30 -16 68 -23 110 -23
c74 0 118 37 118 99c0 57 -46 78 -127 116l-49 23c-97 45 -139 91 -139 183c0 106 111 186 264 186c56 0 111 -10 164 -27c6 -42 9 -85 9 -128c0 -18 -1 -37 -2 -55c-8 -8 -19 -11 -31 -11c-10 0 -20 3 -29 8c-5 41 -15 84 -33 119c-19 12 -47 23 -95 23
c-61 0 -106 -27 -106 -83c0 -50 40 -69 122 -109l35 -17c99 -48 159 -92 159 -194c0 -123 -106 -191 -235 -204l-27 -71c11 5 32 12 56 12c44 0 77 -24 77 -71z" />
    <glyph glyph-name="scedilla" unicode="&#x15f;" horiz-adv-x="442" 
d="M329 -138c0 -86 -111 -113 -207 -113l-4 47c59 3 104 12 104 55c0 17 -9 32 -42 32c-13 0 -24 -3 -31 -5l-21 17l29 97c-52 4 -96 16 -121 26c-2 17 -3 44 -3 66c0 33 2 65 4 78c9 7 20 11 31 11c9 0 17 -2 26 -6c5 -30 14 -72 27 -99c24 -10 54 -15 75 -15
c55 0 74 28 74 59c0 40 -29 55 -114 88c-92 36 -120 71 -120 140c0 79 77 150 207 150c59 0 119 -13 145 -23c4 -27 5 -58 5 -87c0 -17 0 -33 -1 -46c-8 -7 -19 -11 -31 -11c-9 0 -18 2 -26 6c-5 24 -16 67 -32 93c-12 4 -33 7 -55 7c-52 0 -76 -24 -76 -55
c0 -34 25 -44 108 -78c79 -32 130 -68 130 -148c0 -78 -62 -148 -187 -157l-27 -70c11 5 32 12 56 12c44 0 77 -24 77 -71z" />
    <glyph glyph-name="Scaron" unicode="&#x160;" horiz-adv-x="541" 
d="M240 63c74 0 118 37 118 99c0 57 -46 78 -127 116l-49 23c-97 45 -139 91 -139 183c0 106 111 186 264 186c56 0 111 -10 164 -27c6 -42 9 -85 9 -128c0 -18 -1 -37 -2 -55c-8 -8 -19 -11 -31 -11c-10 0 -20 3 -29 8c-5 41 -15 84 -33 119c-19 12 -47 23 -95 23
c-61 0 -106 -27 -106 -83c0 -50 40 -69 122 -109l35 -17c99 -48 159 -92 159 -194c0 -137 -132 -206 -281 -206c-66 0 -137 15 -175 31c-6 40 -8 77 -8 115c0 24 2 51 4 70c8 8 21 13 34 13c10 0 21 -3 29 -9c3 -45 11 -94 27 -124c30 -16 68 -23 110 -23zM417 871l36 -32
l-129 -124h-93c-18 49 -58 88 -108 111l43 38c50 -6 116 -40 141 -71z" />
    <glyph glyph-name="scaron" unicode="&#x161;" horiz-adv-x="442" 
d="M36 18c-2 17 -3 44 -3 66c0 33 2 65 4 78c9 7 20 11 31 11c9 0 17 -2 26 -6c5 -30 14 -72 27 -99c24 -10 54 -15 75 -15c55 0 74 28 74 59c0 40 -29 55 -114 88c-92 36 -120 71 -120 140c0 79 77 150 207 150c59 0 119 -13 145 -23c4 -27 5 -58 5 -87c0 -17 0 -33 -1 -46
c-8 -7 -19 -11 -31 -11c-9 0 -18 2 -26 6c-5 24 -16 67 -32 93c-12 4 -33 7 -55 7c-52 0 -76 -24 -76 -55c0 -34 25 -44 108 -78c79 -32 130 -68 130 -148c0 -83 -71 -158 -215 -158c-68 0 -128 16 -159 28zM335 741l40 -28l-103 -152l-83 -28l-18 12
c-22 58 -53 120 -93 159l46 34c42 -17 88 -62 114 -101z" />
    <glyph glyph-name="Tcommaaccent" unicode="&#x162;" horiz-adv-x="635" 
d="M514 584l-123 4v-517c37 -8 93 -16 93 -16s-1 -38 -23 -57c0 0 -100 4 -150 4c-47 0 -155 -4 -155 -4c-2 6 -3 11 -3 16c0 28 28 41 28 41l64 16v517l-129 -4c-21 -32 -34 -91 -37 -123c0 0 -13 -9 -30 -9c-9 0 -19 3 -30 11c-1 6 -1 12 -1 19c0 58 4 129 11 178h572
c7 -49 11 -120 11 -178c0 -7 0 -13 -1 -19c-11 -8 -21 -11 -30 -11c-17 0 -30 9 -30 9c-3 32 -16 91 -37 123zM250 -130c2 19 14 73 56 92c47 -5 76 -44 76 -84c0 -54 -41 -124 -64 -152l-37 17c8 23 17 54 17 84c0 17 -35 38 -48 43z" />
    <glyph glyph-name="tcommaaccent" unicode="&#x163;" horiz-adv-x="382" 
d="M80 121v286h-71l-8 33l76 41l57 108l87 12v-118l157 2c0 -37 -20 -64 -34 -78h-123v-254c0 -54 3 -86 62 -86c30 0 61 5 79 8l8 -52c-18 -8 -95 -33 -177 -33c-102 0 -113 47 -113 131zM134 -130c2 19 14 73 56 92c47 -5 76 -44 76 -84c0 -54 -41 -124 -64 -152l-37 17
c8 23 17 54 17 84c0 17 -35 38 -48 43z" />
    <glyph glyph-name="Tcaron" unicode="&#x164;" horiz-adv-x="635" 
d="M514 584l-123 4v-517c37 -8 93 -16 93 -16s-1 -38 -23 -57c0 0 -100 4 -150 4c-47 0 -155 -4 -155 -4c-2 6 -3 11 -3 16c0 28 28 41 28 41l64 16v517l-129 -4c-21 -32 -34 -91 -37 -123c0 0 -13 -9 -30 -9c-9 0 -19 3 -30 11c-1 6 -1 12 -1 19c0 58 4 129 11 178h572
c7 -49 11 -120 11 -178c0 -7 0 -13 -1 -19c-11 -8 -21 -11 -30 -11c-17 0 -30 9 -30 9c-3 32 -16 91 -37 123zM445 871l36 -32l-129 -124h-93c-18 49 -58 88 -108 111l43 38c50 -6 116 -40 141 -71z" />
    <glyph glyph-name="tcaron" unicode="&#x165;" horiz-adv-x="382" 
d="M80 121v286h-71l-8 33l76 41l57 108l87 12v-118l157 2c0 -37 -20 -64 -34 -78h-123v-254c0 -54 3 -86 62 -86c30 0 61 5 79 8l8 -52c-18 -8 -95 -33 -177 -33c-102 0 -113 47 -113 131zM279 664c2 19 14 73 56 92c47 -5 76 -44 76 -84c0 -54 -41 -124 -64 -152l-37 17
c8 23 17 54 17 84c0 17 -35 38 -48 43z" />
    <glyph glyph-name="Tbar" unicode="&#x166;" horiz-adv-x="635" 
d="M514 584l-123 4v-237h133c1 -5 2 -13 2 -19c0 -22 -7 -37 -11 -43h-124v-218c37 -8 93 -16 93 -16s-1 -38 -23 -57c0 0 -100 4 -150 4c-47 0 -155 -4 -155 -4c-2 6 -3 11 -3 16c0 28 28 41 28 41l64 16v218h-130c-1 4 -2 13 -2 18c0 22 8 38 11 44h121v237l-129 -4
c-21 -32 -34 -91 -37 -123c0 0 -13 -9 -30 -9c-9 0 -19 3 -30 11c-1 6 -1 12 -1 19c0 58 4 129 11 178h572c7 -49 11 -120 11 -178c0 -7 0 -13 -1 -19c-11 -8 -21 -11 -30 -11c-17 0 -30 9 -30 9c-3 32 -16 91 -37 123z" />
    <glyph glyph-name="tbar" unicode="&#x167;" horiz-adv-x="382" 
d="M80 121v96h-71c-1 4 -2 13 -2 18c0 22 8 38 11 44h62v128h-71l-8 33l76 41l57 108l87 12v-118l157 2c0 -37 -20 -64 -34 -78h-123v-128h142c1 -5 2 -13 2 -19c0 -22 -7 -36 -11 -43h-133v-64c0 -54 3 -86 62 -86c30 0 61 5 79 8l8 -52c-18 -8 -95 -33 -177 -33
c-102 0 -113 47 -113 131z" />
    <glyph glyph-name="Utilde" unicode="&#x168;" horiz-adv-x="749" 
d="M236 590v-317c0 -159 62 -205 156 -205c121 0 145 80 145 208v314l-81 14c-2 6 -3 11 -3 16c0 28 28 41 28 41s55 -2 121 -2c61 0 154 2 154 2s0 -36 -28 -57c0 0 -38 -8 -65 -14v-290c0 -185 -76 -310 -296 -310c-198 0 -277 85 -277 258v342l-89 14c-2 6 -3 11 -3 16
c0 28 28 41 28 41s78 -2 139 -2c58 0 157 2 157 2s-1 -36 -23 -57zM446 812c28 0 40 15 58 34l32 -24c-14 -43 -50 -101 -109 -101c-49 0 -71 49 -111 49c-30 0 -42 -15 -60 -34l-32 24c14 43 51 101 109 101c53 0 68 -49 113 -49z" />
    <glyph glyph-name="utilde" unicode="&#x169;" horiz-adv-x="595" 
d="M514 73c34 -6 80 -13 80 -13c1 -3 2 -8 2 -13c0 -26 -26 -39 -26 -39s-104 -5 -190 -13c0 25 -2 63 -2 63c-18 -12 -86 -68 -161 -68c-118 0 -141 89 -141 177v240c-34 6 -70 13 -70 13c-1 3 -2 9 -2 13c0 26 26 39 26 39s96 7 187 15v-292c0 -81 30 -104 90 -104
c25 0 50 6 66 14v302c-34 6 -75 13 -75 13c-2 4 -2 9 -2 13c0 26 26 39 26 39s101 7 192 15v-414zM363 660c28 0 40 15 58 34l32 -24c-14 -43 -50 -101 -109 -101c-49 0 -71 49 -111 49c-30 0 -42 -15 -60 -34l-32 24c14 43 51 101 109 101c53 0 68 -49 113 -49z" />
    <glyph glyph-name="Umacron" unicode="&#x16a;" horiz-adv-x="749" 
d="M236 590v-317c0 -159 62 -205 156 -205c121 0 145 80 145 208v314l-81 14c-2 6 -3 11 -3 16c0 28 28 41 28 41s55 -2 121 -2c61 0 154 2 154 2s0 -36 -28 -57c0 0 -38 -8 -65 -14v-290c0 -185 -76 -310 -296 -310c-198 0 -277 85 -277 258v342l-89 14c-2 6 -3 11 -3 16
c0 28 28 41 28 41s78 -2 139 -2c58 0 157 2 157 2s-1 -36 -23 -57zM255 827h279c2 -7 2 -15 2 -22c0 -34 -14 -59 -14 -59h-279c-1 5 -2 14 -2 21c0 33 14 60 14 60z" />
    <glyph glyph-name="umacron" unicode="&#x16b;" horiz-adv-x="595" 
d="M514 73c34 -6 80 -13 80 -13c1 -3 2 -8 2 -13c0 -26 -26 -39 -26 -39s-104 -5 -190 -13c0 25 -2 63 -2 63c-18 -12 -86 -68 -161 -68c-118 0 -141 89 -141 177v240c-34 6 -70 13 -70 13c-1 3 -2 9 -2 13c0 26 26 39 26 39s96 7 187 15v-292c0 -81 30 -104 90 -104
c25 0 50 6 66 14v302c-34 6 -75 13 -75 13c-2 4 -2 9 -2 13c0 26 26 39 26 39s101 7 192 15v-414zM429 596h-275c-2 7 -4 16 -4 25c0 20 6 41 16 54h275c2 -7 4 -16 4 -25c0 -20 -6 -41 -16 -54z" />
    <glyph glyph-name="Ubreve" unicode="&#x16c;" horiz-adv-x="749" 
d="M236 590v-317c0 -159 62 -205 156 -205c121 0 145 80 145 208v314l-81 14c-2 6 -3 11 -3 16c0 28 28 41 28 41s55 -2 121 -2c61 0 154 2 154 2s0 -36 -28 -57c0 0 -38 -8 -65 -14v-290c0 -185 -76 -310 -296 -310c-198 0 -277 85 -277 258v342l-89 14c-2 6 -3 11 -3 16
c0 28 28 41 28 41s78 -2 139 -2c58 0 157 2 157 2s-1 -36 -23 -57zM386 718c-94 0 -133 80 -146 115l39 31c29 -39 65 -54 107 -54s79 15 107 54l39 -31c-13 -35 -52 -115 -146 -115z" />
    <glyph glyph-name="ubreve" unicode="&#x16d;" horiz-adv-x="595" 
d="M514 73c34 -6 80 -13 80 -13c1 -3 2 -8 2 -13c0 -26 -26 -39 -26 -39s-104 -5 -190 -13c0 25 -2 63 -2 63c-18 -12 -86 -68 -161 -68c-118 0 -141 89 -141 177v240c-34 6 -70 13 -70 13c-1 3 -2 9 -2 13c0 26 26 39 26 39s96 7 187 15v-292c0 -81 30 -104 90 -104
c25 0 50 6 66 14v302c-34 6 -75 13 -75 13c-2 4 -2 9 -2 13c0 26 26 39 26 39s101 7 192 15v-414zM292 568c-92 0 -129 85 -142 122l37 36c29 -39 67 -66 110 -66c50 0 85 35 108 66l37 -36c-11 -33 -55 -122 -150 -122z" />
    <glyph glyph-name="Uring" unicode="&#x16e;" horiz-adv-x="749" 
d="M236 590v-317c0 -159 62 -205 156 -205c121 0 145 80 145 208v314l-81 14c-2 6 -3 11 -3 16c0 28 28 41 28 41s55 -2 121 -2c61 0 154 2 154 2s0 -36 -28 -57c0 0 -38 -8 -65 -14v-290c0 -185 -76 -310 -296 -310c-198 0 -277 85 -277 258v342l-89 14c-2 6 -3 11 -3 16
c0 28 28 41 28 41s78 -2 139 -2c58 0 157 2 157 2s-1 -36 -23 -57zM498 805c0 -54 -38 -104 -111 -104s-111 50 -111 104s38 104 111 104s111 -50 111 -104zM387 757c30 0 42 21 42 48s-12 48 -42 48s-42 -21 -42 -48s13 -48 42 -48z" />
    <glyph glyph-name="uring" unicode="&#x16f;" horiz-adv-x="595" 
d="M514 73c34 -6 80 -13 80 -13c1 -3 2 -8 2 -13c0 -26 -26 -39 -26 -39s-104 -5 -190 -13c0 25 -2 63 -2 63c-18 -12 -86 -68 -161 -68c-118 0 -141 89 -141 177v240c-34 6 -70 13 -70 13c-1 3 -2 9 -2 13c0 26 26 39 26 39s96 7 187 15v-292c0 -81 30 -104 90 -104
c25 0 50 6 66 14v302c-34 6 -75 13 -75 13c-2 4 -2 9 -2 13c0 26 26 39 26 39s101 7 192 15v-414zM408 647c0 -54 -38 -104 -111 -104s-111 50 -111 104s38 104 111 104s111 -50 111 -104zM297 599c30 0 42 21 42 48s-12 48 -42 48s-42 -21 -42 -48s13 -48 42 -48z" />
    <glyph glyph-name="Uhungarumlaut" unicode="&#x170;" horiz-adv-x="749" 
d="M236 590v-317c0 -159 62 -205 156 -205c121 0 145 80 145 208v314l-81 14c-2 6 -3 11 -3 16c0 28 28 41 28 41s55 -2 121 -2c61 0 154 2 154 2s0 -36 -28 -57c0 0 -38 -8 -65 -14v-290c0 -185 -76 -310 -296 -310c-198 0 -277 85 -277 258v342l-89 14c-2 6 -3 11 -3 16
c0 28 28 41 28 41s78 -2 139 -2c58 0 157 2 157 2s-1 -36 -23 -57zM388 791c-18 -47 -108 -75 -174 -75h-12l-11 31c63 36 92 81 120 143c48 -13 79 -43 79 -82c0 -6 -1 -12 -2 -17zM592 791c-18 -47 -108 -75 -174 -75h-12l-11 31c63 36 92 81 120 143
c48 -13 79 -43 79 -82c0 -6 -1 -12 -2 -17z" />
    <glyph glyph-name="uhungarumlaut" unicode="&#x171;" horiz-adv-x="595" 
d="M514 73c34 -6 80 -13 80 -13c1 -3 2 -8 2 -13c0 -26 -26 -39 -26 -39s-104 -5 -190 -13c0 25 -2 63 -2 63c-18 -12 -86 -68 -161 -68c-118 0 -141 89 -141 177v240c-34 6 -70 13 -70 13c-1 3 -2 9 -2 13c0 26 26 39 26 39s96 7 187 15v-292c0 -81 30 -104 90 -104
c25 0 50 6 66 14v302c-34 6 -75 13 -75 13c-2 4 -2 9 -2 13c0 26 26 39 26 39s101 7 192 15v-414zM478 664c-7 -57 -96 -106 -161 -121l-18 27c50 53 65 104 76 170c56 0 96 -23 103 -76zM301 664c-7 -57 -96 -106 -161 -121l-18 27c50 53 65 104 76 170
c56 0 96 -23 103 -76z" />
    <glyph glyph-name="Uogonek" unicode="&#x172;" horiz-adv-x="749" 
d="M236 590v-317c0 -159 62 -205 156 -205c121 0 145 80 145 208v314l-81 14c-2 6 -3 11 -3 16c0 28 28 41 28 41s55 -2 121 -2c61 0 154 2 154 2s0 -36 -28 -57c0 0 -38 -8 -65 -14v-290c0 -152 -51 -263 -191 -298c-60 -42 -88 -87 -88 -134c0 -30 16 -45 48 -45
c26 0 50 7 78 25l13 -31c-31 -35 -86 -65 -147 -65c-68 0 -119 32 -119 87c0 67 55 113 126 151h-16c-198 0 -277 85 -277 258v342l-89 14c-2 6 -3 11 -3 16c0 28 28 41 28 41s78 -2 139 -2c58 0 157 2 157 2s-1 -36 -23 -57z" />
    <glyph glyph-name="uogonek" unicode="&#x173;" horiz-adv-x="595" 
d="M514 73c34 -6 80 -13 80 -13c1 -3 2 -8 2 -13c0 -26 -26 -39 -26 -39s-40 -2 -79 -5c-92 -41 -100 -100 -100 -134c0 -29 16 -46 48 -46c26 0 50 7 78 25l13 -31c-31 -35 -86 -65 -147 -65c-68 0 -119 30 -119 87c0 74 60 122 116 156c0 25 -2 63 -2 63
c-18 -12 -86 -68 -161 -68c-118 0 -141 89 -141 177v240c-34 6 -70 13 -70 13c-1 3 -2 9 -2 13c0 26 26 39 26 39s96 7 187 15v-292c0 -81 30 -104 90 -104c25 0 50 6 66 14v302c-34 6 -75 13 -75 13c-2 4 -2 9 -2 13c0 26 26 39 26 39s101 7 192 15v-414z" />
    <glyph glyph-name="Wcircumflex" unicode="&#x174;" horiz-adv-x="1019" 
d="M684 0l-172 460l-156 -460h-118l-175 590l-79 14c-2 6 -3 11 -3 16c0 28 28 41 28 41s74 -2 135 -2c58 0 155 2 155 2s0 -31 -23 -57c0 0 -37 -8 -64 -14l118 -422l167 492h83l174 -485l112 415l-80 14c-2 6 -3 11 -3 16c0 28 28 41 28 41s53 -2 114 -2c56 0 122 2 122 2
s-2 -36 -23 -57c0 0 -35 -8 -60 -14l-163 -590h-117zM418 707l-36 32l129 124h93c18 -49 58 -88 108 -111l-43 -38c-50 6 -116 40 -141 71z" />
    <glyph glyph-name="wcircumflex" unicode="&#x175;" horiz-adv-x="805" 
d="M182 0l-142 406l-63 19c-2 5 -3 11 -3 15c0 26 28 37 28 37s74 -1 117 -1s150 1 150 1s-3 -24 -26 -52l-57 -19l82 -247l129 317h67l119 -316l82 246l-65 19c-2 5 -3 11 -3 15c0 26 28 37 28 37s42 -1 85 -1s121 1 121 1s-3 -24 -26 -52l-53 -19l-139 -406h-95l-115 288
l-122 -288h-99zM319 529l-40 28l103 152l83 28l18 -12c22 -58 53 -120 93 -159l-46 -34c-42 17 -88 62 -114 101z" />
    <glyph glyph-name="Ycircumflex" unicode="&#x176;" horiz-adv-x="636" 
d="M250 71v197l-176 322l-79 14c-2 6 -3 11 -3 16c0 28 28 41 28 41s67 -2 128 -2c58 0 163 2 163 2s-1 -34 -23 -57c0 0 -37 -8 -59 -14l117 -239l117 239l-75 14c-2 6 -3 11 -3 16c0 28 28 41 28 41s40 -2 101 -2c58 0 143 2 143 2s-1 -34 -23 -57c0 0 -38 -8 -65 -14
l-173 -322v-197c35 -7 88 -16 88 -16s0 -33 -23 -57c0 0 -95 4 -143 4c-47 0 -157 -4 -157 -4c-2 6 -3 11 -3 16c0 28 28 41 28 41zM216 707l-36 32l129 124h93c18 -49 58 -88 108 -111l-43 -38c-50 6 -116 40 -141 71z" />
    <glyph glyph-name="ycircumflex" unicode="&#x177;" horiz-adv-x="542" 
d="M50 406l-63 19c-2 5 -3 11 -3 15c0 26 28 37 28 37s74 -1 117 -1s153 1 153 1s-5 -24 -28 -52l-50 -19l98 -252l99 252l-68 19c-2 5 -3 11 -3 15c0 26 28 37 28 37s56 -1 96 -1c43 0 115 1 115 1s-3 -24 -26 -52l-46 -19l-166 -393c-46 -109 -105 -227 -153 -257
c-5 -1 -10 -1 -15 -1c-53 0 -98 35 -106 87c50 10 138 47 174 146l4 11zM194 529l-40 28l103 152l83 28l18 -12c22 -58 53 -120 93 -159l-46 -34c-42 17 -88 62 -114 101z" />
    <glyph glyph-name="Ydieresis" unicode="&#x178;" horiz-adv-x="636" 
d="M250 71v197l-176 322l-79 14c-2 6 -3 11 -3 16c0 28 28 41 28 41s67 -2 128 -2c58 0 163 2 163 2s-1 -34 -23 -57c0 0 -37 -8 -59 -14l117 -239l117 239l-75 14c-2 6 -3 11 -3 16c0 28 28 41 28 41s40 -2 101 -2c58 0 143 2 143 2s-1 -34 -23 -57c0 0 -38 -8 -65 -14
l-173 -322v-197c35 -7 88 -16 88 -16s0 -33 -23 -57c0 0 -95 4 -143 4c-47 0 -157 -4 -157 -4c-2 6 -3 11 -3 16c0 28 28 41 28 41zM374 788c0 39 31 70 70 70s70 -31 70 -70s-31 -70 -70 -70s-70 31 -70 70zM177 788c0 39 31 70 70 70s70 -31 70 -70s-31 -70 -70 -70
s-70 31 -70 70z" />
    <glyph glyph-name="Zacute" unicode="&#x179;" horiz-adv-x="585" 
d="M73 660h480v-75l-362 -508l260 6c19 32 31 85 40 118c8 6 18 9 28 9c13 0 25 -5 31 -12c0 -50 -9 -135 -25 -198h-496v75l362 508l-245 -6c-20 -31 -36 -86 -45 -120c-6 -5 -18 -8 -27 -8c-11 0 -23 4 -30 12c1 45 11 140 29 199zM430 791c-18 -47 -109 -76 -175 -76h-12
l-11 32c63 37 91 82 120 143c48 -13 80 -42 80 -82c0 -5 -1 -11 -2 -17z" />
    <glyph glyph-name="zacute" unicode="&#x17a;" horiz-adv-x="477" 
d="M58 476h384v-61l-248 -351l157 8c14 26 31 73 39 95c7 4 15 6 24 6c12 0 24 -4 33 -13c-2 -36 -13 -116 -25 -160h-392v61l247 348l-145 -5c-13 -26 -29 -73 -36 -96c-8 -4 -16 -6 -27 -6s-24 5 -34 15c2 36 11 115 23 159zM358 664c-7 -58 -95 -107 -162 -122l-19 28
c50 53 65 104 76 170c56 0 97 -21 105 -76z" />
    <glyph glyph-name="Zdotaccent" unicode="&#x17b;" horiz-adv-x="585" 
d="M73 660h480v-75l-362 -508l260 6c19 32 31 85 40 118c8 6 18 9 28 9c13 0 25 -5 31 -12c0 -50 -9 -135 -25 -198h-496v75l362 508l-245 -6c-20 -31 -36 -86 -45 -120c-6 -5 -18 -8 -27 -8c-11 0 -23 4 -30 12c1 45 11 140 29 199zM241 791c0 40 29 73 72 73
s72 -33 72 -73s-30 -73 -72 -73s-72 33 -72 73z" />
    <glyph glyph-name="zdotaccent" unicode="&#x17c;" horiz-adv-x="477" 
d="M58 476h384v-61l-248 -351l157 8c14 26 31 73 39 95c7 4 15 6 24 6c12 0 24 -4 33 -13c-2 -36 -13 -116 -25 -160h-392v61l247 348l-145 -5c-13 -26 -29 -73 -36 -96c-8 -4 -16 -6 -27 -6s-24 5 -34 15c2 36 11 115 23 159zM185 646c0 40 29 73 72 73s72 -33 72 -73
s-30 -73 -72 -73s-72 33 -72 73z" />
    <glyph glyph-name="Zcaron" unicode="&#x17d;" horiz-adv-x="585" 
d="M73 660h480v-75l-362 -508l260 6c19 32 31 85 40 118c8 6 18 9 28 9c13 0 25 -5 31 -12c0 -50 -9 -135 -25 -198h-496v75l362 508l-245 -6c-20 -31 -36 -86 -45 -120c-6 -5 -18 -8 -27 -8c-11 0 -23 4 -30 12c1 45 11 140 29 199zM449 871l36 -32l-129 -124h-93
c-18 49 -58 88 -108 111l43 38c50 -6 116 -40 141 -71z" />
    <glyph glyph-name="zcaron" unicode="&#x17e;" horiz-adv-x="477" 
d="M58 476h384v-61l-248 -351l157 8c14 26 31 73 39 95c7 4 15 6 24 6c12 0 24 -4 33 -13c-2 -36 -13 -116 -25 -160h-392v61l247 348l-145 -5c-13 -26 -29 -73 -36 -96c-8 -4 -16 -6 -27 -6s-24 5 -34 15c2 36 11 115 23 159zM369 741l40 -28l-103 -152l-83 -28l-18 12
c-22 58 -53 120 -93 159l46 34c42 -17 88 -62 114 -101z" />
    <glyph glyph-name="florin" unicode="&#x192;" horiz-adv-x="384" 
d="M93 90v308h-64l-8 33l72 41v27c0 114 101 229 240 229c30 0 63 -7 77 -13c20 -37 -9 -101 -34 -124c-17 15 -79 57 -114 57c-23 0 -28 -33 -28 -92v-82l134 2c0 -37 -20 -64 -34 -78h-100v-243c0 -65 -8 -145 -49 -239c-29 -67 -80 -131 -122 -158c-57 3 -101 35 -110 95
c55 15 90 35 112 62c24 30 28 77 28 175z" />
    <glyph glyph-name="Aringacute" unicode="&#x1fa;" horiz-adv-x="626" 
d="M48 71l207 589h116l207 -589c31 -8 78 -16 78 -16c0 -15 -5 -36 -23 -57c0 0 -97 4 -141 4c-45 0 -138 -4 -138 -4c-2 6 -3 11 -3 16c0 28 28 41 28 41l48 16l-37 118h-205l-38 -118c33 -8 88 -16 88 -16s0 -32 -23 -57c0 0 -79 4 -125 4c-47 0 -118 -4 -118 -4
c-2 6 -3 11 -3 16c0 28 28 41 28 41zM290 514l-82 -254h160zM422 792c0 -54 -38 -104 -111 -104s-111 50 -111 104s38 104 111 104s111 -50 111 -104zM311 744c30 0 42 21 42 48s-12 48 -42 48s-42 -21 -42 -48s13 -48 42 -48zM412 981c-18 -47 -109 -76 -175 -76h-12
l-11 32c63 37 91 82 120 143c48 -13 80 -42 80 -82c0 -5 -1 -11 -2 -17z" />
    <glyph glyph-name="aringacute" unicode="&#x1fb;" horiz-adv-x="504" 
d="M267 490c142 0 167 -83 167 -158c0 -69 -2 -139 -2 -216c0 -54 10 -68 52 -68h9l5 -34s-56 -24 -104 -24c-60 0 -85 20 -95 63c-14 -13 -79 -63 -141 -63c-75 0 -131 49 -131 130c0 74 55 138 191 162l77 13v13c0 64 -15 92 -91 92c-48 0 -102 -17 -128 -30l-18 52
c27 21 112 68 209 68zM233 84c23 0 46 6 61 13c-1 16 -1 31 -1 39l1 105l-49 -12c-65 -16 -75 -49 -75 -79c0 -34 17 -66 63 -66zM368 643c0 -54 -38 -104 -111 -104s-111 50 -111 104s38 104 111 104s111 -50 111 -104zM257 595c30 0 42 21 42 48s-12 48 -42 48
s-42 -21 -42 -48s13 -48 42 -48zM359 842c-18 -47 -109 -76 -175 -76h-12l-11 32c63 37 91 82 120 143c48 -13 80 -42 80 -82c0 -5 -1 -11 -2 -17z" />
    <glyph glyph-name="AEacute" unicode="&#x1fc;" horiz-adv-x="806" 
d="M47 71l207 589h485c8 -60 8 -126 8 -181c-11 -7 -22 -9 -31 -9c-17 0 -32 7 -32 7c-5 35 -12 76 -25 103l-259 4l63 -208l213 12c0 -50 -33 -84 -33 -84h-158l68 -225l122 4c11 23 19 64 25 108c0 0 12 7 29 7c9 0 20 -2 31 -9c0 -49 -1 -127 -10 -191c0 0 -113 4 -255 4
c-68 0 -172 -4 -172 -4c-2 6 -3 11 -3 16c0 28 28 41 28 41l67 16l-34 118h-199l-38 -118c35 -8 93 -16 93 -16s0 -32 -23 -57c0 0 -78 4 -126 4c-47 0 -120 -4 -120 -4c-2 6 -3 11 -3 16c0 28 28 41 28 41zM289 518l-84 -258h156zM514 791c-18 -47 -109 -76 -175 -76h-12
l-11 32c63 37 91 82 120 143c48 -13 80 -42 80 -82c0 -5 -1 -11 -2 -17z" />
    <glyph glyph-name="aeacute" unicode="&#x1fd;" horiz-adv-x="716" 
d="M534 490c114 0 177 -71 177 -166c0 -39 -6 -77 -13 -99l-263 -2c6 -104 48 -145 137 -145c40 0 89 10 120 23l18 -50c-18 -13 -94 -61 -202 -61c-73 0 -134 20 -172 71c-41 -36 -97 -71 -170 -71c-86 0 -138 49 -138 130c0 74 54 138 194 162l77 13v14
c0 62 -19 91 -91 91c-49 0 -104 -17 -131 -30l-18 52c28 21 115 68 212 68c59 0 95 -24 117 -56c42 36 94 56 146 56zM241 84c24 0 51 9 72 18c-13 31 -20 71 -20 119v18l-44 -10c-67 -16 -78 -49 -78 -79c0 -34 15 -66 70 -66zM513 419c-40 0 -72 -35 -77 -137l126 11
c3 12 5 28 5 46c0 34 -5 80 -54 80zM501 664c-7 -58 -95 -107 -162 -122l-19 28c50 53 65 104 76 170c56 0 97 -21 105 -76z" />
    <glyph glyph-name="Oslashacute" unicode="&#x1fe;" horiz-adv-x="748" 
d="M364 -10c-73 0 -134 16 -184 45l-62 -76l-47 38l61 74c-61 56 -94 138 -94 235c0 248 182 364 347 364c79 0 146 -20 198 -54l56 68l47 -38l-57 -69c53 -56 82 -133 82 -223c0 -248 -182 -364 -347 -364zM202 347c0 -62 8 -117 25 -161l273 330c-30 48 -74 76 -132 76
c-95 0 -166 -59 -166 -245zM547 313c0 53 -7 101 -19 142l-270 -326c30 -39 71 -61 123 -61c95 0 166 59 166 245zM484 791c-18 -47 -109 -76 -175 -76h-12l-11 32c63 37 91 82 120 143c48 -13 80 -42 80 -82c0 -5 -1 -11 -2 -17z" />
    <glyph glyph-name="oslashacute" unicode="&#x1ff;" horiz-adv-x="541" 
d="M87 -40l-37 31l44 54c-42 36 -68 93 -68 176c0 184 131 269 253 269c53 0 105 -11 146 -38l38 46l37 -31l-38 -47c33 -34 54 -89 54 -161c0 -186 -131 -269 -253 -269c-46 0 -91 9 -129 28zM181 251c0 -33 2 -64 8 -90l154 190c-15 40 -40 64 -77 64
c-52 0 -85 -37 -85 -164zM361 229c0 22 -2 43 -4 62l-149 -183c15 -27 37 -43 68 -43c52 0 85 41 85 164zM381 664c-7 -58 -95 -107 -162 -122l-19 28c50 53 65 104 76 170c56 0 97 -21 105 -76z" />
    <glyph glyph-name="Scommaaccent" unicode="&#x218;" horiz-adv-x="541" 
d="M240 63c74 0 118 37 118 99c0 57 -46 78 -127 116l-49 23c-97 45 -139 91 -139 183c0 106 111 186 264 186c56 0 111 -10 164 -27c6 -42 9 -85 9 -128c0 -18 -1 -37 -2 -55c-8 -8 -19 -11 -31 -11c-10 0 -20 3 -29 8c-5 41 -15 84 -33 119c-19 12 -47 23 -95 23
c-61 0 -106 -27 -106 -83c0 -50 40 -69 122 -109l35 -17c99 -48 159 -92 159 -194c0 -137 -132 -206 -281 -206c-66 0 -137 15 -175 31c-6 40 -8 77 -8 115c0 24 2 51 4 70c8 8 21 13 34 13c10 0 21 -3 29 -9c3 -45 11 -94 27 -124c30 -16 68 -23 110 -23zM198 -130
c2 19 14 73 56 92c47 -5 76 -44 76 -84c0 -54 -41 -124 -64 -152l-37 17c8 23 17 54 17 84c0 17 -35 38 -48 43z" />
    <glyph glyph-name="scommaaccent" unicode="&#x219;" horiz-adv-x="442" 
d="M36 18c-2 17 -3 44 -3 66c0 33 2 65 4 78c9 7 20 11 31 11c9 0 17 -2 26 -6c5 -30 14 -72 27 -99c24 -10 54 -15 75 -15c55 0 74 28 74 59c0 40 -29 55 -114 88c-92 36 -120 71 -120 140c0 79 77 150 207 150c59 0 119 -13 145 -23c4 -27 5 -58 5 -87c0 -17 0 -33 -1 -46
c-8 -7 -19 -11 -31 -11c-9 0 -18 2 -26 6c-5 24 -16 67 -32 93c-12 4 -33 7 -55 7c-52 0 -76 -24 -76 -55c0 -34 25 -44 108 -78c79 -32 130 -68 130 -148c0 -83 -71 -158 -215 -158c-68 0 -128 16 -159 28zM145 -130c2 19 14 73 56 92c47 -5 76 -44 76 -84
c0 -54 -41 -124 -64 -152l-37 17c8 23 17 54 17 84c0 17 -35 38 -48 43z" />
    <glyph glyph-name="circumflex" unicode="&#x2c6;" horiz-adv-x="447" 
d="M115 529l-40 28l103 152l83 28l18 -12c22 -58 53 -120 93 -159l-46 -34c-42 17 -88 62 -114 101z" />
    <glyph glyph-name="caron" unicode="&#x2c7;" horiz-adv-x="447" 
d="M332 741l40 -28l-103 -152l-83 -28l-18 12c-22 58 -53 120 -93 159l46 34c42 -17 88 -62 114 -101z" />
    <glyph glyph-name="breve" unicode="&#x2d8;" horiz-adv-x="442" 
d="M217 568c-92 0 -129 85 -142 122l37 36c29 -39 67 -66 110 -66c50 0 85 35 108 66l37 -36c-11 -33 -55 -122 -150 -122z" />
    <glyph glyph-name="dotaccent" unicode="&#x2d9;" horiz-adv-x="294" 
d="M75 646c0 40 29 73 72 73s72 -33 72 -73s-30 -73 -72 -73s-72 33 -72 73z" />
    <glyph glyph-name="ring" unicode="&#x2da;" horiz-adv-x="372" 
d="M297 647c0 -54 -38 -104 -111 -104s-111 50 -111 104s38 104 111 104s111 -50 111 -104zM186 599c30 0 42 21 42 48s-12 48 -42 48s-42 -21 -42 -48s13 -48 42 -48z" />
    <glyph glyph-name="ogonek" unicode="&#x2db;" horiz-adv-x="417" 
d="M330 49l12 -32c-97 -51 -140 -91 -140 -149c0 -30 16 -45 48 -45c26 0 50 7 78 25l13 -31c-31 -35 -86 -65 -147 -65c-68 0 -119 32 -119 87c0 105 139 161 255 210z" />
    <glyph glyph-name="tilde" unicode="&#x2dc;" horiz-adv-x="462" 
d="M297 660c28 0 40 15 58 34l32 -24c-14 -43 -50 -101 -109 -101c-49 0 -71 49 -111 49c-30 0 -42 -15 -60 -34l-32 24c14 43 51 101 109 101c53 0 68 -49 113 -49z" />
    <glyph glyph-name="hungarumlaut" unicode="&#x2dd;" horiz-adv-x="506" 
d="M431 664c-7 -57 -96 -106 -161 -121l-18 27c50 53 65 104 76 170c56 0 96 -23 103 -76zM254 664c-7 -57 -96 -106 -161 -121l-18 27c50 53 65 104 76 170c56 0 96 -23 103 -76z" />
    <glyph glyph-name="uni0312" unicode="&#x312;" horiz-adv-x="282" 
d="M207 625c-2 -19 -14 -73 -56 -92c-47 5 -76 44 -76 84c0 54 41 124 64 152l37 -17c-8 -23 -17 -54 -17 -84c0 -17 35 -38 48 -43z" />
    <glyph glyph-name="uni0315" unicode="&#x315;" horiz-adv-x="282" 
d="M75 664c2 19 14 73 56 92c47 -5 76 -44 76 -84c0 -54 -41 -124 -64 -152l-37 17c8 23 17 54 17 84c0 17 -35 38 -48 43z" />
    <glyph glyph-name="uni0326" unicode="&#x326;" horiz-adv-x="282" 
d="M75 -142c2 19 14 73 56 92c47 -5 76 -44 76 -84c0 -54 -41 -124 -64 -152l-37 17c8 23 17 54 17 84c0 17 -35 38 -48 43z" />
    <glyph glyph-name="Omega" unicode="&#x3a9;" horiz-adv-x="883" 
d="M463 670c159 0 308 -104 308 -299c0 -125 -72 -220 -170 -283v-8l135 3c13 23 24 74 27 100c0 0 11 8 31 8c11 0 22 -5 29 -10c0 -35 -2 -127 -9 -181h-318v79c89 89 111 196 111 292c0 145 -71 221 -173 221s-158 -78 -158 -221c0 -96 24 -205 112 -292v-79h-319
c-7 54 -9 146 -9 181c7 5 18 10 29 10c20 0 31 -8 31 -8c3 -26 14 -77 27 -100l135 -3v9c-98 63 -170 150 -170 275c0 195 158 306 351 306z" />
    <glyph glyph-name="pi" unicode="&#x3c0;" horiz-adv-x="590" 
d="M44 476h523v-103l-110 -2v-206c0 -65 7 -90 41 -90c21 0 39 4 52 8l11 -56c-15 -9 -73 -32 -124 -32c-63 0 -95 27 -95 97c0 28 5 118 11 278l-117 -2c-4 -275 -23 -368 -23 -368h-131s50 152 50 367l-111 -1z" />
    <glyph glyph-name="Wgrave" unicode="&#x1e80;" horiz-adv-x="1019" 
d="M684 0l-172 460l-156 -460h-118l-175 590l-79 14c-2 6 -3 11 -3 16c0 28 28 41 28 41s74 -2 135 -2c58 0 155 2 155 2s0 -31 -23 -57c0 0 -37 -8 -64 -14l118 -422l167 492h83l174 -485l112 415l-80 14c-2 6 -3 11 -3 16c0 28 28 41 28 41s53 -2 114 -2c56 0 122 2 122 2
s-2 -36 -23 -57c0 0 -35 -8 -60 -14l-163 -590h-117zM426 811c4 44 39 68 88 68c6 0 12 0 18 -1c21 -60 53 -93 106 -128l-15 -38c-109 11 -184 52 -197 99z" />
    <glyph glyph-name="wgrave" unicode="&#x1e81;" horiz-adv-x="805" 
d="M182 0l-142 406l-63 19c-2 5 -3 11 -3 15c0 26 28 37 28 37s74 -1 117 -1s150 1 150 1s-3 -24 -26 -52l-57 -19l82 -247l129 317h67l119 -316l82 246l-65 19c-2 5 -3 11 -3 15c0 26 28 37 28 37s42 -1 85 -1s121 1 121 1s-3 -24 -26 -52l-53 -19l-139 -406h-95l-115 288
l-122 -288h-99zM319 667c2 47 44 73 102 73c11 -68 25 -119 73 -170l-18 -27c-67 15 -151 72 -157 124z" />
    <glyph glyph-name="Wacute" unicode="&#x1e82;" horiz-adv-x="1019" 
d="M684 0l-172 460l-156 -460h-118l-175 590l-79 14c-2 6 -3 11 -3 16c0 28 28 41 28 41s74 -2 135 -2c58 0 155 2 155 2s0 -31 -23 -57c0 0 -37 -8 -64 -14l118 -422l167 492h83l174 -485l112 415l-80 14c-2 6 -3 11 -3 16c0 28 28 41 28 41s53 -2 114 -2c56 0 122 2 122 2
s-2 -36 -23 -57c0 0 -35 -8 -60 -14l-163 -590h-117zM631 791c-18 -47 -109 -76 -175 -76h-12l-11 32c63 37 91 82 120 143c48 -13 80 -42 80 -82c0 -5 -1 -11 -2 -17z" />
    <glyph glyph-name="wacute" unicode="&#x1e83;" horiz-adv-x="805" 
d="M182 0l-142 406l-63 19c-2 5 -3 11 -3 15c0 26 28 37 28 37s74 -1 117 -1s150 1 150 1s-3 -24 -26 -52l-57 -19l82 -247l129 317h67l119 -316l82 246l-65 19c-2 5 -3 11 -3 15c0 26 28 37 28 37s42 -1 85 -1s121 1 121 1s-3 -24 -26 -52l-53 -19l-139 -406h-95l-115 288
l-122 -288h-99zM513 664c-7 -58 -95 -107 -162 -122l-19 28c50 53 65 104 76 170c56 0 97 -21 105 -76z" />
    <glyph glyph-name="Wdieresis" unicode="&#x1e84;" horiz-adv-x="1019" 
d="M684 0l-172 460l-156 -460h-118l-175 590l-79 14c-2 6 -3 11 -3 16c0 28 28 41 28 41s74 -2 135 -2c58 0 155 2 155 2s0 -31 -23 -57c0 0 -37 -8 -64 -14l118 -422l167 492h83l174 -485l112 415l-80 14c-2 6 -3 11 -3 16c0 28 28 41 28 41s53 -2 114 -2c56 0 122 2 122 2
s-2 -36 -23 -57c0 0 -35 -8 -60 -14l-163 -590h-117zM567 788c0 39 31 70 70 70s70 -31 70 -70s-31 -70 -70 -70s-70 31 -70 70zM370 788c0 39 31 70 70 70s70 -31 70 -70s-31 -70 -70 -70s-70 31 -70 70z" />
    <glyph glyph-name="wdieresis" unicode="&#x1e85;" horiz-adv-x="805" 
d="M182 0l-142 406l-63 19c-2 5 -3 11 -3 15c0 26 28 37 28 37s74 -1 117 -1s150 1 150 1s-3 -24 -26 -52l-57 -19l82 -247l129 317h67l119 -316l82 246l-65 19c-2 5 -3 11 -3 15c0 26 28 37 28 37s42 -1 85 -1s121 1 121 1s-3 -24 -26 -52l-53 -19l-139 -406h-95l-115 288
l-122 -288h-99zM446 647c0 39 31 70 70 70s70 -31 70 -70s-31 -70 -70 -70s-70 31 -70 70zM249 647c0 39 31 70 70 70s70 -31 70 -70s-31 -70 -70 -70s-70 31 -70 70z" />
    <glyph glyph-name="Ygrave" unicode="&#x1ef2;" horiz-adv-x="636" 
d="M250 71v197l-176 322l-79 14c-2 6 -3 11 -3 16c0 28 28 41 28 41s67 -2 128 -2c58 0 163 2 163 2s-1 -34 -23 -57c0 0 -37 -8 -59 -14l117 -239l117 239l-75 14c-2 6 -3 11 -3 16c0 28 28 41 28 41s40 -2 101 -2c58 0 143 2 143 2s-1 -34 -23 -57c0 0 -38 -8 -65 -14
l-173 -322v-197c35 -7 88 -16 88 -16s0 -33 -23 -57c0 0 -95 4 -143 4c-47 0 -157 -4 -157 -4c-2 6 -3 11 -3 16c0 28 28 41 28 41zM209 811c4 44 39 68 88 68c6 0 12 0 18 -1c21 -60 53 -93 106 -128l-15 -38c-109 11 -184 52 -197 99z" />
    <glyph glyph-name="ygrave" unicode="&#x1ef3;" horiz-adv-x="542" 
d="M50 406l-63 19c-2 5 -3 11 -3 15c0 26 28 37 28 37s74 -1 117 -1s153 1 153 1s-5 -24 -28 -52l-50 -19l98 -252l99 252l-68 19c-2 5 -3 11 -3 15c0 26 28 37 28 37s56 -1 96 -1c43 0 115 1 115 1s-3 -24 -26 -52l-46 -19l-166 -393c-46 -109 -105 -227 -153 -257
c-5 -1 -10 -1 -15 -1c-53 0 -98 35 -106 87c50 10 138 47 174 146l4 11zM184 667c2 47 44 73 102 73c11 -68 25 -119 73 -170l-18 -27c-67 15 -151 72 -157 124z" />
    <glyph glyph-name="endash" unicode="&#x2013;" horiz-adv-x="645" 
d="M544 215h-455c-2 8 -3 21 -3 30c0 35 10 60 15 70h455c2 -8 3 -21 3 -30c0 -35 -10 -60 -15 -70z" />
    <glyph glyph-name="emdash" unicode="&#x2014;" horiz-adv-x="878" 
d="M777 215h-688c-2 8 -3 21 -3 30c0 35 10 60 15 70h688c2 -8 3 -21 3 -30c0 -35 -10 -60 -15 -70z" />
    <glyph glyph-name="quoteleft" unicode="&#x2018;" horiz-adv-x="233" 
d="M198 505c0 -26 -7 -88 -64 -99c-55 3 -99 35 -99 99c0 82 73 172 101 201l42 -30c-13 -21 -42 -72 -42 -127c0 -17 31 -36 62 -44z" />
    <glyph glyph-name="quoteright" unicode="&#x2019;" horiz-adv-x="233" 
d="M35 607c0 26 7 88 64 99c55 -3 99 -35 99 -99c0 -82 -73 -172 -101 -201l-42 30c13 21 42 72 42 127c0 17 -31 36 -62 44z" />
    <glyph glyph-name="quotesinglbase" unicode="&#x201a;" horiz-adv-x="236" 
d="M38 58c0 26 7 88 64 99c55 -3 99 -35 99 -99c0 -82 -73 -172 -101 -201l-42 30c13 21 42 72 42 127c0 17 -31 36 -62 44z" />
    <glyph glyph-name="quotedblleft" unicode="&#x201c;" horiz-adv-x="435" 
d="M198 505c0 -26 -7 -88 -64 -99c-55 3 -99 35 -99 99c0 82 73 172 101 201l42 -30c-13 -21 -42 -72 -42 -127c0 -17 31 -36 62 -44zM397 505c0 -26 -7 -88 -64 -99c-55 3 -99 35 -99 99c0 82 73 172 101 201l42 -30c-13 -21 -42 -72 -42 -127c0 -17 31 -36 62 -44z" />
    <glyph glyph-name="quotedblright" unicode="&#x201d;" horiz-adv-x="435" 
d="M38 607c0 26 7 88 64 99c55 -3 99 -35 99 -99c0 -82 -73 -172 -101 -201l-42 30c13 21 42 72 42 127c0 17 -31 36 -62 44zM237 607c0 26 7 88 64 99c55 -3 99 -35 99 -99c0 -82 -73 -172 -101 -201l-42 30c13 21 42 72 42 127c0 17 -31 36 -62 44z" />
    <glyph glyph-name="quotedblbase" unicode="&#x201e;" horiz-adv-x="432" 
d="M38 58c0 26 7 88 64 99c55 -3 99 -35 99 -99c0 -82 -73 -172 -101 -201l-42 30c13 21 42 72 42 127c0 17 -31 36 -62 44zM234 58c0 26 7 88 64 99c55 -3 99 -35 99 -99c0 -82 -73 -172 -101 -201l-42 30c13 21 42 72 42 127c0 17 -31 36 -62 44z" />
    <glyph glyph-name="dagger" unicode="&#x2020;" horiz-adv-x="446" 
d="M285 630c0 -50 -29 -119 -42 -150c34 14 94 37 137 37h16c15 -18 24 -40 24 -64s-9 -46 -24 -64h-16c-43 0 -103 23 -137 36c11 -30 42 -100 42 -149c0 -90 -40 -377 -40 -377h-48s-40 279 -40 377c0 48 27 116 40 147c-35 -14 -90 -34 -131 -34h-16
c-15 18 -24 40 -24 64s9 46 24 64h16c41 0 96 -20 131 -34c-13 32 -40 99 -40 147v16c18 15 40 24 64 24s46 -9 64 -24v-16z" />
    <glyph glyph-name="daggerdbl" unicode="&#x2021;" horiz-adv-x="446" 
d="M198 425c-35 -14 -91 -36 -132 -36h-16c-15 18 -24 40 -24 64s9 46 24 64h16c41 0 96 -20 131 -34c-13 32 -40 99 -40 147v16c18 15 40 24 64 24s46 -9 64 -24v-16c0 -50 -29 -119 -42 -150c34 14 94 37 137 37h16c15 -18 24 -40 24 -64s-9 -46 -24 -64h-16
c-43 0 -103 23 -137 36c11 -30 42 -95 42 -139s-31 -109 -42 -139c34 13 94 36 137 36h16c15 -18 24 -40 24 -64s-9 -46 -24 -64h-16c-43 0 -103 23 -137 37c13 -31 42 -100 42 -150v-16c-18 -15 -40 -24 -64 -24s-46 9 -64 24v16c0 48 27 115 40 147
c-35 -14 -90 -34 -131 -34h-16c-15 18 -24 40 -24 64s9 46 24 64h16c41 0 97 -22 132 -36c-11 30 -42 95 -42 139s31 109 42 139z" />
    <glyph glyph-name="bullet" unicode="&#x2022;" horiz-adv-x="361" 
d="M58 342c0 71 53 127 122 127s123 -56 123 -127s-54 -124 -123 -124s-122 53 -122 124z" />
    <glyph glyph-name="ellipsis" unicode="&#x2026;" horiz-adv-x="867" 
d="M62 74c0 45 32 81 80 81s83 -35 83 -80c0 -48 -35 -85 -83 -85s-80 36 -80 84zM351 74c0 45 32 81 80 81s83 -35 83 -80c0 -48 -35 -85 -83 -85s-80 36 -80 84zM642 74c0 45 32 81 80 81s83 -35 83 -80c0 -48 -35 -85 -83 -85s-80 36 -80 84z" />
    <glyph glyph-name="perthousand" unicode="&#x2030;" horiz-adv-x="948" 
d="M153 264c-72 0 -122 34 -122 117c0 90 75 134 134 134c74 0 122 -39 122 -117c0 -92 -74 -134 -134 -134zM121 394c0 -36 7 -71 41 -71c23 0 36 18 36 61c0 36 -6 71 -41 71c-24 0 -36 -17 -36 -61zM494 -10c-72 0 -122 34 -122 117c0 90 75 134 134 134
c74 0 122 -39 122 -117c0 -92 -74 -134 -134 -134zM462 120c0 -36 7 -71 41 -71c23 0 36 18 36 61c0 36 -6 71 -41 71c-24 0 -36 -17 -36 -61zM138 18l311 510l68 -42l-311 -510zM785 -10c-72 0 -122 34 -122 117c0 90 75 134 134 134c74 0 122 -39 122 -117
c0 -92 -74 -134 -134 -134zM753 120c0 -36 7 -71 41 -71c23 0 36 18 36 61c0 36 -6 71 -41 71c-24 0 -36 -17 -36 -61z" />
    <glyph glyph-name="guilsinglleft" unicode="&#x2039;" horiz-adv-x="332" 
d="M44 212v78c96 63 216 161 216 161l28 -36s-49 -88 -123 -164c74 -76 123 -164 123 -164l-28 -36s-120 98 -216 161z" />
    <glyph glyph-name="guilsinglright" unicode="&#x203a;" horiz-adv-x="332" 
d="M288 290v-78c-96 -63 -216 -161 -216 -161l-28 36s49 88 123 164c-74 76 -123 164 -123 164l28 36s120 -98 216 -161z" />
    <glyph glyph-name="fraction" unicode="&#x2044;" horiz-adv-x="311" 
d="M376 648l-331 -693l-70 35l332 691z" />
    <glyph glyph-name="Euro" unicode="&#x20ac;" horiz-adv-x="541" 
d="M335 452c-51 0 -83 -40 -93 -114h167c0 -25 -15 -46 -23 -54h-148c0 -16 0 -33 2 -52h169c0 -25 -15 -46 -23 -54h-137c20 -74 67 -102 131 -102c40 0 84 13 111 26l18 -50c-30 -20 -97 -62 -197 -62c-93 0 -183 53 -205 188h-69c0 25 15 46 23 54h41v11c0 14 1 28 2 41
h-66c0 25 15 46 23 54h55c37 118 143 191 254 191c68 0 111 -17 136 -35c5 -10 7 -21 7 -32c0 -38 -23 -69 -51 -84c-16 25 -67 74 -127 74z" />
    <glyph glyph-name="uni2113" unicode="&#x2113;" horiz-adv-x="456" 
d="M31 220c29 14 58 29 87 44v242c0 105 57 191 172 191c90 0 134 -57 134 -145c0 -131 -74 -223 -173 -292v-80c0 -74 18 -106 65 -106c29 0 67 10 103 28l19 -51c-25 -22 -91 -61 -178 -61c-96 0 -142 60 -142 148v50c-21 -9 -43 -18 -67 -27zM296 617
c-24 0 -45 -16 -45 -85v-181c50 48 84 112 84 198c0 51 -17 68 -39 68z" />
    <glyph glyph-name="uni2116" unicode="&#x2116;" horiz-adv-x="1201" 
d="M803 273h316v-86h-316v86zM956 328c-87 0 -163 49 -163 160c0 124 93 180 174 180c80 0 161 -43 161 -160c0 -125 -91 -180 -172 -180zM904 505c0 -75 20 -123 61 -123c34 0 54 30 54 109c0 75 -20 122 -61 122c-34 0 -54 -26 -54 -108zM220 71c39 -7 98 -16 98 -16
s0 -35 -23 -57c0 0 -71 4 -123 4c-47 0 -145 -4 -145 -4c-2 6 -3 11 -3 16c0 28 28 41 28 41l64 16l6 519l-89 14c-2 6 -3 11 -3 16c0 28 28 40 28 40h189l325 -433l-5 363l-89 14c-2 6 -3 11 -3 16c0 28 28 41 28 41s56 -2 117 -2c60 0 137 2 137 2s-1 -35 -23 -57
c0 0 -38 -8 -65 -14l-6 -590h-94l-355 473z" />
    <glyph glyph-name="trademark" unicode="&#x2122;" horiz-adv-x="767" 
d="M253 618l-54 2v-195c15 -3 39 -6 39 -6s0 -23 -9 -31c0 0 -49 2 -70 2c-19 0 -66 -2 -66 -2c-1 3 -1 8 -1 10c0 11 11 21 11 21l26 6v195l-54 -2c-6 -14 -9 -35 -10 -49c0 0 -7 -3 -14 -3c-3 0 -12 1 -17 4v8c0 24 1 62 4 82h252c3 -20 5 -58 5 -82c0 -3 0 -5 -1 -8
c-4 -3 -13 -4 -17 -4c-7 0 -13 3 -13 3c-2 14 -6 38 -11 49zM661 626l21 -201c14 -3 35 -6 35 -6s0 -21 -9 -31c0 0 -46 2 -66 2c-18 0 -58 -2 -58 -2c-1 3 -1 5 -1 7c0 11 12 24 12 24l23 6l-16 175l-71 -211h-56l-74 208l-15 -172c14 -3 37 -6 37 -6s0 -22 -9 -31
c0 0 -26 2 -46 2c-19 0 -62 -2 -62 -2c-1 3 -1 5 -1 7c0 11 12 24 12 24l23 6l20 201l-33 5c-1 3 -1 5 -1 7c0 11 11 22 11 22h112l64 -191l64 191h116s0 -19 -9 -29c0 0 -12 -3 -23 -5z" />
    <glyph glyph-name="estimated" unicode="&#x212e;" horiz-adv-x="902" 
d="M852 339h-642v-225c60 -53 142 -86 241 -86c135 0 228 47 327 146l27 -27c-88 -90 -191 -157 -354 -157c-227 0 -401 171 -401 374c0 206 183 374 401 374s401 -168 401 -374v-25zM451 700c-94 0 -179 -35 -241 -90v-235h483v235c-63 55 -148 90 -242 90z" />
    <glyph glyph-name="onethird" unicode="&#x2153;" horiz-adv-x="823" 
d="M111 383v211h-76c-1 3 -1 9 -1 12c0 25 23 39 23 39s89 10 164 19v-281c32 -6 73 -13 73 -13s-3 -31 -17 -48c0 0 -56 3 -110 3c-52 0 -128 -3 -128 -3c-2 4 -2 11 -2 14c0 21 21 34 21 34zM590 648l-331 -693l-70 35l332 691zM597 49c37 0 53 22 53 57
c0 34 -24 50 -79 50h-43v39c69 6 103 23 103 59c0 24 -14 36 -40 36c-30 0 -57 -12 -79 -24l-18 34c30 17 76 43 142 43c76 0 116 -21 116 -71c0 -41 -48 -74 -86 -79c58 0 104 -25 104 -74c0 -70 -77 -126 -191 -126c-35 0 -81 7 -97 21c-4 7 -6 16 -6 24c0 25 16 49 36 58
c16 -19 55 -47 85 -47z" />
    <glyph glyph-name="twothirds" unicode="&#x2154;" horiz-adv-x="883" 
d="M652 648l-331 -693l-70 35l332 691zM659 49c37 0 53 22 53 57c0 34 -24 50 -79 50h-43v39c69 6 103 23 103 59c0 24 -14 36 -40 36c-30 0 -57 -12 -79 -24l-18 34c30 17 76 43 142 43c76 0 116 -21 116 -71c0 -41 -48 -74 -86 -79c58 0 104 -25 104 -74
c0 -70 -77 -126 -191 -126c-35 0 -81 7 -97 21c-4 7 -6 16 -6 24c0 25 16 49 36 58c16 -19 55 -47 85 -47zM340 324h-303v44s55 43 75 62c65 63 83 95 83 129c0 29 -14 45 -51 45c-35 0 -62 -16 -80 -27l-15 40c43 28 90 50 148 50c68 0 119 -30 119 -89
c0 -86 -97 -142 -179 -190l150 8c5 13 11 37 14 53c7 5 14 8 22 8c9 0 18 -3 25 -9v-20c0 -25 -2 -67 -8 -104z" />
    <glyph glyph-name="oneeighth" unicode="&#x215b;" horiz-adv-x="832" 
d="M771 266c0 -29 -22 -58 -69 -79c57 -24 81 -48 81 -92c0 -54 -60 -105 -165 -105c-88 0 -141 36 -141 81c0 32 20 61 80 83c-42 19 -69 52 -69 92c0 62 71 97 154 97c84 0 129 -33 129 -77zM675 80c0 23 -24 33 -71 53c-16 -16 -22 -31 -22 -49c0 -33 20 -47 48 -47
s45 20 45 43zM598 262c0 -24 20 -39 57 -55c10 16 13 34 13 47c0 30 -17 44 -38 44c-19 0 -32 -13 -32 -36zM111 383v211h-76c-1 3 -1 9 -1 12c0 25 23 39 23 39s89 10 164 19v-281c32 -6 73 -13 73 -13s-3 -31 -17 -48c0 0 -56 3 -110 3c-52 0 -128 -3 -128 -3
c-2 4 -2 11 -2 14c0 21 21 34 21 34zM593 648l-331 -693l-70 35l332 691z" />
    <glyph glyph-name="threeeighths" unicode="&#x215c;" horiz-adv-x="851" 
d="M790 266c0 -29 -22 -58 -69 -79c57 -24 81 -48 81 -92c0 -54 -60 -105 -165 -105c-88 0 -141 36 -141 81c0 32 20 61 80 83c-42 19 -69 52 -69 92c0 62 71 97 154 97c84 0 129 -33 129 -77zM694 80c0 23 -24 33 -71 53c-16 -16 -22 -31 -22 -49c0 -33 20 -47 48 -47
s45 20 45 43zM617 262c0 -24 20 -39 57 -55c10 16 13 34 13 47c0 30 -17 44 -38 44c-19 0 -32 -13 -32 -36zM612 648l-331 -693l-70 35l332 691zM155 373c37 0 53 22 53 57c0 34 -24 50 -79 50h-43v39c69 6 103 23 103 59c0 24 -14 36 -40 36c-30 0 -57 -12 -79 -24l-18 34
c30 17 76 43 142 43c76 0 116 -21 116 -71c0 -41 -48 -74 -86 -79c58 0 104 -25 104 -74c0 -70 -77 -126 -191 -126c-35 0 -81 7 -97 21c-4 7 -6 16 -6 24c0 25 16 49 36 58c16 -19 55 -47 85 -47z" />
    <glyph glyph-name="fiveeighths" unicode="&#x215d;" horiz-adv-x="831" 
d="M146 377c33 0 51 21 51 53c0 40 -26 51 -51 51c-24 0 -43 -6 -66 -15l-25 18l16 176h218l-5 -72h-154l-8 -61c19 8 42 12 64 12c75 0 118 -34 118 -94c0 -77 -77 -128 -170 -128c-35 0 -72 5 -93 20c-2 4 -3 12 -3 18c0 18 11 48 35 57c15 -15 44 -35 73 -35zM770 266
c0 -29 -22 -58 -69 -79c57 -24 81 -48 81 -92c0 -54 -60 -105 -165 -105c-88 0 -141 36 -141 81c0 32 20 61 80 83c-42 19 -69 52 -69 92c0 62 71 97 154 97c84 0 129 -33 129 -77zM674 80c0 23 -24 33 -71 53c-16 -16 -22 -31 -22 -49c0 -33 20 -47 48 -47s45 20 45 43z
M597 262c0 -24 20 -39 57 -55c10 16 13 34 13 47c0 30 -17 44 -38 44c-19 0 -32 -13 -32 -36zM591 648l-331 -693l-70 35l332 691z" />
    <glyph glyph-name="seveneighths" unicode="&#x215e;" horiz-adv-x="799" 
d="M40 660h268v-38l-117 -314l-92 30l117 250h-123c-5 -14 -10 -37 -13 -54c-7 -3 -14 -5 -22 -5c-9 0 -19 2 -26 7c0 29 2 89 8 124zM738 266c0 -29 -22 -58 -69 -79c57 -24 81 -48 81 -92c0 -54 -60 -105 -165 -105c-88 0 -141 36 -141 81c0 32 20 61 80 83
c-42 19 -69 52 -69 92c0 62 71 97 154 97c84 0 129 -33 129 -77zM642 80c0 23 -24 33 -71 53c-16 -16 -22 -31 -22 -49c0 -33 20 -47 48 -47s45 20 45 43zM565 262c0 -24 20 -39 57 -55c10 16 13 34 13 47c0 30 -17 44 -38 44c-19 0 -32 -13 -32 -36zM559 648l-331 -693
l-70 35l332 691z" />
    <glyph glyph-name="partialdiff" unicode="&#x2202;" horiz-adv-x="557" 
d="M264 421c41 0 80 -13 112 -37v19c0 110 -35 182 -113 182c-42 0 -83 -18 -106 -35l-29 45c28 27 88 65 160 65c162 0 229 -129 229 -297c0 -200 -92 -373 -280 -373c-117 0 -199 59 -199 192c0 143 94 239 226 239zM251 61c88 0 116 125 123 254c-31 25 -65 34 -93 34
c-71 0 -106 -77 -106 -176c0 -68 22 -112 76 -112z" />
    <glyph glyph-name="Delta" unicode="&#x2206;" horiz-adv-x="671" 
d="M458 83l-144 431l-150 -431h294zM33 0l246 660h116l243 -660h-605z" />
    <glyph glyph-name="product" unicode="&#x220f;" horiz-adv-x="759" 
d="M180 -117c-47 0 -155 -4 -155 -4c-2 6 -3 11 -3 16c0 28 28 41 28 41l64 16v637l-89 14c-2 6 -3 11 -3 16c0 28 28 41 28 41h687s-1 -35 -23 -57c0 0 -38 -8 -65 -14v-637l88 -16s-1 -36 -23 -57c0 0 -97 4 -145 4c-47 0 -148 -4 -148 -4c-1 4 -1 8 -1 12
c0 19 10 36 27 45l56 16v618h-243v-618l79 -16s-2 -35 -21 -57c0 0 -90 4 -138 4z" />
    <glyph glyph-name="summation" unicode="&#x2211;" horiz-adv-x="584" 
d="M208 582l182 -287l-236 -332l326 9c10 23 19 85 22 109c0 0 16 7 31 7c13 0 22 -3 29 -8c0 -48 -6 -147 -13 -200h-523l-19 34l239 342l-243 371l17 33h512c7 -54 13 -162 13 -197c-7 -5 -17 -8 -27 -8c-19 0 -33 7 -33 7c-3 26 -13 93 -27 115z" />
    <glyph glyph-name="minus" unicode="&#x2212;" horiz-adv-x="578" 
d="M71 306h436v-92h-436v92z" />
    <glyph glyph-name="radical" unicode="&#x221a;" horiz-adv-x="608" 
d="M244 447l122 -351l152 707h98l-194 -868h-99l-148 395l-99 -34l-29 81z" />
    <glyph glyph-name="infinity" unicode="&#x221e;" horiz-adv-x="890" 
d="M251 483c80 0 137 -38 198 -111c57 71 119 115 195 115c115 0 181 -69 181 -167c0 -109 -75 -186 -186 -186c-81 0 -135 36 -198 110c-54 -69 -114 -114 -190 -114c-103 0 -185 63 -185 167c0 110 75 186 185 186zM639 402c-48 0 -95 -24 -145 -86
c56 -68 96 -101 153 -101c55 0 91 38 91 94c0 64 -42 93 -99 93zM254 215c46 0 98 32 142 84c-50 61 -96 103 -153 103c-47 0 -91 -30 -91 -93s45 -94 102 -94z" />
    <glyph glyph-name="integral" unicode="&#x222b;" horiz-adv-x="357" 
d="M116 -44v638c0 99 56 139 137 139c33 0 74 -9 112 -30l-24 -55c-21 10 -39 15 -60 15c-28 0 -45 -15 -45 -62v-637c0 -99 -56 -140 -137 -140c-33 0 -74 9 -112 30l24 55c21 -10 39 -15 60 -15c28 0 45 15 45 62z" />
    <glyph glyph-name="approxequal" unicode="&#x2248;" horiz-adv-x="591" 
d="M203 337c-38 0 -65 -16 -95 -42l-37 33c23 41 79 105 153 105c72 0 105 -56 164 -56c38 0 65 16 95 42l37 -33c-23 -41 -79 -105 -153 -105c-71 0 -111 56 -164 56zM203 146c-38 0 -65 -16 -95 -42l-37 33c23 41 79 105 153 105c72 0 105 -56 164 -56c38 0 65 16 95 42
l37 -33c-23 -41 -79 -105 -153 -105c-71 0 -111 56 -164 56z" />
    <glyph glyph-name="notequal" unicode="&#x2260;" horiz-adv-x="578" 
d="M71 398h244l40 92l56 -27l-28 -65h124v-92h-163l-40 -92h203v-92h-242l-41 -96l-56 27l29 69h-126v92h166l39 92h-205v92z" />
    <glyph glyph-name="lessequal" unicode="&#x2264;" horiz-adv-x="578" 
d="M207 334l279 -123l-33 -81l-382 175v58l382 175l33 -81zM71 87h436v-87h-436v87z" />
    <glyph glyph-name="greaterequal" unicode="&#x2265;" horiz-adv-x="578" 
d="M92 211l279 123l-279 123l33 81l382 -175v-58l-382 -175zM71 87h436v-87h-436v87z" />
    <glyph glyph-name="lozenge" unicode="&#x25ca;" horiz-adv-x="598" 
d="M60 330l213 330h52l213 -330l-213 -330h-52zM299 540l-129 -210l129 -210l129 210z" />
    <glyph glyph-name="Apple" unicode="&#xf8ff;" horiz-adv-x="780" 
d="M70 158v352c0 96 74 170 170 170h340c96 0 170 -73 170 -169s-74 -169 -170 -169h-170v-184c0 -96 -73 -170 -170 -170s-170 74 -170 170z" />
    <glyph glyph-name="acute.case" horiz-adv-x="350" 
d="M273 791c-18 -47 -109 -76 -175 -76h-12l-11 32c63 37 91 82 120 143c48 -13 80 -42 80 -82c0 -5 -1 -11 -2 -17z" />
    <glyph glyph-name="breve.case" horiz-adv-x="442" 
d="M221 718c-94 0 -133 80 -146 115l39 31c29 -39 65 -54 107 -54s79 15 107 54l39 -31c-13 -35 -52 -115 -146 -115z" />
    <glyph glyph-name="caron.case" horiz-adv-x="480" 
d="M369 871l36 -32l-129 -124h-93c-18 49 -58 88 -108 111l43 38c50 -6 116 -40 141 -71z" />
    <glyph glyph-name="circumflex.case" horiz-adv-x="480" 
d="M111 707l-36 32l129 124h93c18 -49 58 -88 108 -111l-43 -38c-50 6 -116 40 -141 71z" />
    <glyph glyph-name="dieresis.case" horiz-adv-x="487" 
d="M272 788c0 39 31 70 70 70s70 -31 70 -70s-31 -70 -70 -70s-70 31 -70 70zM75 788c0 39 31 70 70 70s70 -31 70 -70s-31 -70 -70 -70s-70 31 -70 70z" />
    <glyph glyph-name="dotaccent.case" horiz-adv-x="294" 
d="M75 791c0 40 29 73 72 73s72 -33 72 -73s-30 -73 -72 -73s-72 33 -72 73z" />
    <glyph glyph-name="grave.case" horiz-adv-x="362" 
d="M75 811c4 44 39 68 88 68c6 0 12 0 18 -1c21 -60 53 -93 106 -128l-15 -38c-109 11 -184 52 -197 99z" />
    <glyph glyph-name="hungarumlaut.case" horiz-adv-x="553" 
d="M272 791c-18 -47 -108 -75 -174 -75h-12l-11 31c63 36 92 81 120 143c48 -13 79 -43 79 -82c0 -6 -1 -12 -2 -17zM476 791c-18 -47 -108 -75 -174 -75h-12l-11 31c63 36 92 81 120 143c48 -13 79 -43 79 -82c0 -6 -1 -12 -2 -17z" />
    <glyph glyph-name="macron.case" horiz-adv-x="445" 
d="M89 827h279c2 -7 2 -15 2 -22c0 -34 -14 -59 -14 -59h-279c-1 5 -2 14 -2 21c0 33 14 60 14 60z" />
    <glyph glyph-name="ring.case" horiz-adv-x="372" 
d="M297 805c0 -54 -38 -104 -111 -104s-111 50 -111 104s38 104 111 104s111 -50 111 -104zM186 757c30 0 42 21 42 48s-12 48 -42 48s-42 -21 -42 -48s13 -48 42 -48z" />
    <glyph glyph-name="tilde.case" horiz-adv-x="462" 
d="M297 812c28 0 40 15 58 34l32 -24c-14 -43 -50 -101 -109 -101c-49 0 -71 49 -111 49c-30 0 -42 -15 -60 -34l-32 24c14 43 51 101 109 101c53 0 68 -49 113 -49z" />
    <glyph glyph-name="zero.tnum" 
d="M267 -10c-121 0 -232 66 -232 251c0 196 128 288 248 288c121 0 232 -65 232 -250c0 -198 -128 -289 -248 -289zM190 271c0 -119 26 -206 90 -206c49 0 80 46 80 184c0 119 -26 205 -90 205c-49 0 -80 -41 -80 -183z" />
    <glyph glyph-name="one.tnum" 
d="M234 69v367h-135c-1 5 -2 10 -2 14c0 31 26 46 26 46s150 14 252 28v-455c41 -8 129 -16 129 -16s-1 -31 -23 -55c0 0 -118 4 -177 4c-55 0 -197 -4 -197 -4c-2 5 -2 10 -2 14c0 27 27 41 27 41z" />
    <glyph glyph-name="two.tnum" 
d="M504 0h-468v61s78 60 109 86c90 74 156 139 156 213c0 53 -23 83 -80 83c-63 0 -112 -25 -138 -40l-21 55c26 16 114 71 211 71c114 0 186 -44 186 -138c0 -108 -104 -182 -167 -225c-38 -26 -115 -77 -115 -77l251 14c12 24 22 64 26 98c8 6 18 10 30 10
c11 0 22 -4 29 -11c0 -10 1 -23 1 -38c0 -49 -3 -118 -10 -162z" />
    <glyph glyph-name="three.tnum" 
d="M221 -76c89 0 114 61 114 129c0 82 -46 132 -138 132h-70v55c81 10 180 37 180 130c0 47 -27 73 -80 73c-55 0 -99 -20 -129 -36l-21 52c40 26 119 70 209 70c118 0 173 -51 173 -126c0 -79 -65 -134 -133 -160c96 -12 165 -60 165 -156c0 -134 -125 -238 -290 -238
c-62 0 -124 15 -150 38c-4 9 -5 18 -5 28c0 31 18 65 57 78c23 -23 58 -69 118 -69z" />
    <glyph glyph-name="four.tnum" 
d="M11 53v58l323 408h85v-381l116 2l-4 -87h-112v-194h-136v194h-272zM118 134l165 2v207z" />
    <glyph glyph-name="five.tnum" 
d="M222 -76c92 0 114 73 114 146c0 77 -38 126 -103 126c-52 0 -85 -13 -119 -27l-28 23l24 327h356l-7 -112h-268l-14 -152c31 12 68 22 116 22c130 0 199 -74 199 -185c0 -138 -119 -243 -294 -243c-62 0 -119 15 -142 37c-1 8 -2 15 -2 23c0 37 16 71 55 84
c22 -23 56 -69 113 -69z" />
    <glyph glyph-name="six.tnum" 
d="M462 609c-153 -19 -237 -85 -262 -222c25 18 73 46 132 46c85 0 184 -43 184 -197c0 -156 -109 -246 -242 -246c-131 0 -236 75 -236 275c0 210 130 384 417 408zM193 295c0 -129 21 -230 94 -230c62 0 74 60 74 141c0 100 -36 143 -105 143c-26 0 -47 -6 -62 -13
c-1 -15 -1 -27 -1 -41z" />
    <glyph glyph-name="seven.tnum" 
d="M83 519h433v-68l-213 -602l-113 41l201 517h-237c-7 -24 -18 -75 -22 -106c-9 -7 -19 -10 -30 -10c-13 0 -26 5 -34 12c0 44 6 150 15 216z" />
    <glyph glyph-name="eight.tnum" 
d="M71 497c0 106 118 173 236 173c129 0 194 -61 194 -140c0 -75 -62 -127 -123 -160c77 -41 144 -77 144 -182c0 -106 -106 -198 -257 -198c-138 0 -214 63 -214 155c0 79 58 138 141 181c-67 37 -121 87 -121 171zM286 61c65 0 84 51 84 101c0 74 -50 102 -122 137
c-35 -36 -54 -74 -54 -128c0 -63 35 -110 92 -110zM221 522c0 -65 43 -93 101 -123c21 25 39 63 39 108c0 57 -30 95 -75 95c-43 0 -65 -32 -65 -80z" />
    <glyph glyph-name="nine.tnum" 
d="M94 -90c153 19 237 85 261 221c-25 -17 -72 -45 -131 -45c-85 0 -184 43 -184 197c0 156 109 246 242 246c131 0 236 -75 236 -275c0 -210 -130 -384 -417 -408zM363 224c0 129 -21 230 -94 230c-62 0 -74 -60 -74 -141c0 -100 36 -143 105 -143c25 0 46 6 61 12
c1 13 2 27 2 42z" />
    <glyph glyph-name="cent.tnum" 
d="M228 283c0 -110 45 -163 132 -163c31 0 77 11 108 24l18 -50c-14 -10 -64 -42 -133 -55v-94c-11 -7 -36 -19 -76 -19h-14v108c-102 10 -190 75 -190 216c0 125 84 209 190 238v99c11 7 36 19 76 19h14v-107c66 -1 116 -24 132 -39c4 -9 6 -23 6 -35
c0 -29 -20 -72 -60 -91c-13 23 -60 81 -108 81c-58 0 -95 -48 -95 -132z" />
    <glyph glyph-name="dollar.tnum" 
d="M108 25c-2 18 -3 50 -3 73c0 28 1 57 3 72c10 7 19 9 28 9c15 0 28 -8 28 -8c4 -30 11 -70 26 -98c23 -13 54 -15 76 -15c55 0 69 31 69 65c0 44 -33 65 -103 97c-86 40 -121 74 -121 146c0 70 52 129 141 147v94c11 7 36 19 76 19h14v-108c47 -3 91 -14 112 -23
c4 -21 6 -57 6 -84c0 -23 -1 -42 -3 -51c-9 -6 -17 -8 -29 -8c-16 0 -26 7 -26 7c-3 24 -8 67 -26 90c-12 5 -39 10 -62 10c-55 0 -75 -22 -75 -58c0 -31 15 -44 101 -84c88 -41 133 -73 133 -156c0 -70 -48 -137 -141 -157v-95c-11 -7 -36 -19 -76 -19h-14v108
c-59 2 -108 17 -134 27z" />
    <glyph glyph-name="Euro.tnum" 
d="M341 452c-51 0 -83 -40 -93 -114h167c0 -25 -15 -46 -23 -54h-148c0 -16 0 -33 2 -52h169c0 -25 -15 -46 -23 -54h-137c20 -74 67 -102 131 -102c40 0 84 13 111 26l18 -50c-30 -20 -97 -62 -197 -62c-93 0 -183 53 -205 188h-69c0 25 15 46 23 54h41v11c0 14 1 28 2 41
h-66c0 25 15 46 23 54h55c37 118 143 191 254 191c68 0 111 -17 136 -35c5 -10 7 -21 7 -32c0 -38 -23 -69 -51 -84c-16 25 -67 74 -127 74z" />
    <glyph glyph-name="sterling.tnum" 
d="M494 -3c0 0 -179 4 -291 4c-53 0 -128 -4 -128 -4c-18 9 -22 26 -22 47c46 33 72 87 72 160c0 9 -1 19 -2 29h-65l-6 30l61 33c-3 14 -4 27 -4 39c0 104 102 194 229 194c64 0 103 -11 119 -16c5 -9 7 -18 7 -28c0 -31 -21 -65 -42 -79c-23 19 -67 48 -122 48
c-45 0 -59 -29 -59 -76c0 -24 4 -46 9 -68l152 3c0 -45 -33 -80 -33 -80h-108c0 -58 -27 -115 -66 -153l231 5c12 26 18 61 21 87c0 0 11 7 30 7c11 0 21 -3 27 -8c0 -50 -2 -116 -10 -174z" />
    <glyph glyph-name="yen.tnum" 
d="M81 207h139v19l-25 40h-137c0 24 15 46 23 54h80l-86 136l-60 11c-2 4 -3 8 -3 12c0 23 25 40 25 40s51 -1 102 -1c44 0 124 1 124 1s-1 -34 -20 -52c0 0 -17 -7 -28 -11l90 -154l92 154l-55 11c-2 4 -2 8 -2 12c0 23 24 40 24 40s25 -1 73 -1c49 0 128 1 128 1
s-1 -34 -21 -52c0 0 -35 -7 -57 -11l-84 -136h99c0 -24 -15 -46 -23 -54h-110l-24 -40v-19h157c0 -24 -15 -46 -23 -54h-134v-87c31 -6 80 -13 80 -13s0 -36 -20 -55c0 0 -89 4 -132 4c-42 0 -134 -4 -134 -4c-2 5 -3 16 -3 20c0 22 25 35 25 35l59 13v87h-162
c0 24 14 46 23 54z" />
    <glyph glyph-name="numbersign.tnum" 
d="M303 0l15 108h-118l-15 -108h-78l15 108h-111c-2 7 -3 14 -3 22c0 19 6 41 19 57h106l19 145h-110c-2 7 -3 14 -3 22c0 19 6 41 19 57h105l15 108h78l-15 -108h118l15 108h78l-15 -108h102c2 -7 3 -14 3 -22c0 -19 -6 -41 -19 -57h-97l-19 -145h101c2 -7 3 -14 3 -22
c0 -19 -6 -41 -19 -57h-96l-15 -108h-78zM230 332l-19 -145h118l19 145h-118z" />
    <glyph glyph-name="plus.tnum" 
d="M57 306h169v174h97v-174h169v-92h-169v-174h-97v174h-169v92z" />
    <glyph glyph-name="plusminus.tnum" 
d="M319 137h-89v125h-142v84h142v133h89v-133h143v-84h-143v-125zM462 0h-374v90h374v-90z" />
    <glyph glyph-name="multiply.tnum" 
d="M489 399l-148 -147l148 -146l-66 -66l-148 147l-148 -147l-66 66l148 146l-148 147l65 66l149 -148l149 148z" />
    <glyph glyph-name="divide.tnum" 
d="M57 297h436v-92h-436v92zM207 70c0 38 27 69 67 69s70 -30 70 -68c0 -40 -30 -71 -70 -71s-67 30 -67 70zM207 421c0 38 27 69 67 69s70 -30 70 -68c0 -40 -30 -71 -70 -71s-67 30 -67 70z" />
    <glyph glyph-name="equal.tnum" 
d="M57 398h436v-92h-436v92zM57 214h436v-92h-436v92z" />
    <glyph glyph-name="notequal.tnum" 
d="M57 398h244l40 92l56 -27l-28 -65h124v-92h-163l-40 -92h203v-92h-242l-41 -96l-56 27l29 69h-126v92h166l39 92h-205v92z" />
    <glyph glyph-name="logicalnot.tnum" 
d="M57 306h436v-273h-97v181h-339v92z" />
    <glyph glyph-name="approxequal.tnum" 
d="M182 337c-38 0 -65 -16 -95 -42l-37 33c23 41 79 105 153 105c72 0 105 -56 164 -56c38 0 65 16 95 42l37 -33c-23 -41 -79 -105 -153 -105c-71 0 -111 56 -164 56zM182 146c-38 0 -65 -16 -95 -42l-37 33c23 41 79 105 153 105c72 0 105 -56 164 -56c38 0 65 16 95 42
l37 -33c-23 -41 -79 -105 -153 -105c-71 0 -111 56 -164 56z" />
    <glyph glyph-name="hyphen.tnum" horiz-adv-x="317" 
d="M53 317h223c2 -12 3 -23 3 -33c0 -35 -11 -61 -15 -69h-223c-2 10 -3 20 -3 30c0 32 11 63 15 72z" />
    <glyph glyph-name="endash.tnum" 
d="M496 215h-455c-2 8 -3 21 -3 30c0 35 10 60 15 70h455c2 -8 3 -21 3 -30c0 -35 -10 -60 -15 -70z" />
    <glyph glyph-name="minus.tnum" 
d="M57 306h436v-92h-436v92z" />
    <glyph glyph-name="less.tnum" 
d="M55 231v58l391 232l48 -81l-306 -180l306 -180l-48 -81z" />
    <glyph glyph-name="greater.tnum" 
d="M495 289v-58l-391 -232l-48 81l306 180l-306 180l48 81z" />
    <glyph glyph-name="lessequal.tnum" 
d="M193 334l279 -123l-33 -81l-382 175v58l382 175l33 -81zM57 87h436v-87h-436v87z" />
    <glyph glyph-name="greaterequal.tnum" 
d="M78 211l279 123l-279 123l33 81l382 -175v-58l-382 -175zM57 87h436v-87h-436v87z" />
    <glyph glyph-name="percent.tnum" 
d="M127 264c-69 0 -117 34 -117 117c0 90 72 134 129 134c71 0 117 -39 117 -117c0 -92 -71 -134 -129 -134zM95 394c0 -36 8 -71 41 -71c24 0 36 18 36 61c0 36 -7 71 -41 71c-25 0 -36 -17 -36 -61zM411 -10c-69 0 -117 34 -117 117c0 90 72 134 129 134
c71 0 117 -39 117 -117c0 -92 -71 -134 -129 -134zM379 120c0 -36 8 -71 41 -71c24 0 36 18 36 61c0 36 -7 71 -41 71c-25 0 -36 -17 -36 -61zM109 13l263 507l66 -35l-263 -507z" />
    <glyph glyph-name="perthousand.tnum" horiz-adv-x="1100" 
d="M109 13l263 507l66 -35l-263 -507zM127 264c-69 0 -117 34 -117 117c0 90 72 134 129 134c71 0 117 -39 117 -117c0 -92 -71 -134 -129 -134zM95 394c0 -36 8 -71 41 -71c24 0 36 18 36 61c0 36 -7 71 -41 71c-25 0 -36 -17 -36 -61zM411 -11c-69 0 -117 34 -117 117
c0 90 72 134 129 134c71 0 117 -39 117 -117c0 -92 -71 -134 -129 -134zM379 119c0 -36 8 -71 41 -71c24 0 36 18 36 61c0 36 -7 71 -41 71c-25 0 -36 -17 -36 -61zM685 -11c-69 0 -117 34 -117 117c0 90 72 134 129 134c71 0 117 -39 117 -117c0 -92 -71 -134 -129 -134z
M653 119c0 -36 8 -71 41 -71c24 0 36 18 36 61c0 36 -7 71 -41 71c-25 0 -36 -17 -36 -61z" />
    <glyph glyph-name="zero.lnum" horiz-adv-x="611" 
d="M297 -10c-135 0 -259 84 -259 317c0 247 143 363 277 363c135 0 259 -82 259 -315c0 -268 -143 -365 -277 -365zM193 345c0 -203 43 -278 119 -278c59 0 107 54 107 250c0 177 -43 276 -118 276c-62 0 -108 -51 -108 -248z" />
    <glyph glyph-name="one.lnum" horiz-adv-x="400" 
d="M143 69v509h-113c-1 5 -2 10 -2 14c0 31 26 46 26 46s124 14 230 28v-597l101 -16s-1 -31 -23 -55c0 0 -86 4 -149 4c-59 0 -169 -4 -169 -4c-2 5 -2 10 -2 14c0 27 27 41 27 41z" />
    <glyph glyph-name="two.lnum" horiz-adv-x="546" 
d="M489 0h-479v61s89 89 143 144c124 127 157 196 157 271c0 51 -16 106 -96 106c-60 0 -111 -32 -141 -52l-25 55c32 20 111 85 222 85c118 0 198 -53 198 -173c0 -139 -116 -238 -200 -311c-41 -36 -113 -100 -113 -100l260 14c12 24 22 71 26 105c8 6 18 10 29 10
c10 0 21 -4 28 -11c0 -10 1 -21 1 -36c0 -49 -3 -124 -10 -168z" />
    <glyph glyph-name="three.lnum" horiz-adv-x="508" 
d="M83 134c32 -34 66 -69 118 -69c85 0 109 62 109 127c0 78 -36 129 -138 129h-71v55c107 16 181 53 181 133c0 49 -24 76 -78 76s-96 -22 -123 -37l-21 52c41 29 116 70 204 70c117 0 170 -51 170 -127c0 -80 -64 -137 -130 -164c93 -12 162 -58 162 -153
c0 -132 -123 -236 -287 -236c-62 0 -123 15 -148 38c-4 9 -5 18 -5 28c0 31 18 65 57 78z" />
    <glyph glyph-name="four.lnum" horiz-adv-x="595" 
d="M137 275l177 2v218zM314 70v124h-284v58l335 408h85v-381l121 2l-7 -87h-114v-124l93 -17s-1 -31 -23 -55c0 0 -80 4 -139 4c-55 0 -159 -4 -159 -4c-2 5 -2 10 -2 14c0 27 27 41 27 41z" />
    <glyph glyph-name="five.lnum" horiz-adv-x="511" 
d="M201 65c92 0 114 73 114 146c0 77 -38 126 -103 126c-52 0 -85 -13 -119 -27l-28 23l17 327h357l-7 -113h-265l-13 -151c31 12 68 22 118 22c130 0 199 -74 199 -185c0 -138 -119 -243 -294 -243c-62 0 -119 15 -142 37c-1 8 -2 15 -2 23c0 35 16 71 55 84
c22 -23 56 -69 113 -69z" />
    <glyph glyph-name="six.lnum" horiz-adv-x="555" 
d="M457 670l7 -64c-152 -19 -238 -83 -262 -220c23 18 72 47 132 47c85 0 184 -43 184 -197c0 -156 -109 -246 -242 -246c-131 0 -236 75 -236 275c0 210 130 381 417 405zM195 295c0 -129 21 -230 94 -230c62 0 74 60 74 141c0 100 -36 143 -105 143c-25 0 -47 -6 -62 -13
c-1 -15 -1 -26 -1 -41z" />
    <glyph glyph-name="seven.lnum" horiz-adv-x="500" 
d="M49 660h446v-68l-212 -592h-136l221 547h-248c-7 -24 -18 -74 -22 -105c-9 -7 -19 -10 -30 -10c-13 0 -26 5 -34 12c0 44 6 150 15 216z" />
    <glyph glyph-name="eight.lnum" horiz-adv-x="579" 
d="M68 497c0 106 121 173 241 173c132 0 199 -61 199 -140c0 -75 -65 -127 -128 -160c80 -41 149 -77 149 -182c0 -106 -108 -198 -262 -198c-141 0 -219 63 -219 155c0 79 60 138 146 181c-70 37 -126 87 -126 171zM288 61c69 0 89 51 89 101c0 74 -52 102 -127 137
c-38 -36 -59 -74 -59 -128c0 -65 39 -110 97 -110zM218 522c0 -65 45 -93 106 -123c24 25 44 63 44 108c0 58 -34 95 -80 95s-70 -32 -70 -80z" />
    <glyph glyph-name="nine.lnum" horiz-adv-x="555" 
d="M91 54c152 19 238 83 262 220c-23 -18 -72 -47 -132 -47c-85 0 -184 43 -184 197c0 156 109 246 242 246c131 0 236 -75 236 -275c0 -210 -130 -381 -417 -405zM360 365c0 129 -21 230 -94 230c-62 0 -74 -60 -74 -141c0 -100 36 -143 105 -143c25 0 47 6 62 13
c1 15 1 26 1 41z" />
    <glyph glyph-name="cent.lnum" horiz-adv-x="514" 
d="M53 321c0 141 88 237 196 268v77c11 7 36 19 76 19h14v-84c66 -2 108 -19 132 -37c5 -11 8 -23 8 -34c0 -40 -29 -75 -57 -91c-15 25 -61 78 -117 78c-59 0 -97 -56 -97 -162c0 -128 48 -194 136 -194c38 0 82 11 111 24l18 -48c-14 -12 -66 -43 -134 -57v-78
c-11 -7 -36 -19 -76 -19h-14v91c-103 9 -196 81 -196 247z" />
    <glyph glyph-name="dollar.lnum" horiz-adv-x="536" 
d="M242 80c77 0 106 45 106 91c0 47 -37 70 -112 103l-51 23c-97 42 -134 93 -134 174c0 85 65 154 182 174v76c11 7 36 19 76 19h14v-90c52 -2 101 -12 132 -21c6 -44 9 -92 9 -132c0 -15 0 -30 -1 -41c-7 -8 -20 -11 -32 -11c-9 0 -21 2 -30 7c-4 39 -14 76 -31 109
c-15 10 -36 19 -78 19c-58 0 -101 -23 -101 -75c0 -44 28 -61 110 -98l32 -14c95 -43 155 -92 155 -185s-62 -167 -175 -192v-93c-11 -7 -36 -19 -76 -19h-14v104c-60 0 -125 13 -165 30c-7 38 -8 77 -8 112c0 24 1 46 1 63c8 7 23 12 35 12c9 0 22 -3 30 -8
c5 -43 11 -84 26 -113c30 -18 66 -24 100 -24z" />
    <glyph glyph-name="Euro.lnum" horiz-adv-x="602" 
d="M376 595c-77 0 -121 -67 -135 -167h229c0 -26 -15 -51 -24 -61h-210c0 -22 0 -45 1 -67h233c0 -26 -15 -51 -24 -61h-201c20 -109 74 -163 163 -163c46 0 96 12 146 36l18 -50c-38 -27 -116 -72 -225 -72c-137 0 -226 70 -244 249h-74c0 28 16 51 26 61h45
c0 23 1 48 3 67h-74c0 28 16 51 26 61h61c39 143 151 242 292 242c94 0 140 -22 166 -46c22 -44 -12 -97 -55 -117c-29 47 -84 88 -143 88z" />
    <glyph glyph-name="sterling.lnum" horiz-adv-x="539" 
d="M495 -3c0 0 -185 5 -306 5c-58 0 -136 -5 -136 -5c-19 12 -22 33 -22 49c57 43 81 121 81 213c0 17 -2 35 -4 53h-75l-6 29l68 42c-2 15 -3 29 -3 42c0 135 106 245 245 245c71 0 115 -12 133 -18c6 -11 9 -23 9 -35c0 -29 -17 -61 -39 -83c-26 24 -89 57 -143 57
c-52 0 -72 -35 -72 -112c0 -29 4 -58 9 -87l171 4c0 -57 -37 -84 -37 -84h-123c1 -9 2 -19 2 -28c0 -69 -27 -143 -81 -196l259 4c12 27 21 71 25 101c7 4 18 7 28 7c11 0 22 -3 29 -9c0 -62 -2 -125 -12 -194z" />
    <glyph glyph-name="yen.lnum" horiz-adv-x="675" 
d="M276 71v146h-195c0 24 14 53 23 61h172v8l-39 66h-156c0 24 15 53 23 61h98l-104 177l-79 14c-2 6 -3 11 -3 16c0 28 28 41 28 41s67 -2 128 -2c58 0 161 2 161 2s-1 -34 -23 -57c0 0 -37 -8 -59 -14l119 -222l119 222l-75 14c-2 6 -3 11 -3 16c0 28 28 41 28 41
s38 -2 99 -2c58 0 143 2 143 2s-1 -34 -23 -57c0 0 -38 -8 -65 -14l-102 -177h115c0 -27 -15 -53 -23 -61h-127l-38 -66v-8h188c0 -24 -15 -53 -23 -61h-165v-146c35 -7 90 -16 90 -16s0 -33 -23 -57c0 0 -95 4 -143 4c-47 0 -157 -4 -157 -4c-2 6 -3 11 -3 16
c0 28 28 41 28 41z" />
    <glyph glyph-name="numbersign.lnum" horiz-adv-x="610" 
d="M334 0l20 149h-135l-20 -149h-81l20 149h-109c-2 7 -3 15 -3 23c0 20 6 43 19 59h105l27 205h-112c-2 7 -3 15 -3 23c0 20 6 43 19 59h108l19 142h81l-19 -142h134l20 142h81l-20 -142h97c2 -7 3 -15 3 -23c0 -20 -6 -43 -19 -59h-92l-28 -205h100c2 -7 3 -15 3 -23
c0 -20 -6 -43 -19 -59h-95l-20 -149h-81zM258 436l-27 -205h134l28 205h-135z" />
    <glyph glyph-name="plus.lnum" horiz-adv-x="577" 
d="M71 382h169v174h97v-174h169v-92h-169v-174h-97v174h-169v92z" />
    <glyph glyph-name="plusminus.lnum" horiz-adv-x="526" 
d="M307 213h-89v125h-142v84h142v133h89v-133h143v-84h-143v-125zM450 40h-374v90h374v-90z" />
    <glyph glyph-name="multiply.lnum" horiz-adv-x="570" 
d="M499 475l-148 -147l148 -146l-66 -66l-148 147l-148 -147l-66 66l148 146l-148 147l65 66l149 -148l149 148z" />
    <glyph glyph-name="divide.lnum" horiz-adv-x="578" 
d="M71 373h436v-92h-436v92zM221 146c0 38 27 69 67 69s70 -30 70 -68c0 -40 -30 -71 -70 -71s-67 30 -67 70zM221 497c0 38 27 69 67 69s70 -30 70 -68c0 -40 -30 -71 -70 -71s-67 30 -67 70z" />
    <glyph glyph-name="equal.lnum" horiz-adv-x="578" 
d="M71 474h436v-92h-436v92zM71 290h436v-92h-436v92z" />
    <glyph glyph-name="notequal.lnum" horiz-adv-x="578" 
d="M71 474h244l40 92l56 -27l-28 -65h124v-92h-163l-40 -92h203v-92h-242l-41 -96l-56 27l29 69h-126v92h166l39 92h-205v92z" />
    <glyph glyph-name="logicalnot.lnum" horiz-adv-x="578" 
d="M71 382h436v-273h-97v181h-339v92z" />
    <glyph glyph-name="approxequal.lnum" horiz-adv-x="591" 
d="M203 413c-38 0 -65 -16 -95 -42l-37 33c23 41 79 105 153 105c72 0 105 -56 164 -56c38 0 65 16 95 42l37 -33c-23 -41 -79 -105 -153 -105c-71 0 -111 56 -164 56zM203 222c-38 0 -65 -16 -95 -42l-37 33c23 41 79 105 153 105c72 0 105 -56 164 -56c38 0 65 16 95 42
l37 -33c-23 -41 -79 -105 -153 -105c-71 0 -111 56 -164 56z" />
    <glyph glyph-name="hyphen.lnum" horiz-adv-x="321" 
d="M55 389h223c2 -12 3 -23 3 -33c0 -35 -11 -61 -15 -69h-223c-2 10 -3 20 -3 30c0 32 11 63 15 72z" />
    <glyph glyph-name="endash.lnum" horiz-adv-x="645" 
d="M544 288h-455c-2 8 -3 21 -3 30c0 35 10 60 15 70h455c2 -8 3 -21 3 -30c0 -35 -10 -60 -15 -70z" />
    <glyph glyph-name="minus.lnum" horiz-adv-x="578" 
d="M71 382h436v-92h-436v92z" />
    <glyph glyph-name="less.lnum" horiz-adv-x="581" 
d="M71 307v58l391 232l48 -81l-306 -180l306 -180l-48 -81z" />
    <glyph glyph-name="greater.lnum" horiz-adv-x="581" 
d="M510 365v-58l-391 -232l-48 81l306 180l-306 180l48 81z" />
    <glyph glyph-name="lessequal.lnum" horiz-adv-x="578" 
d="M207 343l279 -123l-33 -81l-382 175v58l382 175l33 -81zM71 87h436v-87h-436v87z" />
    <glyph glyph-name="greaterequal.lnum" horiz-adv-x="578" 
d="M92 220l279 123l-279 123l33 81l382 -175v-58l-382 -175zM71 87h436v-87h-436v87z" />
    <glyph glyph-name="percent.lnum" horiz-adv-x="662" 
d="M151 396c-75 0 -124 38 -124 130c0 99 68 148 136 148c76 0 124 -43 124 -130c0 -101 -66 -148 -136 -148zM117 540c0 -42 8 -85 43 -85c23 0 38 25 38 74c0 43 -7 85 -43 85c-24 0 -38 -21 -38 -74zM501 -10c-75 0 -124 38 -124 130c0 99 68 148 136 148
c76 0 124 -43 124 -130c0 -101 -66 -148 -136 -148zM467 134c0 -42 8 -85 43 -85c23 0 38 25 38 74c0 43 -7 85 -43 85c-24 0 -38 -21 -38 -74zM118 13l347 670l70 -35l-347 -670z" />
    <glyph glyph-name="perthousand.lnum" horiz-adv-x="968" 
d="M151 396c-75 0 -124 38 -124 130c0 99 68 148 136 148c76 0 124 -43 124 -130c0 -101 -66 -148 -136 -148zM117 540c0 -42 8 -85 43 -85c23 0 38 25 38 74c0 43 -7 85 -43 85c-24 0 -38 -21 -38 -74zM501 -10c-75 0 -124 38 -124 130c0 99 68 148 136 148
c76 0 124 -43 124 -130c0 -101 -66 -148 -136 -148zM467 134c0 -42 8 -85 43 -85c23 0 38 25 38 74c0 43 -7 85 -43 85c-24 0 -38 -21 -38 -74zM118 13l347 670l70 -35l-347 -670zM807 -10c-75 0 -124 38 -124 130c0 99 68 148 136 148c76 0 124 -43 124 -130
c0 -101 -66 -148 -136 -148zM773 134c0 -42 8 -85 43 -85c23 0 38 25 38 74c0 43 -7 85 -43 85c-24 0 -38 -21 -38 -74z" />
    <glyph glyph-name="zero.tnum_lnum" 
d="M266 -10c-126 0 -244 84 -244 317c0 247 134 363 262 363c126 0 244 -82 244 -315c0 -268 -134 -365 -262 -365zM177 345c0 -203 37 -278 104 -278c50 0 92 54 92 250c0 177 -37 276 -103 276c-53 0 -93 -51 -93 -248z" />
    <glyph glyph-name="one.tnum_lnum" 
d="M232 70v508h-138c-1 5 -2 10 -2 14c0 31 26 46 26 46s139 14 255 28v-596l126 -17s-1 -31 -23 -55c0 0 -101 4 -174 4c-69 0 -194 -4 -194 -4c-2 5 -2 10 -2 14c0 27 27 41 27 41z" />
    <glyph glyph-name="two.tnum_lnum" 
d="M499 0h-479v61s89 89 143 144c124 127 157 196 157 271c0 51 -16 106 -96 106c-60 0 -111 -32 -141 -52l-25 55c32 20 111 85 222 85c118 0 198 -53 198 -173c0 -139 -116 -238 -200 -311c-41 -36 -113 -100 -113 -100l260 14c12 24 22 71 26 105c8 6 18 10 29 10
c10 0 21 -4 28 -11c0 -10 1 -21 1 -36c0 -49 -3 -124 -10 -168z" />
    <glyph glyph-name="three.tnum_lnum" 
d="M108 134c33 -34 69 -69 123 -69c89 0 114 62 114 127c0 78 -37 129 -143 129h-76v55c113 16 191 53 191 133c0 49 -26 76 -83 76c-56 0 -100 -22 -128 -37l-21 52c42 29 119 70 209 70c120 0 175 -51 175 -127c0 -80 -66 -137 -135 -164c96 -12 167 -58 167 -153
c0 -132 -125 -236 -292 -236c-64 0 -127 15 -153 38c-4 9 -5 18 -5 28c0 31 18 65 57 78z" />
    <glyph glyph-name="four.tnum_lnum" 
d="M114 275l171 2v220zM285 70v124h-278v58l329 408h85v-381l115 2l-7 -87h-108v-124l93 -17s-1 -31 -23 -55c0 0 -80 4 -139 4c-55 0 -159 -4 -159 -4c-2 5 -2 10 -2 14c0 27 27 41 27 41z" />
    <glyph glyph-name="five.tnum_lnum" 
d="M238 65c92 0 114 73 114 146c0 77 -38 126 -103 126c-52 0 -85 -13 -119 -27l-28 23l17 327h357l-7 -113h-265l-13 -151c31 12 68 22 118 22c130 0 199 -74 199 -185c0 -138 -119 -243 -294 -243c-62 0 -119 15 -142 37c-1 8 -2 15 -2 23c0 35 16 71 55 84
c22 -23 56 -69 113 -69z" />
    <glyph glyph-name="six.tnum_lnum" 
d="M449 670l7 -64c-152 -19 -238 -83 -262 -220c23 18 72 47 132 47c85 0 184 -43 184 -197c0 -156 -109 -246 -242 -246c-131 0 -236 75 -236 275c0 210 130 381 417 405zM187 295c0 -129 21 -230 94 -230c62 0 74 60 74 141c0 100 -36 143 -105 143c-25 0 -47 -6 -62 -13
c-1 -15 -1 -26 -1 -41z" />
    <glyph glyph-name="seven.tnum_lnum" 
d="M82 660h446v-68l-212 -592h-136l221 547h-248c-7 -24 -18 -74 -22 -105c-9 -7 -19 -10 -30 -10c-13 0 -26 5 -34 12c0 44 6 150 15 216z" />
    <glyph glyph-name="eight.tnum_lnum" 
d="M69 497c0 106 118 173 236 173c129 0 194 -61 194 -140c0 -75 -62 -127 -123 -160c77 -41 144 -77 144 -182c0 -106 -106 -198 -257 -198c-138 0 -214 63 -214 155c0 79 58 138 141 181c-67 37 -121 87 -121 171zM284 61c65 0 84 51 84 101c0 74 -50 102 -122 137
c-35 -36 -54 -74 -54 -128c0 -63 35 -110 92 -110zM219 522c0 -65 43 -93 101 -123c21 25 39 63 39 108c0 57 -30 95 -75 95c-43 0 -65 -32 -65 -80z" />
    <glyph glyph-name="nine.tnum_lnum" 
d="M98 54c152 19 238 83 262 220c-23 -18 -72 -47 -132 -47c-85 0 -184 43 -184 197c0 156 109 246 242 246c131 0 236 -75 236 -275c0 -210 -130 -381 -417 -405zM367 365c0 129 -21 230 -94 230c-62 0 -74 -60 -74 -141c0 -100 36 -143 105 -143c25 0 47 6 62 13
c1 15 1 26 1 41z" />
    <glyph glyph-name="cent.tnum_lnum" 
d="M79 321c0 141 88 237 196 268v77c11 7 36 19 76 19h14v-84c66 -2 108 -19 132 -37c5 -11 8 -23 8 -34c0 -40 -29 -75 -57 -91c-15 25 -61 78 -117 78c-59 0 -97 -56 -97 -162c0 -128 48 -194 136 -194c38 0 82 11 111 24l18 -48c-14 -12 -66 -43 -134 -57v-78
c-11 -7 -36 -19 -76 -19h-14v91c-103 9 -196 81 -196 247z" />
    <glyph glyph-name="dollar.tnum_lnum" 
d="M257 80c77 0 106 45 106 91c0 47 -37 70 -112 103l-51 23c-97 42 -134 93 -134 174c0 85 65 154 182 174v76c11 7 36 19 76 19h14v-90c52 -2 101 -12 132 -21c6 -44 9 -92 9 -132c0 -15 0 -30 -1 -41c-7 -8 -20 -11 -32 -11c-9 0 -21 2 -30 7c-4 39 -14 76 -31 109
c-15 10 -36 19 -78 19c-58 0 -101 -23 -101 -75c0 -44 28 -61 110 -98l32 -14c95 -43 155 -92 155 -185s-62 -167 -175 -192v-93c-11 -7 -36 -19 -76 -19h-14v104c-60 0 -125 13 -165 30c-7 38 -8 77 -8 112c0 24 1 46 1 63c8 7 23 12 35 12c9 0 22 -3 30 -8
c5 -43 11 -84 26 -113c30 -18 66 -24 100 -24z" />
    <glyph glyph-name="Euro.tnum_lnum" 
d="M362 595c-77 0 -121 -67 -135 -167h229c0 -26 -15 -51 -24 -61h-210c0 -22 0 -45 1 -67h233c0 -26 -15 -51 -24 -61h-201c20 -109 74 -163 163 -163c46 0 96 12 146 36l18 -50c-38 -27 -116 -72 -225 -72c-137 0 -226 70 -244 249h-74c0 28 16 51 26 61h45
c0 23 1 48 3 67h-74c0 28 16 51 26 61h61c39 143 151 242 292 242c94 0 140 -22 166 -46c22 -44 -12 -97 -55 -117c-29 47 -84 88 -143 88z" />
    <glyph glyph-name="sterling.tnum_lnum" 
d="M502 -3c0 0 -185 5 -306 5c-58 0 -136 -5 -136 -5c-19 12 -22 33 -22 49c57 43 81 121 81 213c0 17 -2 35 -4 53h-75l-6 29l68 42c-2 15 -3 29 -3 42c0 135 106 245 245 245c71 0 115 -12 133 -18c6 -11 9 -23 9 -35c0 -29 -17 -61 -39 -83c-26 24 -89 57 -143 57
c-52 0 -72 -35 -72 -112c0 -29 4 -58 9 -87l171 4c0 -57 -37 -84 -37 -84h-123c1 -9 2 -19 2 -28c0 -69 -27 -143 -81 -196l259 4c12 27 21 71 25 101c7 4 18 7 28 7c11 0 22 -3 29 -9c0 -62 -2 -125 -12 -194z" />
    <glyph glyph-name="yen.tnum_lnum" 
d="M214 71v146h-185c0 24 14 53 23 61h162v8l-37 66h-148c0 24 15 53 23 61h92l-98 177l-69 14c-2 6 -3 11 -3 16c0 28 28 41 28 41s61 -2 118 -2c58 0 146 2 146 2s-1 -34 -23 -57c0 0 -27 -8 -49 -14l114 -222l112 222l-65 14c-2 6 -3 11 -3 16c0 28 28 41 28 41
s25 -2 86 -2c54 0 133 2 133 2s-1 -34 -23 -57c0 0 -32 -8 -55 -14l-96 -177h109c0 -27 -15 -53 -23 -61h-119l-36 -66v-8h178c0 -24 -15 -53 -23 -61h-155v-146c35 -7 90 -16 90 -16s0 -33 -23 -57c0 0 -95 4 -143 4c-47 0 -157 -4 -157 -4c-2 6 -3 11 -3 16
c0 28 28 41 28 41z" />
    <glyph glyph-name="numbersign.tnum_lnum" 
d="M294 0l20 149h-115l-20 -149h-81l20 149h-109c-2 7 -3 15 -3 23c0 20 6 43 19 59h104l28 205h-112c-2 7 -3 15 -3 23c0 20 6 43 19 59h107l20 142h81l-20 -142h115l20 142h81l-20 -142h97c2 -7 3 -15 3 -23c0 -20 -6 -43 -19 -59h-92l-28 -205h100c2 -7 3 -15 3 -23
c0 -20 -6 -43 -19 -59h-95l-20 -149h-81zM238 436l-28 -205h115l28 205h-115z" />
    <glyph glyph-name="plus.tnum_lnum" 
d="M57 382h169v174h97v-174h169v-92h-169v-174h-97v174h-169v92z" />
    <glyph glyph-name="plusminus.tnum_lnum" 
d="M319 213h-89v125h-142v84h142v133h89v-133h143v-84h-143v-125zM462 40h-374v90h374v-90z" />
    <glyph glyph-name="multiply.tnum_lnum" 
d="M489 475l-148 -147l148 -146l-66 -66l-148 147l-148 -147l-66 66l148 146l-148 147l65 66l149 -148l149 148z" />
    <glyph glyph-name="divide.tnum_lnum" 
d="M57 373h436v-92h-436v92zM207 146c0 38 27 69 67 69s70 -30 70 -68c0 -40 -30 -71 -70 -71s-67 30 -67 70zM207 497c0 38 27 69 67 69s70 -30 70 -68c0 -40 -30 -71 -70 -71s-67 30 -67 70z" />
    <glyph glyph-name="equal.tnum_lnum" 
d="M57 474h436v-92h-436v92zM57 290h436v-92h-436v92z" />
    <glyph glyph-name="notequal.tnum_lnum" 
d="M57 474h244l40 92l56 -27l-28 -65h124v-92h-163l-40 -92h203v-92h-242l-41 -96l-56 27l29 69h-126v92h166l39 92h-205v92z" />
    <glyph glyph-name="logicalnot.tnum_lnum" 
d="M57 382h436v-273h-97v181h-339v92z" />
    <glyph glyph-name="approxequal.tnum_lnum" 
d="M182 413c-38 0 -65 -16 -95 -42l-37 33c23 41 79 105 153 105c72 0 105 -56 164 -56c38 0 65 16 95 42l37 -33c-23 -41 -79 -105 -153 -105c-71 0 -111 56 -164 56zM182 222c-38 0 -65 -16 -95 -42l-37 33c23 41 79 105 153 105c72 0 105 -56 164 -56c38 0 65 16 95 42
l37 -33c-23 -41 -79 -105 -153 -105c-71 0 -111 56 -164 56z" />
    <glyph glyph-name="hyphen.tnum_lnum" 
d="M170 389h223c2 -12 3 -23 3 -33c0 -35 -11 -61 -15 -69h-223c-2 10 -3 20 -3 30c0 32 11 63 15 72z" />
    <glyph glyph-name="endash.tnum_lnum" 
d="M496 291h-455c-2 8 -3 21 -3 30c0 35 10 60 15 70h455c2 -8 3 -21 3 -30c0 -35 -10 -60 -15 -70z" />
    <glyph glyph-name="minus.tnum_lnum" 
d="M57 382h436v-92h-436v92z" />
    <glyph glyph-name="less.tnum_lnum" 
d="M55 307v58l391 232l48 -81l-306 -180l306 -180l-48 -81z" />
    <glyph glyph-name="greater.tnum_lnum" 
d="M495 365v-58l-391 -232l-48 81l306 180l-306 180l48 81z" />
    <glyph glyph-name="lessequal.tnum_lnum" 
d="M193 343l279 -123l-33 -81l-382 175v58l382 175l33 -81zM57 87h436v-87h-436v87z" />
    <glyph glyph-name="greaterequal.tnum_lnum" 
d="M78 220l279 123l-279 123l33 81l382 -175v-58l-382 -175zM57 87h436v-87h-436v87z" />
    <glyph glyph-name="percent.tnum_lnum" 
d="M134 396c-75 0 -124 38 -124 130c0 99 68 148 136 148c76 0 124 -43 124 -130c0 -101 -66 -148 -136 -148zM100 540c0 -42 8 -85 43 -85c23 0 38 25 38 74c0 43 -7 85 -43 85c-24 0 -38 -21 -38 -74zM403 -10c-75 0 -124 38 -124 130c0 99 68 148 136 148
c76 0 124 -43 124 -130c0 -101 -66 -148 -136 -148zM369 134c0 -42 8 -85 43 -85c23 0 38 25 38 74c0 43 -7 85 -43 85c-24 0 -38 -21 -38 -74zM62 13l347 670l70 -35l-347 -670z" />
    <glyph glyph-name="perthousand.tnum_lnum" horiz-adv-x="1100" 
d="M134 396c-75 0 -124 38 -124 130c0 99 68 148 136 148c76 0 124 -43 124 -130c0 -101 -66 -148 -136 -148zM100 540c0 -42 8 -85 43 -85c23 0 38 25 38 74c0 43 -7 85 -43 85c-24 0 -38 -21 -38 -74zM403 -10c-75 0 -124 38 -124 130c0 99 68 148 136 148
c76 0 124 -43 124 -130c0 -101 -66 -148 -136 -148zM369 134c0 -42 8 -85 43 -85c23 0 38 25 38 74c0 43 -7 85 -43 85c-24 0 -38 -21 -38 -74zM62 13l347 670l70 -35l-347 -670zM698 -10c-75 0 -124 38 -124 130c0 99 68 148 136 148c76 0 124 -43 124 -130
c0 -101 -66 -148 -136 -148zM664 134c0 -42 8 -85 43 -85c23 0 38 25 38 74c0 43 -7 85 -43 85c-24 0 -38 -21 -38 -74z" />
    <glyph glyph-name="zero.smcp_tnum" 
d="M267 -10c-121 0 -232 65 -232 244c0 190 128 280 248 280c121 0 232 -64 232 -242c0 -193 -128 -282 -248 -282zM185 264c0 -121 28 -208 96 -208c52 0 84 46 84 186c0 120 -28 206 -96 206c-52 0 -84 -41 -84 -184z" />
    <glyph glyph-name="one.smcp_tnum" 
d="M235 65v364h-127c-2 7 -3 14 -3 17c0 24 27 38 27 38l234 23v-442c45 -7 118 -14 118 -14s0 -30 -23 -53c0 0 -99 4 -163 4c-69 0 -182 -4 -182 -4c-2 4 -3 10 -3 16c0 21 24 37 24 37z" />
    <glyph glyph-name="two.smcp_tnum" 
d="M495 0h-447v53s83 71 113 97c102 91 137 149 137 211c0 41 -15 76 -79 76c-54 0 -97 -30 -116 -41l-22 51c49 30 112 67 196 67c110 0 170 -48 170 -132c0 -112 -103 -178 -191 -250c-33 -26 -71 -52 -75 -54l248 10c9 20 16 53 20 79c8 5 17 8 26 8c12 0 22 -5 28 -10
c1 -7 1 -17 1 -28c0 -36 -3 -100 -9 -137z" />
    <glyph glyph-name="three.smcp_tnum" 
d="M239 55c66 0 90 46 90 96c0 58 -32 94 -112 94h-71v47c116 15 161 43 161 97c0 35 -22 55 -66 55c-46 0 -80 -17 -112 -33l-16 47c41 27 107 56 180 56c103 0 157 -37 157 -98c0 -63 -55 -108 -106 -123c65 -5 132 -47 132 -117c0 -103 -111 -186 -255 -186
c-56 0 -116 13 -134 31c-3 8 -4 15 -4 23c0 25 7 51 45 66c24 -25 66 -55 111 -55z" />
    <glyph glyph-name="four.smcp_tnum" 
d="M139 199l148 2v174zM287 0v124h-246v58l277 322h93v-301l100 2l-6 -81h-94v-124h-124z" />
    <glyph glyph-name="five.smcp_tnum" 
d="M250 57c60 0 84 50 84 100c0 56 -21 95 -79 95c-37 0 -60 -9 -95 -24l-29 22l15 254h311l-7 -96h-225l-10 -106c25 12 61 20 94 20c110 0 170 -49 170 -141c0 -109 -107 -191 -247 -191c-53 0 -100 12 -123 31c-3 9 -4 17 -4 26c0 27 15 52 45 63c21 -21 54 -53 100 -53z
" />
    <glyph glyph-name="six.smcp_tnum" 
d="M429 509l3 -58c-110 -1 -193 -43 -217 -148c32 19 72 31 110 31c76 0 159 -37 159 -151c0 -117 -93 -193 -211 -193c-115 0 -206 62 -206 216c0 178 139 303 362 303zM212 223c0 -109 18 -172 72 -172c41 0 56 40 56 111s-30 103 -81 103c-13 0 -31 -3 -46 -8
c-1 -9 -1 -25 -1 -34z" />
    <glyph glyph-name="seven.smcp_tnum" 
d="M78 504h424v-57l-190 -447h-123l193 410h-239c-7 -20 -14 -57 -16 -79c-8 -5 -18 -8 -30 -8c-13 0 -25 3 -32 10c0 44 5 118 13 171z" />
    <glyph glyph-name="eight.smcp_tnum" 
d="M484 404c0 -50 -38 -88 -109 -122c84 -41 126 -74 126 -138c0 -82 -86 -154 -227 -154c-121 0 -193 50 -193 122c0 50 34 100 126 137c-61 27 -110 65 -110 126c0 90 98 139 211 139c115 0 176 -46 176 -110zM363 126c0 37 -23 65 -101 101c-39 -31 -48 -68 -48 -95
c0 -55 33 -82 77 -82c52 0 72 38 72 76zM235 397c0 -43 32 -65 84 -89c26 27 34 56 34 78c0 42 -28 70 -62 70c-35 0 -56 -25 -56 -59z" />
    </font>
</defs>
</svg>
